<svg xmlns="http://www.w3.org/2000/svg" width="420" height="400" viewBox="0 0 420 400"><defs><style>.a,.p{fill:#f5f5f5;}.ad,.b,.j{fill:#407bff;}.c,.m,.o{opacity:0.3;}.ab,.am,.d,.m,.q,.r,.s,.t,.y,.z{fill:#fff;}.e{opacity:0.65;}.f{fill:#e0e0e0;}.g{fill:#ebebeb;}.ac,.h,.q{opacity:0.25;}.ad,.i,.s{opacity:0.1;}.aa,.ab,.ac,.ad,.am,.i,.j,.k,.l,.m,.n,.o,.p,.q,.r,.s,.t,.u,.y,.z{isolation:isolate;}.ak,.j,.p,.r{opacity:0.5;}.k{opacity:0.2;}.ab,.ao,.l{opacity:0.4;}.n{opacity:0.45;}.aa,.an,.t{opacity:0.55;}.u{opacity:0.15;}.v{fill:#263238;}.w{fill:#37474f;}.x{fill:#455a64;}.y{opacity:0.6;}.z{opacity:0.75;}.ae{fill:#ffbda7;}.af{fill:#f0997a;}.ag{fill:#b16668;}.ah{fill:#ffa8a7;}.ai{fill:#fafafa;}.aj{fill:#e6e6e6;}.al{opacity:0.7;}.am{opacity:0.8;}</style></defs><path class="a" d="M65.71,360.26c-79.69-53-79.69-138.89,0-191.87s208.91-53,288.58,0,79.69,138.89,0,191.87S145.4,413.25,65.71,360.26Z"/><path class="b" d="M364.57,194.79l-7.28-4.2s-4.33-18-2.61-34.18c2.43-22.76,17.42-31.33,23.11-29.36s7.34,8.58-2.08,22.14C370.15,157.19,363.32,173.85,364.57,194.79Z"/><g class="c"><path class="d" d="M364.57,194.79l-7.28-4.2s-4.33-18-2.61-34.18c2.43-22.76,17.42-31.33,23.11-29.36s7.34,8.58-2.08,22.14C370.15,157.19,363.32,173.85,364.57,194.79Z"/></g><path class="d" d="M361.55,185.93h.07a.52.52,0,0,0,.4-.6c-4-21,3.32-44.58,12.44-54.4a.49.49,0,0,0,0-.7h0a.5.5,0,0,0-.71,0c-9.25,10-16.73,34-12.68,55.27A.51.51,0,0,0,361.55,185.93Z"/><path class="b" d="M382.87,205.36c1.09.56,4-1.91,4.78-2.48a10.11,10.11,0,0,0,3.16-4,9.43,9.43,0,0,0,.56-5.72,24,24,0,0,0-.83-3l-1-2.88a7.41,7.41,0,0,1-.58-2.94c.16-2,1.86-3.5,3.42-4.79,1.72-1.43,3.49-3.32,3.36-5.71a8.5,8.5,0,0,0-2.38-4.93c-1.23-1.41-2.66-2.63-3.78-4.15a5.87,5.87,0,0,1-1.4-3.69,6.06,6.06,0,0,1,.7-2.38,33.22,33.22,0,0,0,2.32-4.81c.51-1.71.32-3.82-1.06-5a5.57,5.57,0,0,0-4.2-.83,9.45,9.45,0,0,0-3.79,1.56c-3.73,2.32-5.68,7-9.66,8.81a43.07,43.07,0,0,1-4.86,1.45,6,6,0,0,0-3.91,3c-1.34,3,1.61,6.58.72,9.79-.79,2.84-3.45,4.05-4.85,6.63a6.06,6.06,0,0,0-.52,3.7,17.46,17.46,0,0,0,1.85,6.11,55.24,55.24,0,0,0,3.68,5.65S382.7,205.28,382.87,205.36Z"/><g class="e"><path class="d" d="M382.87,205.36c1.09.56,4-1.91,4.78-2.48a10.11,10.11,0,0,0,3.16-4,9.43,9.43,0,0,0,.56-5.72,24,24,0,0,0-.83-3l-1-2.88a7.41,7.41,0,0,1-.58-2.94c.16-2,1.86-3.5,3.42-4.79,1.72-1.43,3.49-3.32,3.36-5.71a8.5,8.5,0,0,0-2.38-4.93c-1.23-1.41-2.66-2.63-3.78-4.15a5.87,5.87,0,0,1-1.4-3.69,6.06,6.06,0,0,1,.7-2.38,33.22,33.22,0,0,0,2.32-4.81c.51-1.71.32-3.82-1.06-5a5.57,5.57,0,0,0-4.2-.83,9.45,9.45,0,0,0-3.79,1.56c-3.73,2.32-5.68,7-9.66,8.81a43.07,43.07,0,0,1-4.86,1.45,6,6,0,0,0-3.91,3c-1.34,3,1.61,6.58.72,9.79-.79,2.84-3.45,4.05-4.85,6.63a6.06,6.06,0,0,0-.52,3.7,17.46,17.46,0,0,0,1.85,6.11,55.24,55.24,0,0,0,3.68,5.65S382.7,205.28,382.87,205.36Z"/></g><path class="d" d="M372.35,199.87h0a.47.47,0,0,0,.44-.5h0c-1.75-18.88,6.12-40.23,12.29-46.62a.48.48,0,0,0-.68-.66c-6.31,6.52-14.33,28.19-12.57,47.36A.49.49,0,0,0,372.35,199.87Z"/><path class="d" d="M374.2,176.6h.14A64,64,0,0,1,388,173.7a.49.49,0,0,0,.44-.51v0a.45.45,0,0,0-.49-.43h0a65.1,65.1,0,0,0-13.86,3,.48.48,0,0,0-.28.61h0A.5.5,0,0,0,374.2,176.6Z"/><ellipse class="f" cx="349.05" cy="212.22" rx="39.81" ry="22.99"/><path class="f" d="M92.32,294.79c-15.88-9.17-41.64-9.17-57.53,0s-15.9,24,0,33.22,41.65,9.17,57.53,0S108.21,304,92.32,294.79Z"/><path class="f" d="M149.83,338.05c-16.5-9.53-43.25-9.53-59.76,0s-16.5,25,0,34.5,43.26,9.53,59.76,0S166.33,347.57,149.83,338.05Z"/><path class="g" d="M361.19,48V41.53a.4.4,0,0,0-.34-.47.42.42,0,0,0-.29,0l-5,2.25a.59.59,0,0,1-.79-.27.56.56,0,0,1,0-.12,10.47,10.47,0,0,0-1.11-2.49,1.34,1.34,0,0,1-.07-1.2l3.32-6.68a.75.75,0,0,0-.29-1L353,29.55a.75.75,0,0,0-1,.24L347.88,36a1.39,1.39,0,0,1-1.08.54,11.15,11.15,0,0,0-2.7.27.57.57,0,0,1-.72-.41.36.36,0,0,1,0-.11l-.54-5.42a.41.41,0,0,0-.39-.43.37.37,0,0,0-.28.09l-5.59,3.22a1.49,1.49,0,0,0-.66,1L335.34,41a2.14,2.14,0,0,1-.58,1.16,32.58,32.58,0,0,0-3.11,3.32,1.06,1.06,0,0,1-1.09.3L327,44.53a.88.88,0,0,0-1,.37L321.86,52a.88.88,0,0,0,.18,1.06l2.88,2.49a1.07,1.07,0,0,1,.27,1.11A35.92,35.92,0,0,0,323.9,61a2.06,2.06,0,0,1-.71,1.08l-5.1,3.59a1.52,1.52,0,0,0-.57,1.11v6.45a.4.4,0,0,0,.35.47.45.45,0,0,0,.28-.06l5-2.24a.58.58,0,0,1,.79.27.36.36,0,0,1,0,.11,11.34,11.34,0,0,0,1.11,2.49,1.42,1.42,0,0,1,.08,1.21l-3.32,6.67a.75.75,0,0,0,.3,1l3.59,2.08a.76.76,0,0,0,1-.23l4.15-6.21a1.34,1.34,0,0,1,1.08-.54,11,11,0,0,0,2.68-.27.59.59,0,0,1,.73.42.43.43,0,0,1,0,.11l.55,5.42a.41.41,0,0,0,.67.35L342.18,81a1.47,1.47,0,0,0,.66-1l.56-6.21a2,2,0,0,1,.58-1.16,36,36,0,0,0,3.1-3.32,1.06,1.06,0,0,1,1.1-.31l3.58,1.25a.88.88,0,0,0,1-.38l4.14-7.1a.87.87,0,0,0-.18-1.06l-2.88-2.49a1.09,1.09,0,0,1-.28-1.1,34.73,34.73,0,0,0,1.3-4.33,2,2,0,0,1,.71-1.09l5.05-3.59A1.48,1.48,0,0,0,361.19,48ZM339.37,68.26c-5.22,3-9.44.57-9.44-5.45s4.21-13.34,9.44-16.35,9.43-.56,9.43,5.45S344.57,65.25,339.37,68.26Z"/><path class="g" d="M382.17,76l-.59-3.45A.58.58,0,0,0,381,72a.64.64,0,0,0-.36.14l-3.12,2.08a.91.91,0,0,1-1.27-.27h0a7.48,7.48,0,0,0-.62-.75,1.58,1.58,0,0,1-.37-1.51l1.57-4.36a.83.83,0,0,0-.5-1.06l-.08,0-2.39-.58a1.3,1.3,0,0,0-1.35.64l-2.25,4.27a2.38,2.38,0,0,1-1.35,1,10.65,10.65,0,0,0-1.48.48.82.82,0,0,1-1.09-.42.3.3,0,0,1,0-.1l-.83-2.67a.6.6,0,0,0-.68-.49.59.59,0,0,0-.33.17l-3.52,2.83a2,2,0,0,0-.68,1.52l.21,3.4a2.67,2.67,0,0,1-.55,1.66,25.34,25.34,0,0,0-1.66,2.2,1.88,1.88,0,0,1-1.46.74l-2.3-.12a1.47,1.47,0,0,0-1.32.83L351,86.46a.92.92,0,0,0,.47,1.22h0l1.85.83a1.14,1.14,0,0,1,.64,1.28,22.73,22.73,0,0,0-.39,2.31,2.86,2.86,0,0,1-.78,1.57l-3.17,2.92a1.93,1.93,0,0,0-.53,1.56l.59,3.46a.58.58,0,0,0,.6.54.52.52,0,0,0,.35-.14l3.17-2.08a.92.92,0,0,1,1.26.27v0a7.14,7.14,0,0,0,.61.75,1.58,1.58,0,0,1,.37,1.51l-1.61,4.37a.83.83,0,0,0,.5,1.06l.09,0,2.38.53a1.28,1.28,0,0,0,1.35-.63l2.25-4.27a2.32,2.32,0,0,1,1.36-1,12.67,12.67,0,0,0,1.47-.49.82.82,0,0,1,1.09.42.42.42,0,0,1,0,.1l.83,2.68a.6.6,0,0,0,.69.48.59.59,0,0,0,.32-.17l3.57-2.81a2,2,0,0,0,.68-1.52l-.21-3.4a2.69,2.69,0,0,1,.55-1.66A25.19,25.19,0,0,0,373.05,94a1.84,1.84,0,0,1,1.45-.74l2.3.12a1.52,1.52,0,0,0,1.33-.83l2.15-4.85a.91.91,0,0,0-.44-1.21h0l-1.86-.83a1.14,1.14,0,0,1-.63-1.28,20.25,20.25,0,0,0,.39-2.31,2.93,2.93,0,0,1,.78-1.57l3.18-2.9A1.85,1.85,0,0,0,382.17,76ZM366.9,94.44c-3.87,3-7.59,2.22-8.29-1.85s1.87-9.84,5.74-12.89,7.59-2.21,8.29,1.86S370.78,91.39,366.9,94.44Z"/><path class="b" d="M384.15,203.66a22.77,22.77,0,0,0-8.44-7.78c-13.75-7.94-36-7.94-49.75,0a22.66,22.66,0,0,0-8.41,7.77h-1.91v7.2h0c.26,5,3.68,10,10.29,13.77,13.74,7.94,36,7.94,49.76,0,6.63-3.82,10.06-8.77,10.31-13.77h0v-7.2Z"/><g class="h"><path d="M384.15,203.66a22.77,22.77,0,0,0-8.44-7.78c-13.75-7.94-36-7.94-49.75,0a22.66,22.66,0,0,0-8.41,7.77h-1.91v7.2h0c.26,5,3.68,10,10.29,13.77,13.74,7.94,36,7.94,49.76,0,6.63-3.82,10.06-8.77,10.31-13.77h0v-7.2Z"/></g><path class="i" d="M350.83,189.93c-9,0-18,2-24.88,6a22.58,22.58,0,0,0-8.41,7.77h-1.91v7.19h0c.26,5,3.69,10,10.29,13.78,6.88,4,15.88,5.94,24.88,5.94Z"/><path class="i" d="M331.6,193.23a38,38,0,0,0-5.67,2.66,22.65,22.65,0,0,0-8.41,7.77h-1.9v7.19h0c.25,5,3.68,10,10.29,13.78a39.39,39.39,0,0,0,5.66,2.65Z"/><path class="j" d="M370.05,193.23a37.92,37.92,0,0,1,5.66,2.66,22.66,22.66,0,0,1,8.44,7.77h1.9v7.19h0c-.25,5-3.7,10-10.31,13.78a39.5,39.5,0,0,1-5.67,2.65Z"/><path class="b" d="M375.71,189.29c-13.75-7.93-36-7.93-49.75,0S312.21,210.1,326,218s36,7.93,49.75,0S389.46,197.23,375.71,189.29Z"/><path class="k" d="M375.71,189.29c-13.75-7.93-36-7.93-49.75,0S312.21,210.1,326,218s36,7.93,49.75,0S389.46,197.23,375.71,189.29Z"/><path class="b" d="M367,194.55a39.68,39.68,0,0,0-32.41,0c-4.62,2.36-7.15,5.6-7.15,9.12s2.53,6.75,7.15,9.12a39.57,39.57,0,0,0,32.41,0c4.6-2.35,7.14-5.58,7.14-9.12S371.63,196.91,367,194.55Z"/><path class="l" d="M367,194.55a39.68,39.68,0,0,0-32.41,0c-4.62,2.36-7.15,5.6-7.15,9.12s2.53,6.75,7.15,9.12a39.57,39.57,0,0,0,32.41,0c4.6-2.35,7.14-5.58,7.14-9.12S371.63,196.91,367,194.55Z"/><path class="b" d="M375,190.62c-6.42-3.71-15-5.75-24.13-5.75s-17.71,2-24.12,5.75c-6.16,3.56-9.54,8.18-9.54,13s3.38,9.49,9.54,13.05c6.41,3.7,15,5.75,24.12,5.75s17.71-2.05,24.13-5.75c6.14-3.56,9.54-8.19,9.54-13.05S381.09,194.22,375,190.62ZM367,212.77a39.57,39.57,0,0,1-32.41,0c-4.62-2.36-7.15-5.59-7.15-9.12s2.53-6.75,7.15-9.12a39.68,39.68,0,0,1,32.41,0c4.6,2.36,7.14,5.59,7.14,9.12s-2.54,6.76-7.14,9.12Z"/><path class="m" d="M375,190.62c-6.42-3.71-15-5.75-24.13-5.75s-17.71,2-24.12,5.75c-6.16,3.56-9.54,8.18-9.54,13s3.38,9.49,9.54,13.05c6.41,3.7,15,5.75,24.12,5.75s17.71-2.05,24.13-5.75c6.14-3.56,9.54-8.19,9.54-13.05S381.09,194.22,375,190.62ZM367,212.77a39.57,39.57,0,0,1-32.41,0c-4.62-2.36-7.15-5.59-7.15-9.12s2.53-6.75,7.15-9.12a39.68,39.68,0,0,1,32.41,0c4.6,2.36,7.14,5.59,7.14,9.12s-2.54,6.76-7.14,9.12Z"/><path class="k" d="M366.48,211.69c8.64-4.43,8.64-11.61,0-16.06s-22.67-4.44-31.32,0-8.64,11.61,0,16.06S357.83,216.13,366.48,211.69Z"/><path class="b" d="M366.48,211.69c8.64-4.43,8.64-11.61,0-16.06s-22.67-4.44-31.32,0-8.64,11.61,0,16.06S357.83,216.13,366.48,211.69Z"/><path class="n" d="M366.48,211.69c8.64-4.43,8.64-11.61,0-16.06s-22.67-4.44-31.32,0-8.64,11.61,0,16.06S357.83,216.13,366.48,211.69Z"/><path class="b" d="M366.48,198.64c-8.65-4.44-22.67-4.44-31.32,0-3.57,1.83-5.66,4.15-6.28,6.53.62,2.38,2.71,4.69,6.28,6.52,8.65,4.44,22.67,4.44,31.32,0,3.57-1.83,5.67-4.14,6.28-6.52C372.15,202.78,370.05,200.47,366.48,198.64Z"/><path class="o" d="M366.48,198.64c-8.65-4.44-22.67-4.44-31.32,0-3.57,1.83-5.66,4.15-6.28,6.53.62,2.38,2.71,4.69,6.28,6.52,8.65,4.44,22.67,4.44,31.32,0,3.57-1.83,5.67-4.14,6.28-6.52C372.15,202.78,370.05,200.47,366.48,198.64Z"/><polygon class="b" points="352.92 195.8 352.92 199.05 351.81 200.22 349.76 202.36 349.76 198.99 352.92 195.8"/><polygon class="o" points="352.92 195.8 352.92 199.05 351.81 200.22 349.76 202.36 349.76 198.99 352.92 195.8"/><path class="b" d="M349.76,199v1.91a17.4,17.4,0,0,1-3.15.9,3.23,3.23,0,0,1-1.35,0,3,3,0,0,1-.64-.26c-.78-.47-.91-1.17.58-2A5.18,5.18,0,0,1,349.76,199Z"/><path class="n" d="M349.76,199v1.91a17.4,17.4,0,0,1-3.15.9,3.23,3.23,0,0,1-1.35,0,3,3,0,0,1-.64-.26c-.78-.47-.91-1.17.58-2A5.18,5.18,0,0,1,349.76,199Z"/><path class="b" d="M364.45,208.2V211l-3.52,2.05-2.62-1.52a13.36,13.36,0,0,1-10.18.46v-2.8l1.62-1.6-1.62.44a10.38,10.38,0,0,1-7.92-.91c-1.59-.91-2.33-1.92-2.33-3v-2.73l.29-1.19-1-.57v-2.8l2.63,1.52c-1.28,1-2,2-1.95,3h0c0,1,.78,2,2.33,2.88,3.46,2,6.88,1.34,10,.33,2.92-1,5-2.07,6.72-1.1,1,.61.73,1.34-.44,2a5.8,5.8,0,0,1-5,.29l-3.31,3.32a11.88,11.88,0,0,0,1.85.54,13.85,13.85,0,0,0,8.3-1l2.62,1.52Z"/><path class="k" d="M337.86,201.41h0c0,1,.78,2,2.33,2.88,3.46,2,6.87,1.34,10,.33,2.92-1,5-2.07,6.71-1.1,1,.61.73,1.34-.44,2a5.78,5.78,0,0,1-5,.29l-3.32,3.32a12.32,12.32,0,0,0,1.86.54,13.81,13.81,0,0,0,8.29-1l2.62,1.52,3.55-2.05V211l-3.57,2.09-2.62-1.52a13.36,13.36,0,0,1-10.18.46v-2.8l1.62-1.6-1.62.44a10.38,10.38,0,0,1-7.92-.91c-1.59-.91-2.33-1.92-2.33-3v-2.73l.29-1.19"/><path class="n" d="M337.18,196.88v2.8l1,.57h0a5.8,5.8,0,0,1,1.66-1.86Z"/><path class="b" d="M363.87,206.37a3.54,3.54,0,0,1-.26,1.33l-1.79-1a3.5,3.5,0,0,0,2-2.7C363.85,204.76,363.87,206.29,363.87,206.37Z"/><g class="c"><path d="M363.87,206.37a3.54,3.54,0,0,1-.26,1.33l-1.79-1a3.5,3.5,0,0,0,2-2.7C363.85,204.76,363.87,206.29,363.87,206.37Z"/></g><path class="b" d="M363.86,207.86l-2-1.2a3.45,3.45,0,0,0,2-3.12v-.27c-.09-1-.83-1.91-2.27-2.76h0a9.32,9.32,0,0,0-4.73-1.22h-1.38l-.28,0a18,18,0,0,0-2.3.47c-.36.1-.72.2-1.07.32-.51.15-1,.32-1.49.48l-.57.2a17.86,17.86,0,0,1-3.14.89,3.29,3.29,0,0,1-1.36-.05,2.89,2.89,0,0,1-.63-.26c-.83-.46-.92-1.16.57-2a5.18,5.18,0,0,1,4.56-.47l3.16-3.19a13.53,13.53,0,0,0-9.52.53l-2.63-1.51-3.59,2.06,2.64,1.52c-1.28,1-2,2-2,3h0c0,1,.78,2,2.33,2.89,3.46,2,6.89,1.33,10,.32,2.92-1,5-2.07,6.72-1.1,1.05.6.73,1.33-.44,2a5.78,5.78,0,0,1-5,.29L348.2,209a12.86,12.86,0,0,0,1.86.55,12.51,12.51,0,0,0,3.23.24,15.16,15.16,0,0,0,5.08-1.25l2.62,1.53,3.55-2.06Z"/><g class="c"><path class="d" d="M363.86,207.86l-2-1.2a3.45,3.45,0,0,0,2-3.12v-.27c-.09-1-.83-1.91-2.27-2.76h0a9.32,9.32,0,0,0-4.73-1.22h-1.38l-.28,0a18,18,0,0,0-2.3.47c-.36.1-.72.2-1.07.32-.51.15-1,.32-1.49.48l-.57.2a17.86,17.86,0,0,1-3.14.89,3.29,3.29,0,0,1-1.36-.05,2.89,2.89,0,0,1-.63-.26c-.83-.46-.92-1.16.57-2a5.18,5.18,0,0,1,4.56-.47l3.16-3.19a13.53,13.53,0,0,0-9.52.53l-2.63-1.51-3.59,2.06,2.64,1.52c-1.28,1-2,2-2,3h0c0,1,.78,2,2.33,2.89,3.46,2,6.89,1.33,10,.32,2.92-1,5-2.07,6.72-1.1,1.05.6.73,1.33-.44,2a5.78,5.78,0,0,1-5,.29L348.2,209a12.86,12.86,0,0,0,1.86.55,12.51,12.51,0,0,0,3.23.24,15.16,15.16,0,0,0,5.08-1.25l2.62,1.53,3.55-2.06Z"/></g><polygon class="b" points="358.27 208.73 358.27 211.53 360.91 213.05 360.91 210.25 358.27 208.73"/><polygon class="n" points="358.27 208.73 358.27 211.53 360.91 213.05 360.91 210.25 358.27 208.73"/><polygon class="p" points="337.18 196.88 340.76 194.82 343.39 196.33 340.79 195.24 337.18 196.88"/><path class="p" d="M345.17,199.46a5.18,5.18,0,0,1,4.56-.47l3.16-3.19-3.16,2.86A4.76,4.76,0,0,0,345.17,199.46Z"/><path class="p" d="M348.11,209.19a11.88,11.88,0,0,0,1.85.54,12.16,12.16,0,0,0,3.24.25,11.33,11.33,0,0,1-4.56-.92l2.83-3.21Z"/><polygon class="p" points="358.27 208.73 360.91 209.92 364.45 208.2 360.91 210.25 358.27 208.73"/><path class="p" d="M327,191.09c9.32-5.66,23.85-6.22,23.85-6.22-9.12,0-17.71,2-24.12,5.75-6.16,3.56-9.54,8.18-9.54,13C317.16,203.66,317.49,196.85,327,191.09Z"/><path class="p" d="M348.11,223.92c9.89.44,20-1.52,27.6-5.88,7.87-4.55,11.23-10.7,10.1-16.63,0,0,1.46,9.65-10.69,16.26S348.11,223.92,348.11,223.92Z"/><path class="b" d="M381.81,193.69a22.64,22.64,0,0,0-8.44-7.76c-13.75-7.94-36-7.94-49.76,0a22.69,22.69,0,0,0-8.41,7.78h-1.9v7.14h0c.25,5,3.68,10,10.29,13.78,13.75,7.93,36,7.93,49.75,0,6.64-3.82,10.06-8.78,10.32-13.78h0v-7.19Z"/><g class="h"><path d="M381.81,193.69a22.64,22.64,0,0,0-8.44-7.76c-13.75-7.94-36-7.94-49.76,0a22.69,22.69,0,0,0-8.41,7.78h-1.9v7.14h0c.25,5,3.68,10,10.29,13.78,13.75,7.93,36,7.93,49.75,0,6.64-3.82,10.06-8.78,10.32-13.78h0v-7.19Z"/></g><path class="i" d="M348.49,180c-9,0-18,2-24.88,5.95a22.69,22.69,0,0,0-8.41,7.78h-1.9v7.16h0c.25,5,3.68,10,10.29,13.78,6.87,4,15.88,6,24.87,6Z"/><path class="i" d="M329.28,183.26a38.56,38.56,0,0,0-5.67,2.67,22.69,22.69,0,0,0-8.41,7.78h-1.9v7.14h0c.25,5,3.68,10,10.29,13.78a37.87,37.87,0,0,0,5.66,2.65Z"/><path class="j" d="M367.74,183.26a38.6,38.6,0,0,1,5.63,2.67,22.5,22.5,0,0,1,8.4,7.78h1.91v7.14h0c-.25,5-3.7,10-10.31,13.78a38,38,0,0,1-5.67,2.65Z"/><path class="b" d="M373.37,179.29c-13.75-7.93-36-7.93-49.76,0s-13.75,20.81,0,28.74,36,7.94,49.76,0S387.15,187.25,373.37,179.29Z"/><path class="k" d="M373.37,179.29c-13.75-7.93-36-7.93-49.76,0s-13.75,20.81,0,28.74,36,7.94,49.76,0S387.15,187.25,373.37,179.29Z"/><path class="b" d="M364.72,184.58a39.7,39.7,0,0,0-32.42,0c-4.61,2.36-7.15,5.6-7.15,9.12s2.54,6.75,7.15,9.12a39.7,39.7,0,0,0,32.42,0c4.6-2.36,7.14-5.6,7.14-9.12S369.32,186.94,364.72,184.58Z"/><path class="l" d="M364.72,184.58a39.7,39.7,0,0,0-32.42,0c-4.61,2.36-7.15,5.6-7.15,9.12s2.54,6.75,7.15,9.12a39.7,39.7,0,0,0,32.42,0c4.6-2.36,7.14-5.6,7.14-9.12S369.32,186.94,364.72,184.58Z"/><path class="b" d="M372.64,180.64c-6.42-3.7-15-5.74-24.13-5.74s-17.7,2-24.12,5.74c-6.16,3.56-9.54,8.19-9.54,13.05s3.38,9.49,9.54,13.05c6.42,3.7,15,5.72,24.1,5.72s17.71-2,24.13-5.74c6.15-3.55,9.54-8.19,9.54-13.05S378.79,184.2,372.64,180.64Zm-7.92,22.16a39.6,39.6,0,0,1-32.42,0c-4.61-2.36-7.15-5.6-7.15-9.12s2.54-6.75,7.15-9.12a39.7,39.7,0,0,1,32.42,0c4.6,2.36,7.14,5.6,7.14,9.12S369.32,200.44,364.72,202.8Z"/><path class="m" d="M372.64,180.64c-6.42-3.7-15-5.74-24.13-5.74s-17.7,2-24.12,5.74c-6.16,3.56-9.54,8.19-9.54,13.05s3.38,9.49,9.54,13.05c6.42,3.7,15,5.72,24.1,5.72s17.71-2,24.13-5.74c6.15-3.55,9.54-8.19,9.54-13.05S378.79,184.2,372.64,180.64Zm-7.92,22.16a39.6,39.6,0,0,1-32.42,0c-4.61-2.36-7.15-5.6-7.15-9.12s2.54-6.75,7.15-9.12a39.7,39.7,0,0,1,32.42,0c4.6,2.36,7.14,5.6,7.14,9.12S369.32,200.44,364.72,202.8Z"/><path class="k" d="M364.16,201.72c8.65-4.43,8.65-11.61,0-16.07s-22.66-4.43-31.3,0-8.65,11.61,0,16.07S355.52,206.16,364.16,201.72Z"/><path class="b" d="M364.16,201.72c8.65-4.43,8.65-11.61,0-16.07s-22.66-4.43-31.3,0-8.65,11.61,0,16.07S355.52,206.16,364.16,201.72Z"/><path class="n" d="M364.16,201.72c8.65-4.43,8.65-11.61,0-16.07s-22.66-4.43-31.3,0-8.65,11.61,0,16.07S355.52,206.16,364.16,201.72Z"/><path class="b" d="M364.16,188.66c-8.64-4.43-22.66-4.43-31.3,0-3.58,1.84-5.67,4.15-6.29,6.53.62,2.39,2.71,4.7,6.29,6.53,8.64,4.44,22.66,4.44,31.3,0,3.58-1.83,5.67-4.14,6.3-6.52C369.83,192.81,367.74,190.5,364.16,188.66Z"/><path class="o" d="M364.16,188.66c-8.64-4.43-22.66-4.43-31.3,0-3.58,1.84-5.67,4.15-6.29,6.53.62,2.39,2.71,4.7,6.29,6.53,8.64,4.44,22.66,4.44,31.3,0,3.58-1.83,5.67-4.14,6.3-6.52C369.83,192.81,367.74,190.5,364.16,188.66Z"/><polygon class="b" points="350.6 185.83 350.6 189.07 349.5 190.25 347.45 192.39 347.45 189.01 350.6 185.83"/><polygon class="o" points="350.6 185.83 350.6 189.07 349.5 190.25 347.45 192.39 347.45 189.01 350.6 185.83"/><path class="b" d="M347.45,189v1.89a18.91,18.91,0,0,1-3.15.9,3,3,0,0,1-2-.32c-.78-.47-.9-1.16.58-2A5.19,5.19,0,0,1,347.45,189Z"/><path class="n" d="M347.45,189v1.89a18.91,18.91,0,0,1-3.15.9,3,3,0,0,1-2-.32c-.78-.47-.9-1.16.58-2A5.19,5.19,0,0,1,347.45,189Z"/><path class="b" d="M362.15,198.23V201l-3.55,2.05L356,201.56a13.4,13.4,0,0,1-10.16.46v-2.83l1.6-1.6-1.6.45a10.4,10.4,0,0,1-7.93-.9c-1.59-.92-2.33-1.93-2.32-3v-2.73l.28-1.19-1-.57v-2.8l2.62,1.52c-1.28,1-2,2-1.94,3h0c0,1,.77,2,2.32,2.88,3.46,2,6.87,1.34,10,.33,2.92-.95,5-2.07,6.72-1.1,1,.61.72,1.34-.45,2a5.81,5.81,0,0,1-5,.29l-3.32,3.31a10.91,10.91,0,0,0,1.85.55,13.81,13.81,0,0,0,8.29-1l2.63,1.52Z"/><path class="k" d="M335.55,191.43h0c0,1,.77,2,2.32,2.89,3.46,2,6.88,1.33,10,.33,2.92-1,5.05-2.07,6.73-1.1,1,.6.72,1.33-.45,2a5.78,5.78,0,0,1-5,.29l-3.32,3.32a10.91,10.91,0,0,0,1.85.55,13.74,13.74,0,0,0,8.29-1l2.63,1.53,3.55-2.05V201l-3.55,2L356,201.56a13.4,13.4,0,0,1-10.16.46v-2.83l1.6-1.6-1.6.45a10.4,10.4,0,0,1-7.93-.9c-1.59-.92-2.33-1.93-2.32-3v-2.73l.28-1.19"/><path class="n" d="M334.87,186.91v2.8l1,.56h0a6,6,0,0,1,1.66-1.86Z"/><path class="b" d="M361.56,196.4a3.45,3.45,0,0,1-.27,1.34l-1.78-1a3.53,3.53,0,0,0,2-2.71C361.54,194.78,361.56,196.32,361.56,196.4Z"/><g class="c"><path d="M361.56,196.4a3.45,3.45,0,0,1-.27,1.34l-1.78-1a3.53,3.53,0,0,0,2-2.71C361.54,194.78,361.56,196.32,361.56,196.4Z"/></g><path class="b" d="M361.55,197.88l-2-1.17a3.46,3.46,0,0,0,2-3.11v-.28c-.09-1-.83-1.9-2.27-2.75h0a9.32,9.32,0,0,0-4.72-1.23h-1.68a19.78,19.78,0,0,0-2.29.47l-1.07.32-1.5.48-.55.19a17.4,17.4,0,0,1-3.15.9,3.28,3.28,0,0,1-1.36,0,2.35,2.35,0,0,1-.63-.27c-.79-.45-.91-1.15.57-2a5.19,5.19,0,0,1,4.57-.47l3.15-3.19a13.48,13.48,0,0,0-9.52.53l-2.64-1.52-3.57,2.08,2.63,1.51c-1.29,1-2,2-2,3h0c0,1,.78,2,2.33,2.88,3.46,2,6.88,1.34,10,.32,2.91-.94,5-2.06,6.71-1.09,1,.61.73,1.33-.44,2a5.84,5.84,0,0,1-5,.3l-3.36,3.31a12.32,12.32,0,0,0,1.86.54,12.62,12.62,0,0,0,3.24.24,15,15,0,0,0,5.07-1.23l2.64,1.51,3.54-2Z"/><g class="c"><path class="d" d="M361.55,197.88l-2-1.17a3.46,3.46,0,0,0,2-3.11v-.28c-.09-1-.83-1.9-2.27-2.75h0a9.32,9.32,0,0,0-4.72-1.23h-1.68a19.78,19.78,0,0,0-2.29.47l-1.07.32-1.5.48-.55.19a17.4,17.4,0,0,1-3.15.9,3.28,3.28,0,0,1-1.36,0,2.35,2.35,0,0,1-.63-.27c-.79-.45-.91-1.15.57-2a5.19,5.19,0,0,1,4.57-.47l3.15-3.19a13.48,13.48,0,0,0-9.52.53l-2.64-1.52-3.57,2.08,2.63,1.51c-1.29,1-2,2-2,3h0c0,1,.78,2,2.33,2.88,3.46,2,6.88,1.34,10,.32,2.91-.94,5-2.06,6.71-1.09,1,.61.73,1.33-.44,2a5.84,5.84,0,0,1-5,.3l-3.36,3.31a12.32,12.32,0,0,0,1.86.54,12.62,12.62,0,0,0,3.24.24,15,15,0,0,0,5.07-1.23l2.64,1.51,3.54-2Z"/></g><polygon class="b" points="355.97 198.75 355.97 201.56 358.6 203.08 358.6 200.28 355.97 198.75"/><polygon class="n" points="355.97 198.75 355.97 201.56 358.6 203.08 358.6 200.28 355.97 198.75"/><polygon class="p" points="334.87 186.91 338.45 184.84 341.07 186.36 338.47 185.26 334.87 186.91"/><path class="p" d="M342.88,189.48a5.23,5.23,0,0,1,4.57-.47l3.15-3.18-3.15,2.85A4.83,4.83,0,0,0,342.88,189.48Z"/><path class="p" d="M345.79,199.19a12.32,12.32,0,0,0,1.86.54,11.79,11.79,0,0,0,3.24.24,11.24,11.24,0,0,1-4.57-.91l2.83-3.18Z"/><polygon class="p" points="355.97 198.75 358.6 199.95 362.14 198.23 358.6 200.28 355.97 198.75"/><path class="p" d="M324.66,181.12c9.32-5.66,23.85-6.22,23.85-6.22-9.13,0-17.7,2-24.12,5.74-6.16,3.56-9.54,8.19-9.54,13.05C314.85,193.69,315.18,186.88,324.66,181.12Z"/><path class="p" d="M345.79,214c9.9.44,20-1.53,27.61-5.9,7.87-4.54,11.24-10.7,10.1-16.59,0,0,1.47,9.66-10.69,16.26S345.79,214,345.79,214Z"/><polygon class="b" points="283.76 37.55 280.2 35.48 249.3 46.59 256.13 52.97 168.72 146.31 150.51 129.12 146.95 127.04 78.72 199.89 86.91 207.55 90.47 209.63 149.87 146.21 166.83 161.79 172.17 164.91 267.19 63.45 271.13 67.02 274.69 69.1 283.76 37.55"/><polygon class="q" points="283.76 37.55 280.2 35.48 249.3 46.59 256.13 52.97 168.72 146.31 150.51 129.12 146.95 127.04 78.72 199.89 86.91 207.55 90.47 209.63 149.87 146.21 166.83 161.79 172.17 164.91 267.19 63.45 271.13 67.02 274.69 69.1 283.76 37.55"/><polygon class="b" points="283.76 37.55 274.69 69.1 267.87 62.72 172.17 164.91 151.03 144.97 90.47 209.63 82.28 201.97 150.51 129.12 171.65 149.05 259.68 55.05 252.87 48.66 283.76 37.55"/><polygon class="b" points="151.03 144.97 149.87 146.21 166.83 161.79 172.17 164.91 151.03 144.97"/><polygon class="k" points="151.03 144.97 149.87 146.21 166.83 161.79 172.17 164.91 151.03 144.97"/><polygon class="b" points="256.13 52.97 259.68 55.05 252.87 48.66 249.3 46.59 256.13 52.97"/><polygon class="k" points="256.13 52.97 259.68 55.05 252.87 48.66 249.3 46.59 256.13 52.97"/><polygon class="b" points="267.19 63.45 267.87 62.72 274.69 69.1 271.13 67.02 267.19 63.45"/><polygon class="k" points="267.19 63.45 267.87 62.72 274.69 69.1 271.13 67.02 267.19 63.45"/><polygon class="b" points="78.72 199.89 82.28 201.97 90.47 209.63 86.91 207.55 78.72 199.89"/><polygon class="k" points="78.72 199.89 82.28 201.97 90.47 209.63 86.91 207.55 78.72 199.89"/><polygon class="r" points="104.77 177.96 150.51 130.62 171.65 149.05 150.51 129.12 104.77 177.96"/><polygon class="r" points="211.99 105.99 260.72 55.05 254.15 48.98 283.76 37.55 252.87 48.66 259.68 55.05 211.99 105.99"/><g class="c"><path class="b" d="M285.42,263.69a.45.45,0,0,1-.28-.07l-35.41-20.47a.57.57,0,0,1-.27-.48.55.55,0,0,1,.27-.47L294,216.65a.54.54,0,0,1,.55,0L330,237.09a.56.56,0,0,1,0,.95l-44.26,25.55A.56.56,0,0,1,285.42,263.69Zm-34.32-21,34.32,19.81,43.17-24.92-34.32-19.81Z"/></g><polygon class="b" points="285.42 258.04 285.41 121.32 258.86 105.99 258.86 242.71 285.42 258.04"/><polygon class="k" points="285.42 258.04 285.41 121.32 258.86 105.99 258.86 242.71 285.42 258.04"/><polygon class="b" points="285.42 258.04 320.82 237.6 320.82 100.88 285.41 121.32 285.42 258.04"/><polygon class="b" points="320.82 100.88 294.27 85.55 258.86 105.99 285.41 121.32 320.82 100.88"/><polygon class="q" points="320.82 100.88 294.27 85.55 258.86 105.99 285.41 121.32 320.82 100.88"/><path class="m" d="M320.82,100.88,285.06,120.6l-11.61-6.49L258.86,106l14.33,8.57,11.75,7c-.28,4-.35,72.61-.3,76.59s.25,55.8.78,59.87c.53-4.07.72-55.79.78-59.87.05-3.85,0-72.36-.29-76.21Z"/><g class="c"><path class="b" d="M219,302a.55.55,0,0,1-.28-.07l-35.4-20.44a.55.55,0,0,1,0-.95L227.61,255a.54.54,0,0,1,.55,0l35.4,20.48a.52.52,0,0,1,.27.47.57.57,0,0,1-.27.47L219.3,302A.51.51,0,0,1,219,302Zm-34.32-21L219,300.84l43.17-24.91-34.32-19.82Z"/></g><polygon class="b" points="219.03 296.37 219.03 186.55 192.47 171.22 192.47 281.03 219.03 296.37"/><polygon class="s" points="219.03 296.37 219.03 186.55 192.47 171.22 192.47 281.03 219.03 296.37"/><polygon class="b" points="219.03 296.37 254.44 275.93 254.44 166.11 219.03 186.55 219.03 296.37"/><polygon class="m" points="219.03 296.37 254.44 275.93 254.44 166.11 219.03 186.55 219.03 296.37"/><polygon class="b" points="254.44 166.11 227.88 150.78 192.47 171.22 219.03 186.55 254.44 166.11"/><polygon class="t" points="254.44 166.11 227.88 150.78 192.47 171.22 219.03 186.55 254.44 166.11"/><path class="m" d="M219.5,186.82l34.93-20.73L219,186c-3.86-2.19-8.1-4.53-12-6.69l-14.59-8.12,14.33,8.57c3.92,2.35,7.83,4.7,11.76,7-.12,4.15.2,105.32.47,109.57C219.3,292.15,219.61,190.82,219.5,186.82Z"/><g class="c"><path class="b" d="M152.64,340.35a.64.64,0,0,1-.27-.07L117,319.83a.55.55,0,0,1-.26-.47.52.52,0,0,1,.26-.47l44.26-25.55a.54.54,0,0,1,.55,0l35.4,20.44a.55.55,0,0,1,0,1l-44.25,25.55A.68.68,0,0,1,152.64,340.35Zm-34.31-21,34.31,19.81,43.12-24.92-34.27-19.81Z"/></g><polygon class="b" points="152.64 334.69 152.63 260.76 126.08 245.43 126.09 319.36 152.64 334.69"/><polygon class="n" points="152.64 334.69 152.63 260.76 126.08 245.43 126.09 319.36 152.64 334.69"/><polygon class="b" points="152.64 334.69 188.04 314.25 188.05 240.32 152.63 260.76 152.64 334.69"/><polygon class="o" points="152.64 334.69 188.04 314.25 188.05 240.32 152.63 260.76 152.64 334.69"/><polygon class="b" points="188.05 240.32 161.5 224.99 126.08 245.43 152.63 260.76 188.05 240.32"/><polygon class="u" points="188.05 240.32 161.5 224.99 126.08 245.43 152.63 260.76 188.05 240.32"/><path class="m" d="M188.05,240.32l-35.41,19.9-12-6.68-14.59-8.12L140.41,254l11.74,7.4s0,70.82.49,73.33c.53-2.49.52-73.31.52-73.31Z"/><path class="b" d="M228.87,365.15c-9,0-18-2-24.88-5.94s-10.45-9.12-10.45-14.64,3.71-10.78,10.45-14.63c13.73-7.93,36.07-7.93,49.76,0h0c6.74,3.88,10.44,9.12,10.44,14.63s-3.7,10.78-10.44,14.64S237.89,365.15,228.87,365.15Zm0-40.26c-8.86,0-17.71,1.94-24.46,5.8-6.44,3.72-10,8.64-10,13.86s3.55,10.13,10,13.85c13.49,7.78,35.42,7.78,48.93,0,6.44-3.72,10-8.64,10-13.85s-3.57-10.11-10-13.84h0c-6.74-3.88-15.59-5.82-24.44-5.82Z"/><path class="v" d="M229.81,337.21v5.87L224,327.32v-5.86h0Z"/><polygon class="w" points="229.81 337.21 229.81 343.08 253.73 334.78 253.73 328.92 229.81 337.21"/><path class="x" d="M224,321.45l5.8,15.76,23.93-8.29C247.16,323.19,235.71,320.32,224,321.45Z"/><path class="b" d="M199,338.3a.54.54,0,0,0,0,.18Z"/><path class="b" d="M227.42,344.61l-3.56,16.71c-14.5-1.42-25-8.75-24.88-17.13v-5.68c0,8.29,10.46,15.57,24.88,17L226.31,344Z"/><path class="l" d="M227.42,344.61l-3.56,16.71c-14.5-1.42-25-8.75-24.88-17.13v-5.68c0,8.29,10.46,15.57,24.88,17L226.31,344Z"/><path class="b" d="M226.59,355.65v5.87a46.16,46.16,0,0,0,17.64-2.41c6.85-2.37,11.67-6.15,13.6-10.61a10.67,10.67,0,0,0,.9-4.09v-6.07a6.23,6.23,0,0,1-3.6-2.2l-4.49,1.54-20.52,7.12Z"/><path class="y" d="M226.59,355.65v5.87a46.16,46.16,0,0,0,17.64-2.41c6.85-2.37,11.67-6.15,13.6-10.61a10.67,10.67,0,0,0,.9-4.09v-6.07a6.23,6.23,0,0,1-3.6-2.2l-4.49,1.54-20.52,7.12Z"/><polygon class="b" points="208.74 331.59 226.56 341.88 226.56 336.01 208.74 325.72 208.74 331.59"/><polygon class="i" points="208.74 331.59 226.56 341.88 226.56 336.01 208.74 325.72 208.74 331.59"/><path class="b" d="M199.22,336.36c-1.95,9.17,9,17.57,24.64,19.07l3.56-16.68-20.63-11.91C202.54,329.54,200.05,332.7,199.22,336.36Z"/><path class="o" d="M199.22,336.36c-1.95,9.17,9,17.57,24.64,19.07l3.56-16.68-20.63-11.91C202.54,329.54,200.05,332.7,199.22,336.36Z"/><path class="b" d="M226.7,355.16l-.1.49a46.16,46.16,0,0,0,17.64-2.41c6.84-2.37,11.67-6.14,13.6-10.61,1.82-4.21.83-8.57-2.7-12.35l-4.48,1.55-20.51,7.11Z"/><path class="z" d="M226.7,355.16l-.1.49a46.16,46.16,0,0,0,17.64-2.41c6.84-2.37,11.67-6.14,13.6-10.61,1.82-4.21.83-8.57-2.7-12.35l-4.48,1.55-20.51,7.11Z"/><path class="b" d="M208.74,325.72,226.59,336l-5.24-14.24A36.8,36.8,0,0,0,208.74,325.72Z"/><polygon class="b" points="227.43 344.61 227.43 338.75 223.87 355.46 223.87 361.32 227.43 344.61"/><polygon class="aa" points="227.43 344.61 227.43 338.75 223.87 355.46 223.87 361.32 227.43 344.61"/><path class="b" d="M287.39,331.38c-9,0-18-2-24.88-5.95s-10.45-9.12-10.45-14.64,3.71-10.78,10.45-14.64c13.73-7.93,36.07-7.93,49.81,0h0c6.73,3.89,10.44,9.12,10.44,14.64s-3.71,10.78-10.45,14.64S296.4,331.38,287.39,331.38Zm0-40.28c-8.86,0-17.71,1.95-24.45,5.81-6.45,3.72-10,8.64-10,13.84s3.55,10.14,10,13.86c13.48,7.78,35.41,7.78,48.93,0,6.44-3.72,10-8.64,10-13.86s-3.55-10.12-10-13.84h0C305.09,293.05,296.25,291.1,287.39,291.1Z"/><path class="b" d="M316.15,305.85V300c-11.3-6.53-37.11-8.37-48.79-2.22l20.51,11.85,21.93-2.93Z"/><path class="i" d="M316.15,305.85V300c-11.3-6.53-37.11-8.37-48.79-2.22l20.51,11.85,21.93-2.93Z"/><path class="b" d="M316.15,300c-1.4-3-3.78-5.31-7.63-7.53-11.3-6.53-29.48-6.71-41.16-.55l20.51,11.85,21.93-2.92Z"/><polygon class="b" points="287.86 309.61 287.86 303.76 267.35 291.91 267.35 297.77 287.86 309.61"/><polygon class="k" points="287.86 309.61 287.86 303.76 267.35 291.91 267.35 297.77 287.86 309.61"/><path class="w" d="M294.14,327.25c7.75-1,14.35-3.75,18.57-7.65,3-2.75,4.52-5.87,4.54-9v-5.93l-18.48,5.15-9.95,1.32,1,16.54C291.27,327.57,292.65,327.45,294.14,327.25Z"/><path class="x" d="M294.14,321.39c7.75-1,14.35-3.74,18.57-7.65,4-3.67,5.39-8,4-12.21l-18,2.39-9.95,1.33,1,16.53C291.27,321.71,292.65,321.59,294.14,321.39Z"/><path class="b" d="M261.21,318.66l24.05-8.34-19.81-11.43c-3.66,2.3-7.89,5.58-7.89,5.58v6A11.9,11.9,0,0,0,261.21,318.66Z"/><path class="l" d="M261.21,318.66l24.05-8.34-19.81-11.43c-3.66,2.3-7.89,5.58-7.89,5.58v6A11.9,11.9,0,0,0,261.21,318.66Z"/><path class="b" d="M261.21,312.8l24.05-8.33L265.45,293C256.71,298.51,255.06,306.28,261.21,312.8Z"/><path class="o" d="M261.21,312.8l24.05-8.33L265.45,293C256.71,298.51,255.06,306.28,261.21,312.8Z"/><polygon class="b" points="261.21 318.66 261.21 312.8 285.23 304.47 285.23 310.32 261.21 318.66"/><polygon class="aa" points="261.21 318.66 261.21 312.8 285.23 304.47 285.23 310.32 261.21 318.66"/><path class="b" d="M287.12,327.73v-5.86l-1-9.95-23.52,2.31v5.86C268.18,324.89,277,327.65,287.12,327.73Z"/><path class="y" d="M287.12,327.73v-5.86l-1-9.95-23.52,2.31v5.86C268.18,324.89,277,327.65,287.12,327.73Z"/><path class="b" d="M287.12,321.83l-1-15.84-17.81,6.18-5.71,2C268.18,319,277,321.79,287.12,321.83Z"/><path class="z" d="M287.12,321.83l-1-15.84-17.81,6.18-5.71,2C268.18,319,277,321.79,287.12,321.83Z"/><polygon class="v" points="288.84 305.25 288.84 311.1 289.84 327.64 289.84 321.77 288.84 305.25"/><path class="b" d="M345.89,297.6c-9,0-18-2-24.87-5.94s-10.45-9.13-10.45-14.65,3.7-10.78,10.45-14.63c13.73-7.93,36.07-7.93,49.75,0h0c6.74,3.89,10.45,9.12,10.45,14.63s-3.71,10.78-10.45,14.65S354.92,297.6,345.89,297.6Zm0-40.27c-8.85,0-17.7,1.94-24.44,5.8-6.45,3.72-10,8.64-10,13.85s3.55,10.13,10,13.86c13.48,7.77,35.41,7.77,48.92,0,6.45-3.73,10-8.64,10-13.86s-3.55-10.13-10-13.85h0C363.61,259.27,354.75,257.33,345.89,257.33Z"/><path class="b" d="M325.85,258.15l18.6,10.78-.94-15.22A40.49,40.49,0,0,0,325.85,258.15Z"/><polygon class="b" points="344.45 268.88 344.45 274.74 325.85 264 325.85 258.15 344.45 268.88"/><polygon class="k" points="344.45 268.88 344.45 274.74 325.85 264 325.85 258.15 344.45 268.88"/><polygon class="w" points="368.56 259.66 347.21 269.28 347.21 275.14 368.56 265.51 368.56 259.66"/><path class="x" d="M368.56,259.66c-5.75-3.92-13.4-6-22.29-6l.58,9.49.36,6.14Z"/><polygon class="v" points="346.27 253.65 346.27 259.51 347.21 275.14 347.21 269.28 346.27 253.65"/><path class="b" d="M351.54,280.56,362.45,291c.61-.23,1.18-.47,1.84-.77,7.52-3.38,11.45-8.46,11.44-13.57v-5.81c-.83-2.2-3.1-2.2-5.49-4.14L348,276.81l-.23.1Z"/><path class="y" d="M351.54,280.56,362.45,291c.61-.23,1.18-.47,1.84-.77,7.52-3.38,11.45-8.46,11.44-13.57v-5.81c-.83-2.2-3.1-2.2-5.49-4.14L348,276.81l-.23.1Z"/><path class="b" d="M351.54,274.71l10.91,10.48c.61-.23,1.18-.47,1.84-.77,12.58-5.67,15.11-16.07,5.95-23.52L348,271l-.23.1Z"/><path class="z" d="M351.54,274.71l10.91,10.48c.61-.23,1.18-.47,1.84-.77,12.58-5.67,15.11-16.07,5.95-23.52L348,271l-.23.1Z"/><polygon class="b" points="362.44 291.04 362.44 285.19 347.73 271.05 347.73 276.91 362.44 291.04"/><polygon class="ab" points="362.44 291.04 362.44 285.19 347.73 271.05 347.73 276.91 362.44 291.04"/><path class="b" d="M323.92,265.12c-3.14,2-6.64,3.22-7.89,5.62v5.87c0,3.05,1.42,6.14,4.36,9,4.11,3.94,10.62,6.72,18.34,7.83a49.35,49.35,0,0,0,21.37-1.55V286l-9.6-3.37-5.64-5.42Z"/><path class="l" d="M323.92,265.12c-3.14,2-6.64,3.22-7.89,5.62v5.87c0,3.05,1.42,6.14,4.36,9,4.11,3.94,10.62,6.72,18.34,7.83a49.35,49.35,0,0,0,21.37-1.55V286l-9.6-3.37-5.64-5.42Z"/><path class="b" d="M323.92,259.27c-9,5.67-10.46,13.79-3.53,20.45,4.11,3.94,10.62,6.72,18.34,7.83A49.19,49.19,0,0,0,360.1,286l-9.6-9.23-5.64-5.42Z"/><path class="o" d="M323.92,259.27c-9,5.67-10.46,13.79-3.53,20.45,4.11,3.94,10.62,6.72,18.34,7.83A49.19,49.19,0,0,0,360.1,286l-9.6-9.23-5.64-5.42Z"/><path class="b" d="M96.47,300.06a22.57,22.57,0,0,0-8.37-7.78c-13.75-7.94-36-7.94-49.75,0a22.69,22.69,0,0,0-8.41,7.78H28v7.19h0c.25,5,3.68,9.95,10.29,13.77C52,329,74.29,329,88,321c6.64-3.81,10.06-8.77,10.32-13.77h0v-7.19Z"/><g class="h"><path d="M96.47,300.06a22.57,22.57,0,0,0-8.37-7.78c-13.75-7.94-36-7.94-49.75,0a22.69,22.69,0,0,0-8.41,7.78H28v7.19h0c.25,5,3.68,9.95,10.29,13.77C52,329,74.29,329,88,321c6.64-3.81,10.06-8.77,10.32-13.77h0v-7.19Z"/></g><path class="i" d="M63.18,286.32c-9,0-18,2-24.88,6a22.69,22.69,0,0,0-8.41,7.78H28v7.19h0c.25,5,3.68,9.95,10.29,13.77,6.87,4,15.88,6,24.87,6Z"/><path class="i" d="M43.94,289.63a37.35,37.35,0,0,0-5.66,2.65,22.69,22.69,0,0,0-8.41,7.78H28v7.19h0c.25,5,3.68,9.95,10.29,13.77a37.87,37.87,0,0,0,5.66,2.65Z"/><path class="j" d="M82.4,289.63a36.91,36.91,0,0,1,5.66,2.65,22.69,22.69,0,0,1,8.41,7.78h1.91v7.19h0c-.26,5-3.71,9.95-10.32,13.77a38.34,38.34,0,0,1-5.66,2.65Z"/><path class="b" d="M88.1,285.69c-13.75-7.94-36-7.94-49.75,0s-13.75,20.8,0,28.74,36,7.93,49.75,0S101.81,293.62,88.1,285.69Z"/><path class="k" d="M88.1,285.69c-13.75-7.94-36-7.94-49.75,0s-13.75,20.8,0,28.74,36,7.93,49.75,0S101.81,293.62,88.1,285.69Z"/><path class="b" d="M79.38,290.94a36.3,36.3,0,0,0-16.21-3.45A36.3,36.3,0,0,0,47,290.94c-4.61,2.37-7.14,5.61-7.14,9.13s2.53,6.75,7.14,9.12a36.33,36.33,0,0,0,16.21,3.46,36.36,36.36,0,0,0,16.21-3.46c4.6-2.37,7.14-5.6,7.14-9.12S84,293.31,79.38,290.94Z"/><path class="l" d="M79.38,290.94a36.3,36.3,0,0,0-16.21-3.45A36.3,36.3,0,0,0,47,290.94c-4.61,2.37-7.14,5.61-7.14,9.13s2.53,6.75,7.14,9.12a36.33,36.33,0,0,0,16.21,3.46,36.36,36.36,0,0,0,16.21-3.46c4.6-2.37,7.14-5.6,7.14-9.12S84,293.31,79.38,290.94Z"/><path class="b" d="M87.27,287c-6.39-3.7-14.92-5.72-24.1-5.72s-17.7,2-24.12,5.75c-6.16,3.56-9.54,8.18-9.54,13s3.38,9.5,9.54,13.05c6.42,3.69,15,5.74,24.12,5.74s17.71-2.05,24.13-5.74c6.15-3.55,9.54-8.19,9.54-13.05S93.45,290.57,87.27,287Zm-7.92,22.16a36.3,36.3,0,0,1-16.21,3.46,36.23,36.23,0,0,1-16.2-3.46c-4.61-2.36-7.15-5.6-7.15-9.12s2.54-6.75,7.15-9.12a36.29,36.29,0,0,1,16.2-3.46,36.33,36.33,0,0,1,16.21,3.46c4.61,2.36,7.14,5.6,7.14,9.12s-2.53,6.76-7.11,9.12Z"/><path class="m" d="M87.27,287c-6.39-3.7-14.92-5.72-24.1-5.72s-17.7,2-24.12,5.75c-6.16,3.56-9.54,8.18-9.54,13s3.38,9.5,9.54,13.05c6.42,3.69,15,5.74,24.12,5.74s17.71-2.05,24.13-5.74c6.15-3.55,9.54-8.19,9.54-13.05S93.45,290.57,87.27,287Zm-7.92,22.16a36.3,36.3,0,0,1-16.21,3.46,36.23,36.23,0,0,1-16.2-3.46c-4.61-2.36-7.15-5.6-7.15-9.12s2.54-6.75,7.15-9.12a36.29,36.29,0,0,1,16.2-3.46,36.33,36.33,0,0,1,16.21,3.46c4.61,2.36,7.14,5.6,7.14,9.12s-2.53,6.76-7.11,9.12Z"/><path class="k" d="M78.82,308.09c8.65-4.43,8.65-11.61,0-16.07s-22.66-4.43-31.3,0-8.65,11.61,0,16.07S70.18,312.53,78.82,308.09Z"/><path class="b" d="M78.82,308.09c8.65-4.43,8.65-11.61,0-16.07s-22.66-4.43-31.3,0-8.65,11.61,0,16.07S70.18,312.53,78.82,308.09Z"/><path class="n" d="M78.82,308.09c8.65-4.43,8.65-11.61,0-16.07s-22.66-4.43-31.3,0-8.65,11.61,0,16.07S70.18,312.53,78.82,308.09Z"/><path class="b" d="M78.82,295c-8.64-4.43-22.66-4.43-31.3,0-3.58,1.83-5.67,4.15-6.29,6.53.62,2.39,2.71,4.69,6.29,6.53,8.64,4.44,22.66,4.44,31.3,0,3.59-1.84,5.68-4.14,6.3-6.53C84.5,299.17,82.41,296.86,78.82,295Z"/><path class="o" d="M78.82,295c-8.64-4.43-22.66-4.43-31.3,0-3.58,1.83-5.67,4.15-6.29,6.53.62,2.39,2.71,4.69,6.29,6.53,8.64,4.44,22.66,4.44,31.3,0,3.59-1.84,5.68-4.14,6.3-6.53C84.5,299.17,82.41,296.86,78.82,295Z"/><polygon class="b" points="65.27 292.2 65.27 295.44 64.16 296.62 62.11 298.75 62.11 295.38 65.27 292.2"/><polygon class="o" points="65.27 292.2 65.27 295.44 64.16 296.62 62.11 298.75 62.11 295.38 65.27 292.2"/><path class="b" d="M62.11,295.39v1.91a18.91,18.91,0,0,1-3.15.9,3.41,3.41,0,0,1-1.35-.06,3.27,3.27,0,0,1-.65-.26c-.78-.47-.9-1.16.58-2A5.2,5.2,0,0,1,62.11,295.39Z"/><path class="n" d="M62.11,295.39v1.91a18.91,18.91,0,0,1-3.15.9,3.41,3.41,0,0,1-1.35-.06,3.27,3.27,0,0,1-.65-.26c-.78-.47-.9-1.16.58-2A5.2,5.2,0,0,1,62.11,295.39Z"/><path class="b" d="M76.81,304.59v2.81l-3.55,2.09L70.63,308a13.43,13.43,0,0,1-10.17.46v-2.81l1.61-1.6-1.61.45a10.37,10.37,0,0,1-7.92-.91c-1.6-.92-2.33-1.92-2.33-3v-2.72l.29-1.2-1-.56v-2.8l2.62,1.51c-1.27,1-1.95,2-1.94,3h0c0,1,.78,2,2.33,2.89,3.45,2,6.87,1.33,10,.33,2.92-.95,5.05-2.07,6.73-1.1,1,.6.72,1.33-.45,2a5.78,5.78,0,0,1-5,.29l-3.32,3.32a13.11,13.11,0,0,0,1.85.55,13.74,13.74,0,0,0,8.29-1l2.63,1.52Z"/><path class="k" d="M50.21,297.8h0c0,1,.78,2,2.33,2.89,3.45,2,6.87,1.33,10,.33,2.92-.95,5.05-2.07,6.73-1.1,1,.6.72,1.33-.45,2a5.78,5.78,0,0,1-5,.29l-3.32,3.32a13.11,13.11,0,0,0,1.85.55,13.74,13.74,0,0,0,8.29-1l2.63,1.52,3.55-2.05v2.8l-3.59,2.14L70.63,308a13.43,13.43,0,0,1-10.17.46v-2.81l1.61-1.6-1.61.45a10.37,10.37,0,0,1-7.92-.91c-1.6-.92-2.33-1.92-2.33-3v-2.72l.29-1.2"/><path class="n" d="M49.53,293.27v2.81l1,.56h0a5.66,5.66,0,0,1,1.65-1.86Z"/><path class="b" d="M76.22,302.76A3.24,3.24,0,0,1,76,304.1l-1.78-1a3.48,3.48,0,0,0,2-2.72C76.2,301.19,76.22,302.69,76.22,302.76Z"/><g class="c"><path d="M76.22,302.76A3.24,3.24,0,0,1,76,304.1l-1.78-1a3.48,3.48,0,0,0,2-2.72C76.2,301.19,76.22,302.69,76.22,302.76Z"/></g><path class="b" d="M76.21,304.25l-2-1.17a3.48,3.48,0,0,0,2-3.11,1.31,1.31,0,0,0,0-.28c-.09-1-.83-1.9-2.27-2.75h0a9.31,9.31,0,0,0-4.72-1.24H67.55a19.55,19.55,0,0,0-2.3.48l-1.07.31-1.49.49-.56.19a17.17,17.17,0,0,1-3.15.9,3.28,3.28,0,0,1-1.36-.05,2.5,2.5,0,0,1-.63-.27c-.79-.45-.91-1.15.57-2a5.2,5.2,0,0,1,4.57-.48l3.15-3.18a13.48,13.48,0,0,0-9.52.53l-2.65-1.37-3.58,2.07,2.63,1.51c-1.28,1-2,2-1.95,3h0c0,1,.78,2,2.33,2.89,3.45,2,6.88,1.33,10,.32,2.91-.94,5-2.06,6.71-1.09,1,.6.73,1.33-.44,2a5.71,5.71,0,0,1-5,.29l-3.32,3.32a15.19,15.19,0,0,0,1.86.54,12.55,12.55,0,0,0,3.24.24,14.86,14.86,0,0,0,5.07-1.24l2.63,1.52,3.54-2.05Z"/><g class="c"><path class="d" d="M76.21,304.25l-2-1.17a3.48,3.48,0,0,0,2-3.11,1.31,1.31,0,0,0,0-.28c-.09-1-.83-1.9-2.27-2.75h0a9.31,9.31,0,0,0-4.72-1.24H67.55a19.55,19.55,0,0,0-2.3.48l-1.07.31-1.49.49-.56.19a17.17,17.17,0,0,1-3.15.9,3.28,3.28,0,0,1-1.36-.05,2.5,2.5,0,0,1-.63-.27c-.79-.45-.91-1.15.57-2a5.2,5.2,0,0,1,4.57-.48l3.15-3.18a13.48,13.48,0,0,0-9.52.53l-2.65-1.37-3.58,2.07,2.63,1.51c-1.28,1-2,2-1.95,3h0c0,1,.78,2,2.33,2.89,3.45,2,6.88,1.33,10,.32,2.91-.94,5-2.06,6.71-1.09,1,.6.73,1.33-.44,2a5.71,5.71,0,0,1-5,.29l-3.32,3.32a15.19,15.19,0,0,0,1.86.54,12.55,12.55,0,0,0,3.24.24,14.86,14.86,0,0,0,5.07-1.24l2.63,1.52,3.54-2.05Z"/></g><polygon class="b" points="70.63 305.12 70.63 307.93 73.26 309.44 73.26 306.64 70.63 305.12"/><polygon class="n" points="70.63 305.12 70.63 307.93 73.26 309.44 73.26 306.64 70.63 305.12"/><polygon class="p" points="49.53 293.27 53.11 291.21 55.74 292.73 53.13 291.63 49.53 293.27"/><path class="p" d="M57.54,295.85a5.2,5.2,0,0,1,4.57-.47l3.15-3.18-3.15,2.85A4.8,4.8,0,0,0,57.54,295.85Z"/><path class="p" d="M60.46,305.59a14.55,14.55,0,0,0,1.85.54,12.66,12.66,0,0,0,3.25.24,11.54,11.54,0,0,1-4.57-.91l2.82-3.21Z"/><polygon class="p" points="70.63 305.12 73.26 306.31 76.8 304.6 73.26 306.64 70.63 305.12"/><path class="p" d="M39.32,287.49c9.32-5.67,23.85-6.22,23.85-6.22-9.12,0-17.7,2-24.12,5.74-6.16,3.56-9.54,8.19-9.54,13.05C29.51,300.06,29.84,293.25,39.32,287.49Z"/><path class="p" d="M60.46,320.32c9.89.44,20-1.52,27.6-5.89,7.87-4.55,11.24-10.7,10.1-16.59,0,0,1.47,9.66-10.69,16.26S60.46,320.32,60.46,320.32Z"/><path class="b" d="M94.16,290.08a22.76,22.76,0,0,0-8.41-7.78c-13.74-7.93-36-7.93-49.76,0a22.79,22.79,0,0,0-8.42,7.78H25.66v7.19h0c.25,5,3.67,10,10.28,13.77C49.69,319,72,319,85.7,311c6.63-3.81,10.06-8.77,10.31-13.77h0v-7.19Z"/><g class="h"><path d="M94.16,290.08a22.76,22.76,0,0,0-8.41-7.78c-13.74-7.93-36-7.93-49.76,0a22.79,22.79,0,0,0-8.42,7.78H25.66v7.19h0c.25,5,3.67,10,10.28,13.77C49.69,319,72,319,85.7,311c6.63-3.81,10.06-8.77,10.31-13.77h0v-7.19Z"/></g><path class="i" d="M60.86,276.32c-9,0-18,2-24.88,5.95a22.77,22.77,0,0,0-8.41,7.81H25.66v7.19h0c.25,5,3.67,10,10.28,13.77,6.88,4,15.89,6,24.88,6Z"/><path class="i" d="M41.66,279.63A40,40,0,0,0,36,282.29a22.69,22.69,0,0,0-8.43,7.79H25.66v7.19h0c.25,5,3.67,10,10.28,13.77a38,38,0,0,0,5.67,2.66Z"/><path class="j" d="M80.08,279.63a39.56,39.56,0,0,1,5.67,2.66,22.82,22.82,0,0,1,8.41,7.77h1.9v7.19h0c-.25,5-3.69,10-10.31,13.78a37,37,0,0,1-5.67,2.65Z"/><path class="b" d="M85.75,275.71c-13.74-7.94-36-7.94-49.76,0s-13.75,20.81,0,28.74,36,7.95,49.76,0S99.5,283.65,85.75,275.71Z"/><path class="k" d="M85.75,275.71c-13.74-7.94-36-7.94-49.76,0s-13.75,20.81,0,28.74,36,7.95,49.76,0S99.5,283.65,85.75,275.71Z"/><path class="b" d="M77.07,281a36.33,36.33,0,0,0-16.21-3.46A36.33,36.33,0,0,0,44.65,281c-4.6,2.35-7.14,5.59-7.14,9.12s2.54,6.74,7.14,9.12a36.2,36.2,0,0,0,16.21,3.47,36.2,36.2,0,0,0,16.21-3.47c4.61-2.36,7.14-5.6,7.14-9.12S81.68,283.33,77.07,281Z"/><path class="l" d="M77.07,281a36.33,36.33,0,0,0-16.21-3.46A36.33,36.33,0,0,0,44.65,281c-4.6,2.35-7.14,5.59-7.14,9.12s2.54,6.74,7.14,9.12a36.2,36.2,0,0,0,16.21,3.47,36.2,36.2,0,0,0,16.21-3.47c4.61-2.36,7.14-5.6,7.14-9.12S81.68,283.33,77.07,281Z"/><path class="b" d="M85,277.05c-6.41-3.71-15-5.76-24.12-5.76s-17.7,2-24.12,5.76c-6.16,3.54-9.55,8.17-9.55,13s3.39,9.49,9.55,13c6.42,3.7,15,5.75,24.12,5.75s17.71-2.05,24.12-5.75c6.16-3.55,9.55-8.19,9.55-13S91.14,280.59,85,277.05Zm-7.91,22.14a36.2,36.2,0,0,1-16.21,3.47,36.2,36.2,0,0,1-16.21-3.47c-4.6-2.36-7.14-5.59-7.14-9.12s2.54-6.76,7.14-9.12a36.33,36.33,0,0,1,16.21-3.46A36.33,36.33,0,0,1,77.07,281c4.61,2.36,7.14,5.6,7.14,9.12S81.68,296.83,77.07,299.19Z"/><path class="m" d="M85,277.05c-6.41-3.71-15-5.76-24.12-5.76s-17.7,2-24.12,5.76c-6.16,3.54-9.55,8.17-9.55,13s3.39,9.49,9.55,13c6.42,3.7,15,5.75,24.12,5.75s17.71-2.05,24.12-5.75c6.16-3.55,9.55-8.19,9.55-13S91.14,280.59,85,277.05Zm-7.91,22.14a36.2,36.2,0,0,1-16.21,3.47,36.2,36.2,0,0,1-16.21-3.47c-4.6-2.36-7.14-5.59-7.14-9.12s2.54-6.76,7.14-9.12a36.33,36.33,0,0,1,16.21-3.46A36.33,36.33,0,0,1,77.07,281c4.61,2.36,7.14,5.6,7.14,9.12S81.68,296.83,77.07,299.19Z"/><path class="k" d="M76.49,298.12c8.64-4.44,8.64-11.61,0-16.07s-22.66-4.44-31.31,0-8.65,11.61,0,16.07S67.87,302.55,76.49,298.12Z"/><path class="b" d="M76.49,298.12c8.64-4.44,8.64-11.61,0-16.07s-22.66-4.44-31.31,0-8.65,11.61,0,16.07S67.87,302.55,76.49,298.12Z"/><path class="n" d="M76.49,298.12c8.64-4.44,8.64-11.61,0-16.07s-22.66-4.44-31.31,0-8.65,11.61,0,16.07S67.87,302.55,76.49,298.12Z"/><path class="b" d="M76.49,285.06c-8.65-4.44-22.66-4.44-31.31,0-3.57,1.84-5.67,4.14-6.29,6.53.62,2.39,2.72,4.69,6.29,6.53,8.65,4.43,22.66,4.43,31.31,0,3.58-1.84,5.67-4.15,6.29-6.53C82.18,289.2,80.09,286.9,76.49,285.06Z"/><path class="o" d="M76.49,285.06c-8.65-4.44-22.66-4.44-31.31,0-3.57,1.84-5.67,4.14-6.29,6.53.62,2.39,2.72,4.69,6.29,6.53,8.65,4.43,22.66,4.43,31.31,0,3.58-1.84,5.67-4.15,6.29-6.53C82.18,289.2,80.09,286.9,76.49,285.06Z"/><polygon class="b" points="62.96 282.22 62.96 285.47 61.85 286.64 59.8 288.79 59.8 285.4 62.96 282.22"/><polygon class="o" points="62.96 282.22 62.96 285.47 61.85 286.64 59.8 288.79 59.8 285.4 62.96 282.22"/><path class="b" d="M59.8,285.44v1.91a19.19,19.19,0,0,1-3.15.9,3.41,3.41,0,0,1-1.35-.05,3,3,0,0,1-.64-.27c-.83-.46-.91-1.16.58-2A5.18,5.18,0,0,1,59.8,285.44Z"/><path class="n" d="M59.8,285.44v1.91a19.19,19.19,0,0,1-3.15.9,3.41,3.41,0,0,1-1.35-.05,3,3,0,0,1-.64-.27c-.83-.46-.91-1.16.58-2A5.18,5.18,0,0,1,59.8,285.44Z"/><path class="b" d="M74.49,294.63v2.8L71,299.48,68.32,298a13.43,13.43,0,0,1-10.17.46v-2.81l1.61-1.6-1.61.44a10.37,10.37,0,0,1-7.92-.9c-1.59-.91-2.33-1.93-2.33-3v-2.72l.29-1.2-1-.56V283.3l2.63,1.52c-1.29,1-2,2-2,3h0c0,1,.77,2,2.33,2.88,3.45,2,6.88,1.34,10,.33,2.91-1,5-2.06,6.72-1.1,1,.61.72,1.34-.45,2a5.84,5.84,0,0,1-5,.29l-3.36,3.31a12.2,12.2,0,0,0,1.85.54,13.85,13.85,0,0,0,8.3-1L71,296.62Z"/><path class="k" d="M47.9,287.83h0c0,1,.77,2,2.33,2.88,3.45,2,6.88,1.34,10,.33,2.91-1,5-2.06,6.72-1.1,1,.61.72,1.34-.45,2a5.84,5.84,0,0,1-5,.29l-3.36,3.31a12.2,12.2,0,0,0,1.85.54,13.85,13.85,0,0,0,8.3-1L71,296.62l3.54-2v2.8L71,299.43l-2.63-1.52a13.43,13.43,0,0,1-10.17.46v-2.81l1.61-1.6-1.61.44a10.37,10.37,0,0,1-7.92-.9c-1.59-.91-2.33-1.93-2.33-3v-2.72l.29-1.2"/><path class="n" d="M47.22,283.3v2.81l1,.56h0a5.56,5.56,0,0,1,1.66-1.85Z"/><path class="b" d="M73.91,292.79a3.41,3.41,0,0,1-.27,1.34l-1.77-1a3.46,3.46,0,0,0,2-2.7C73.89,291.18,73.91,292.72,73.91,292.79Z"/><g class="c"><path d="M73.91,292.79a3.41,3.41,0,0,1-.27,1.34l-1.77-1a3.46,3.46,0,0,0,2-2.7C73.89,291.18,73.91,292.72,73.91,292.79Z"/></g><path class="b" d="M73.9,294.29l-2-1.18a3.48,3.48,0,0,0,2-3.12v-.27c-.09-1-.83-1.91-2.27-2.76h0a9.31,9.31,0,0,0-4.72-1.22H65.23a18.43,18.43,0,0,0-2.3.48c-.35.09-.72.2-1.06.31l-1.49.48-.56.2a17.4,17.4,0,0,1-3.15.9,3.47,3.47,0,0,1-1.36-.06,2.89,2.89,0,0,1-.63-.26c-.83-.46-.92-1.15.57-2a5.19,5.19,0,0,1,4.57-.48L63,282.11a13.61,13.61,0,0,0-9.53.53l-2.66-1.4-3.59,2.07,2.63,1.51c-1.28,1-2,2-1.95,3h0c0,1,.77,2,2.33,2.89,3.46,2,6.88,1.34,10,.33,2.91-.95,5-2.07,6.71-1.1,1,.6.73,1.33-.44,2a5.78,5.78,0,0,1-5,.29l-3.37,3.32a13.24,13.24,0,0,0,1.86.55,12.12,12.12,0,0,0,3.24.23,14.8,14.8,0,0,0,5.07-1.24L71,296.63l3.54-2.05Z"/><g class="c"><path class="d" d="M73.9,294.29l-2-1.18a3.48,3.48,0,0,0,2-3.12v-.27c-.09-1-.83-1.91-2.27-2.76h0a9.31,9.31,0,0,0-4.72-1.22H65.23a18.43,18.43,0,0,0-2.3.48c-.35.09-.72.2-1.06.31l-1.49.48-.56.2a17.4,17.4,0,0,1-3.15.9,3.47,3.47,0,0,1-1.36-.06,2.89,2.89,0,0,1-.63-.26c-.83-.46-.92-1.15.57-2a5.19,5.19,0,0,1,4.57-.48L63,282.11a13.61,13.61,0,0,0-9.53.53l-2.66-1.4-3.59,2.07,2.63,1.51c-1.28,1-2,2-1.95,3h0c0,1,.77,2,2.33,2.89,3.46,2,6.88,1.34,10,.33,2.91-.95,5-2.07,6.71-1.1,1,.6.73,1.33-.44,2a5.78,5.78,0,0,1-5,.29l-3.37,3.32a13.24,13.24,0,0,0,1.86.55,12.12,12.12,0,0,0,3.24.23,14.8,14.8,0,0,0,5.07-1.24L71,296.63l3.54-2.05Z"/></g><polygon class="b" points="68.32 295.16 68.32 297.96 70.94 299.48 70.94 296.67 68.32 295.16"/><polygon class="n" points="68.32 295.16 68.32 297.96 70.94 299.48 70.94 296.67 68.32 295.16"/><polygon class="p" points="47.22 283.31 50.8 281.24 53.43 282.75 50.82 281.66 47.22 283.31"/><path class="p" d="M55.23,285.89a5.2,5.2,0,0,1,4.57-.49L63,282.22l-3.16,2.86A4.78,4.78,0,0,0,55.23,285.89Z"/><path class="p" d="M58.14,295.61a13.65,13.65,0,0,0,1.86.55,12.18,12.18,0,0,0,3.24.23,11.58,11.58,0,0,1-4.57-.91l2.84-3.2Z"/><polygon class="p" points="68.32 295.16 70.94 296.34 74.49 294.63 70.94 296.67 68.32 295.16"/><path class="p" d="M37,277.52c9.32-5.67,23.86-6.23,23.86-6.23-9.12,0-17.7,2-24.12,5.76-6.16,3.54-9.55,8.17-9.55,13C27.19,290.09,27.57,283.27,37,277.52Z"/><path class="p" d="M58.14,310.32c9.89.43,20-1.53,27.61-5.9,7.87-4.54,11.23-10.7,10.1-16.59,0,0,1.47,9.66-10.69,16.27S58.14,310.32,58.14,310.32Z"/><path class="b" d="M99.2,280a22.76,22.76,0,0,0-8.41-7.78c-13.75-7.94-36-7.94-49.76,0a22.66,22.66,0,0,0-8.4,7.78H30.72v7.19h0c.26,5,3.68,9.95,10.29,13.77,13.74,7.94,36,7.94,49.75,0,6.64-3.82,10.06-8.77,10.31-13.77h0V280Z"/><g class="h"><path d="M99.2,280a22.76,22.76,0,0,0-8.41-7.78c-13.75-7.94-36-7.94-49.76,0a22.66,22.66,0,0,0-8.4,7.78H30.72v7.19h0c.26,5,3.68,9.95,10.29,13.77,13.74,7.94,36,7.94,49.75,0,6.64-3.82,10.06-8.77,10.31-13.77h0V280Z"/></g><path class="i" d="M65.9,266.27c-9,0-18,2-24.87,6A22.61,22.61,0,0,0,32.62,280H30.71v7.19h0c.26,5,3.68,9.95,10.29,13.77,6.88,4,15.88,5.95,24.88,5.95Z"/><path class="i" d="M46.64,269.57A37.92,37.92,0,0,0,41,272.23,22.61,22.61,0,0,0,32.57,280H30.66v7.19h0c.26,5,3.68,9.95,10.29,13.77a37,37,0,0,0,5.67,2.65Z"/><path class="j" d="M85.13,269.57a39.44,39.44,0,0,1,5.66,2.66A22.76,22.76,0,0,1,99.2,280h1.9v7.19h0c-.25,5-3.7,9.95-10.31,13.77a38.34,38.34,0,0,1-5.66,2.65Z"/><path class="b" d="M90.79,265.63c-13.75-7.93-36-7.93-49.76,0s-13.74,20.81,0,28.75,36,7.94,49.76,0S104.54,273.58,90.79,265.63Z"/><path class="k" d="M90.79,265.63c-13.75-7.93-36-7.93-49.76,0s-13.74,20.81,0,28.75,36,7.94,49.76,0S104.54,273.58,90.79,265.63Z"/><path class="b" d="M82.11,270.9a36.36,36.36,0,0,0-16.21-3.46,36.3,36.3,0,0,0-16.21,3.46c-4.61,2.36-7.15,5.6-7.15,9.12s2.54,6.74,7.15,9.12a36.2,36.2,0,0,0,16.21,3.47,36.26,36.26,0,0,0,16.21-3.47c4.6-2.36,7.14-5.59,7.14-9.12S86.71,273.26,82.11,270.9Z"/><path class="l" d="M82.11,270.9a36.36,36.36,0,0,0-16.21-3.46,36.3,36.3,0,0,0-16.21,3.46c-4.61,2.36-7.15,5.6-7.15,9.12s2.54,6.74,7.15,9.12a36.2,36.2,0,0,0,16.21,3.47,36.26,36.26,0,0,0,16.21-3.47c4.6-2.36,7.14-5.59,7.14-9.12S86.71,273.26,82.11,270.9Z"/><path class="b" d="M90,267c-6.42-3.71-15-5.76-24.13-5.76S48.19,263.26,41.77,267c-6.15,3.55-9.54,8.18-9.54,13s3.39,9.49,9.54,13.05c6.42,3.7,15,5.74,24.13,5.74s17.71-2,24.13-5.74c6.14-3.56,9.54-8.19,9.54-13.05S96.17,270.51,90,267Zm-7.92,22.15a36.23,36.23,0,0,1-16.21,3.47,36.17,36.17,0,0,1-16.21-3.47c-4.61-2.36-7.15-5.6-7.15-9.12s2.54-6.76,7.15-9.12a36.2,36.2,0,0,1,16.21-3.46,36.26,36.26,0,0,1,16.21,3.46c4.6,2.35,7.14,5.59,7.14,9.12S86.71,286.76,82.11,289.12Z"/><path class="m" d="M90,267c-6.42-3.71-15-5.76-24.13-5.76S48.19,263.26,41.77,267c-6.15,3.55-9.54,8.18-9.54,13s3.39,9.49,9.54,13.05c6.42,3.7,15,5.74,24.13,5.74s17.71-2,24.13-5.74c6.14-3.56,9.54-8.19,9.54-13.05S96.17,270.51,90,267Zm-7.92,22.15a36.23,36.23,0,0,1-16.21,3.47,36.17,36.17,0,0,1-16.21-3.47c-4.61-2.36-7.15-5.6-7.15-9.12s2.54-6.76,7.15-9.12a36.2,36.2,0,0,1,16.21-3.46,36.26,36.26,0,0,1,16.21,3.46c4.6,2.35,7.14,5.59,7.14,9.12S86.71,286.76,82.11,289.12Z"/><path class="k" d="M81.55,288c8.65-4.44,8.65-11.61,0-16.07s-22.66-4.44-31.31,0-8.64,11.61,0,16.07S72.91,292.48,81.55,288Z"/><path class="b" d="M81.55,288c8.65-4.44,8.65-11.61,0-16.07s-22.66-4.44-31.31,0-8.64,11.61,0,16.07S72.91,292.48,81.55,288Z"/><path class="n" d="M81.55,288c8.65-4.44,8.65-11.61,0-16.07s-22.66-4.44-31.31,0-8.64,11.61,0,16.07S72.91,292.48,81.55,288Z"/><path class="b" d="M81.55,275c-8.65-4.44-22.66-4.44-31.31,0-3.58,1.84-5.66,4.15-6.29,6.54.63,2.38,2.71,4.69,6.29,6.52,8.65,4.44,22.67,4.44,31.31,0,3.58-1.83,5.67-4.15,6.29-6.52C87.22,279.13,85.13,276.82,81.55,275Z"/><path class="o" d="M81.55,275c-8.65-4.44-22.66-4.44-31.31,0-3.58,1.84-5.66,4.15-6.29,6.54.63,2.38,2.71,4.69,6.29,6.52,8.65,4.44,22.67,4.44,31.31,0,3.58-1.83,5.67-4.15,6.29-6.52C87.22,279.13,85.13,276.82,81.55,275Z"/><polygon class="b" points="67.99 272.14 67.99 275.39 66.89 276.56 64.83 278.71 64.83 275.33 67.99 272.14"/><polygon class="o" points="67.99 272.14 67.99 275.39 66.89 276.56 64.83 278.71 64.83 275.33 67.99 272.14"/><path class="b" d="M64.83,275.33v1.91a17.17,17.17,0,0,1-3.15.9,3.19,3.19,0,0,1-1.34-.05,2.63,2.63,0,0,1-.65-.27c-.78-.46-.9-1.16.58-2A5.18,5.18,0,0,1,64.83,275.33Z"/><path class="n" d="M64.83,275.33v1.91a17.17,17.17,0,0,1-3.15.9,3.19,3.19,0,0,1-1.34-.05,2.63,2.63,0,0,1-.65-.27c-.78-.46-.9-1.16.58-2A5.18,5.18,0,0,1,64.83,275.33Z"/><path class="b" d="M79.53,284.55v2.8l-3.55,2-2.62-1.47a13.49,13.49,0,0,1-10.14.41v-2.8l1.66-1.6-1.66.44a10.35,10.35,0,0,1-7.91-.91c-1.6-.92-2.33-1.92-2.33-3v-2.73l.29-1.18-1-.57v-2.81l2.62,1.53c-1.28,1-2,2-1.94,3h0c0,1,.77,2,2.33,2.88,3.45,2,6.87,1.34,10,.34,2.92-1,5-2.07,6.72-1.11,1,.61.73,1.35-.44,2a5.82,5.82,0,0,1-5,.29L63.3,285.5a10.7,10.7,0,0,0,1.86.53,13.82,13.82,0,0,0,8.29-1l2.62,1.52Z"/><path class="k" d="M52.93,277.76h0c0,1,.78,2,2.33,2.88,3.46,2,6.88,1.34,10,.34,2.92-1,5-2.07,6.72-1.11,1.05.61.73,1.35-.44,2a5.82,5.82,0,0,1-5,.29l-3.32,3.32a10.7,10.7,0,0,0,1.86.53,13.82,13.82,0,0,0,8.29-1L76,286.56l3.55-2.05v2.8L76,289.36l-2.67-1.43a13.49,13.49,0,0,1-10.14.41v-2.8l1.66-1.6-1.66.44a10.35,10.35,0,0,1-7.91-.91c-1.6-.92-2.33-1.92-2.33-3v-2.73l.29-1.18"/><path class="n" d="M52.25,273.22V276l1,.57h0a5.7,5.7,0,0,1,1.66-1.86Z"/><path class="b" d="M79,282.72a3.19,3.19,0,0,1-.26,1.33l-1.78-1a3.5,3.5,0,0,0,2-2.7C78.93,281.1,79,282.64,79,282.72Z"/><g class="c"><path d="M79,282.72a3.19,3.19,0,0,1-.26,1.33l-1.78-1a3.5,3.5,0,0,0,2-2.7C78.93,281.1,79,282.64,79,282.72Z"/></g><path class="b" d="M79,284.21,76.91,283A3.45,3.45,0,0,0,79,279.91v-.27c-.09-1-.83-1.91-2.27-2.75h0A9.33,9.33,0,0,0,72,275.66H70.3a18.06,18.06,0,0,0-2.3.48c-.36.09-.72.2-1.08.32l-1.48.48-.56.2a18,18,0,0,1-3.15.89,3.13,3.13,0,0,1-1.36-.06,2.85,2.85,0,0,1-.63-.25c-.83-.47-.92-1.16.57-2a5.2,5.2,0,0,1,4.57-.48L68,272.17a13.48,13.48,0,0,0-9.52.53l-2.63-1.52-3.59,2.08,2.63,1.5c-1.27,1-2,2-2,3h0c0,1,.78,2,2.33,2.89,3.46,2,6.89,1.34,10,.33,2.91-.95,5-2.07,6.72-1.1,1.05.6.73,1.33-.44,2a5.78,5.78,0,0,1-5,.29l-3.32,3.32a12.11,12.11,0,0,0,5.09.78,14.8,14.8,0,0,0,5.07-1.24l2.63,1.52,3.55-2.05Z"/><g class="c"><path class="d" d="M79,284.21,76.91,283A3.45,3.45,0,0,0,79,279.91v-.27c-.09-1-.83-1.91-2.27-2.75h0A9.33,9.33,0,0,0,72,275.66H70.3a18.06,18.06,0,0,0-2.3.48c-.36.09-.72.2-1.08.32l-1.48.48-.56.2a18,18,0,0,1-3.15.89,3.13,3.13,0,0,1-1.36-.06,2.85,2.85,0,0,1-.63-.25c-.83-.47-.92-1.16.57-2a5.2,5.2,0,0,1,4.57-.48L68,272.17a13.48,13.48,0,0,0-9.52.53l-2.63-1.52-3.59,2.08,2.63,1.5c-1.27,1-2,2-2,3h0c0,1,.78,2,2.33,2.89,3.46,2,6.89,1.34,10,.33,2.91-.95,5-2.07,6.72-1.1,1.05.6.73,1.33-.44,2a5.78,5.78,0,0,1-5,.29l-3.32,3.32a12.11,12.11,0,0,0,5.09.78,14.8,14.8,0,0,0,5.07-1.24l2.63,1.52,3.55-2.05Z"/></g><polygon class="b" points="73.35 285.08 73.35 287.88 75.98 289.4 75.98 286.6 73.35 285.08"/><polygon class="n" points="73.35 285.08 73.35 287.88 75.98 289.4 75.98 286.6 73.35 285.08"/><polygon class="p" points="52.25 273.23 55.84 271.17 58.47 272.68 55.86 271.58 52.25 273.23"/><path class="p" d="M60.27,275.81a5.18,5.18,0,0,1,4.56-.48L68,272.17,64.83,275A4.78,4.78,0,0,0,60.27,275.81Z"/><path class="p" d="M63.22,285.54a12.16,12.16,0,0,0,5.1.78,11.33,11.33,0,0,1-4.56-.92l2.78-3.2Z"/><polygon class="p" points="73.35 285.08 75.98 286.27 79.53 284.55 75.98 286.6 73.35 285.08"/><path class="p" d="M42.05,267.44c9.32-5.66,23.85-6.23,23.85-6.23-9.13,0-17.71,2.05-24.13,5.76-6.15,3.55-9.54,8.18-9.54,13C32.23,280,32.54,273.2,42.05,267.44Z"/><path class="p" d="M63.22,300.27c9.9.44,20-1.52,27.61-5.89,7.87-4.54,11.23-10.7,10.09-16.59,0,0,1.47,9.65-10.69,16.26S63.22,300.27,63.22,300.27Z"/><path class="b" d="M95.75,270.16a22.93,22.93,0,0,0-8.41-7.78c-13.74-7.93-36-7.93-49.76,0a22.9,22.9,0,0,0-8.4,7.78H27.25v7.19h0c.25,5,3.68,9.95,10.28,13.78,13.75,7.94,36,7.94,49.76,0,6.63-3.82,10.06-8.78,10.32-13.78h0v-7.19Z"/><g class="h"><path d="M95.75,270.16a22.93,22.93,0,0,0-8.41-7.78c-13.74-7.93-36-7.93-49.76,0a22.9,22.9,0,0,0-8.4,7.78H27.25v7.19h0c.25,5,3.68,9.95,10.28,13.78,13.75,7.94,36,7.94,49.76,0,6.63-3.82,10.06-8.78,10.32-13.78h0v-7.19Z"/></g><path class="i" d="M62.45,256.41c-9,0-18,2-24.87,5.95a22.77,22.77,0,0,0-8.41,7.78H27.25v7.19h0c.25,5,3.68,9.95,10.28,13.77,6.88,4,15.89,6,24.88,6Z"/><path class="i" d="M43.22,259.73a41,41,0,0,0-5.66,2.65,22.93,22.93,0,0,0-8.41,7.78h-1.9v7.19h0c.25,5,3.68,9.95,10.28,13.78a39.5,39.5,0,0,0,5.67,2.65Z"/><path class="j" d="M81.68,259.73a39.9,39.9,0,0,1,5.66,2.65,22.93,22.93,0,0,1,8.41,7.78h1.91v7.19h0c-.26,5-3.7,9.95-10.32,13.78a38.34,38.34,0,0,1-5.66,2.65Z"/><path class="b" d="M87.34,255.8c-13.74-7.94-36-7.94-49.76,0s-13.74,20.8,0,28.74,36,7.94,49.76,0S101.09,263.74,87.34,255.8Z"/><path class="k" d="M87.34,255.8c-13.74-7.94-36-7.94-49.76,0s-13.74,20.8,0,28.74,36,7.94,49.76,0S101.09,263.74,87.34,255.8Z"/><path class="b" d="M78.67,261.06a36.38,36.38,0,0,0-16.22-3.46,36.36,36.36,0,0,0-16.21,3.46c-4.6,2.36-7.14,5.59-7.14,9.12s2.54,6.74,7.14,9.12a36.23,36.23,0,0,0,16.21,3.47,36.24,36.24,0,0,0,16.22-3.47c4.6-2.36,7.14-5.6,7.14-9.12S83.27,263.42,78.67,261.06Z"/><path class="l" d="M78.67,261.06a36.38,36.38,0,0,0-16.22-3.46,36.36,36.36,0,0,0-16.21,3.46c-4.6,2.36-7.14,5.59-7.14,9.12s2.54,6.74,7.14,9.12a36.23,36.23,0,0,0,16.21,3.47,36.24,36.24,0,0,0,16.22-3.47c4.6-2.36,7.14-5.6,7.14-9.12S83.27,263.42,78.67,261.06Z"/><path class="b" d="M86.58,257.13c-6.42-3.71-15-5.76-24.13-5.76s-17.7,2-24.1,5.76c-6.16,3.55-9.55,8.17-9.55,13s3.37,9.46,9.55,13c6.42,3.7,15,5.75,24.12,5.75s17.7-2,24.12-5.75c6.16-3.55,9.55-8.19,9.55-13S92.73,260.68,86.58,257.13Zm-7.91,22.15a36.24,36.24,0,0,1-16.22,3.46,36.36,36.36,0,0,1-16.21-3.46c-4.6-2.37-7.14-5.6-7.14-9.13s2.54-6.75,7.14-9.12a36.36,36.36,0,0,1,16.21-3.46A36.38,36.38,0,0,1,78.67,261c4.6,2.37,7.14,5.6,7.14,9.12s-2.54,6.76-7.14,9.13Z"/><path class="m" d="M86.58,257.13c-6.42-3.71-15-5.76-24.13-5.76s-17.7,2-24.1,5.76c-6.16,3.55-9.55,8.17-9.55,13s3.37,9.46,9.55,13c6.42,3.7,15,5.75,24.12,5.75s17.7-2,24.12-5.75c6.16-3.55,9.55-8.19,9.55-13S92.73,260.68,86.58,257.13Zm-7.91,22.15a36.24,36.24,0,0,1-16.22,3.46,36.36,36.36,0,0,1-16.21-3.46c-4.6-2.37-7.14-5.6-7.14-9.13s2.54-6.75,7.14-9.12a36.36,36.36,0,0,1,16.21-3.46A36.38,36.38,0,0,1,78.67,261c4.6,2.37,7.14,5.6,7.14,9.12s-2.54,6.76-7.14,9.13Z"/><path class="k" d="M78.15,278.2c8.64-4.44,8.64-11.61,0-16.06s-22.66-4.45-31.31,0-8.65,11.6,0,16.06S69.46,282.63,78.15,278.2Z"/><path class="b" d="M78.15,278.2c8.64-4.44,8.64-11.61,0-16.06s-22.66-4.45-31.31,0-8.65,11.6,0,16.06S69.46,282.63,78.15,278.2Z"/><path class="n" d="M78.15,278.2c8.64-4.44,8.64-11.61,0-16.06s-22.66-4.45-31.31,0-8.65,11.6,0,16.06S69.46,282.63,78.15,278.2Z"/><path class="b" d="M78.15,265.15c-8.65-4.45-22.66-4.45-31.31,0-3.58,1.83-5.67,4.14-6.29,6.52.62,2.39,2.71,4.7,6.29,6.53,8.65,4.43,22.66,4.43,31.31,0,3.58-1.83,5.67-4.15,6.29-6.53C83.77,269.28,81.68,267,78.15,265.15Z"/><path class="o" d="M78.15,265.15c-8.65-4.45-22.66-4.45-31.31,0-3.58,1.83-5.67,4.14-6.29,6.52.62,2.39,2.71,4.7,6.29,6.53,8.65,4.43,22.66,4.43,31.31,0,3.58-1.83,5.67-4.15,6.29-6.53C83.77,269.28,81.68,267,78.15,265.15Z"/><polygon class="b" points="64.55 262.31 64.55 265.55 63.44 266.72 61.39 268.87 61.39 265.49 64.55 262.31"/><polygon class="o" points="64.55 262.31 64.55 265.55 63.44 266.72 61.39 268.87 61.39 265.49 64.55 262.31"/><path class="b" d="M61.39,265.49v1.91a18.91,18.91,0,0,1-3.15.9,3.41,3.41,0,0,1-1.35-.05,3.61,3.61,0,0,1-.64-.27c-.83-.46-.91-1.16.58-2A5.18,5.18,0,0,1,61.39,265.49Z"/><path class="n" d="M61.39,265.49v1.91a18.91,18.91,0,0,1-3.15.9,3.41,3.41,0,0,1-1.35-.05,3.61,3.61,0,0,1-.64-.27c-.83-.46-.91-1.16.58-2A5.18,5.18,0,0,1,61.39,265.49Z"/><path class="b" d="M76.09,274.71v2.8l-3.55,2.05L69.91,278a13.43,13.43,0,0,1-10.17.46v-2.81l1.61-1.6-1.61.44a10.38,10.38,0,0,1-7.92-.9c-1.59-.91-2.33-1.93-2.33-2.95V268l.29-1.2-1-.56v-2.8l2.63,1.52c-1.28,1-2,2-1.95,3h0c0,1,.77,2,2.33,2.87,3.45,2,6.88,1.34,10,.33,2.91-.95,5-2.06,6.72-1.09,1,.6.72,1.33-.45,2a5.82,5.82,0,0,1-5,.29l-3.32,3.31a11.88,11.88,0,0,0,1.85.54,13.82,13.82,0,0,0,8.29-1l2.63,1.52Z"/><path class="k" d="M49.49,267.92h0c0,1,.77,2,2.33,2.87,3.45,2,6.88,1.34,10,.33,2.91-.95,5-2.06,6.72-1.09,1,.6.72,1.33-.45,2a5.82,5.82,0,0,1-5,.29l-3.32,3.31a11.88,11.88,0,0,0,1.85.54,13.82,13.82,0,0,0,8.29-1l2.63,1.52,3.55-2v2.8l-3.55,2.05L70,278a13.43,13.43,0,0,1-10.17.46v-2.81l1.61-1.6-1.61.44a10.38,10.38,0,0,1-7.92-.9c-1.59-.91-2.33-1.92-2.33-2.95V267.9l.29-1.2"/><path class="n" d="M48.81,263.39v2.8l1,.56h0a5.67,5.67,0,0,1,1.66-1.85Z"/><path class="b" d="M75.5,272.87a3.41,3.41,0,0,1-.27,1.34l-1.77-1a3.49,3.49,0,0,0,2-2.68C75.48,271.26,75.5,272.8,75.5,272.87Z"/><g class="c"><path d="M75.5,272.87a3.41,3.41,0,0,1-.27,1.34l-1.77-1a3.49,3.49,0,0,0,2-2.68C75.48,271.26,75.5,272.8,75.5,272.87Z"/></g><path class="b" d="M75.49,274.37l-2-1.18a3.47,3.47,0,0,0,2-3.12v-.27c-.08-1-.83-1.91-2.27-2.76h0a9.31,9.31,0,0,0-4.72-1.22H67.09a1.26,1.26,0,0,0-.28,0,16.17,16.17,0,0,0-2.3.47c-.36.09-.72.2-1.07.32-.51.15-1,.32-1.48.48l-.57.2a18,18,0,0,1-3.15.89,3.41,3.41,0,0,1-1.35-.05,3.58,3.58,0,0,1-.64-.26c-.83-.46-.91-1.16.57-2a5.2,5.2,0,0,1,4.57-.48l3.16-3.18a13.51,13.51,0,0,0-9.53.53l-2.63-1.51-3.58,2.06,2.63,1.51c-1.28,1-2,2-2,3h0c0,1,.78,2,2.34,2.89,3.46,2,6.88,1.34,10,.33,2.91-1,5-2.08,6.71-1.1,1,.6.73,1.33-.44,2a5.78,5.78,0,0,1-5,.29l-3.37,3.32a12.46,12.46,0,0,0,5.1.78,14.8,14.8,0,0,0,5.07-1.24l2.63,1.52,3.54-2.05Z"/><g class="c"><path class="d" d="M75.49,274.37l-2-1.18a3.47,3.47,0,0,0,2-3.12v-.27c-.08-1-.83-1.91-2.27-2.76h0a9.31,9.31,0,0,0-4.72-1.22H67.09a1.26,1.26,0,0,0-.28,0,16.17,16.17,0,0,0-2.3.47c-.36.09-.72.2-1.07.32-.51.15-1,.32-1.48.48l-.57.2a18,18,0,0,1-3.15.89,3.41,3.41,0,0,1-1.35-.05,3.58,3.58,0,0,1-.64-.26c-.83-.46-.91-1.16.57-2a5.2,5.2,0,0,1,4.57-.48l3.16-3.18a13.51,13.51,0,0,0-9.53.53l-2.63-1.51-3.58,2.06,2.63,1.51c-1.28,1-2,2-2,3h0c0,1,.78,2,2.34,2.89,3.46,2,6.88,1.34,10,.33,2.91-1,5-2.08,6.71-1.1,1,.6.73,1.33-.44,2a5.78,5.78,0,0,1-5,.29l-3.37,3.32a12.46,12.46,0,0,0,5.1.78,14.8,14.8,0,0,0,5.07-1.24l2.63,1.52,3.54-2.05Z"/></g><polygon class="b" points="69.91 275.24 69.91 278.04 72.54 279.56 72.54 276.75 69.91 275.24"/><polygon class="n" points="69.91 275.24 69.91 278.04 72.54 279.56 72.54 276.75 69.91 275.24"/><polygon class="p" points="48.81 263.39 52.4 261.32 55.02 262.83 52.41 261.75 48.81 263.39"/><path class="p" d="M56.82,266a5.2,5.2,0,0,1,4.57-.48l3.16-3.19-3.16,2.86A4.81,4.81,0,0,0,56.82,266Z"/><path class="p" d="M59.73,275.69a12.37,12.37,0,0,0,1.86.55,12.18,12.18,0,0,0,3.24.23,11.24,11.24,0,0,1-4.57-.91l2.84-3.2Z"/><polygon class="p" points="69.91 275.24 72.54 276.42 76.08 274.71 72.54 276.75 69.91 275.24"/><path class="p" d="M38.6,257.6c9.32-5.66,23.85-6.23,23.85-6.23-9.12,0-17.7,2-24.12,5.76-6.16,3.55-9.54,8.17-9.54,13C28.79,270.17,29.12,263.35,38.6,257.6Z"/><path class="p" d="M59.73,290.41c9.9.44,20.05-1.52,27.61-5.88,7.87-4.55,11.24-10.71,10.1-16.63,0,0,1.47,9.65-10.69,16.26S59.73,290.41,59.73,290.41Z"/><path class="b" d="M155,346a22.69,22.69,0,0,0-8.41-7.78c-13.74-7.93-36-7.93-49.76,0A22.69,22.69,0,0,0,88.44,346h-1.9v7.19h0c.25,5,3.68,9.95,10.29,13.77,13.75,7.94,36,7.94,49.75,0,6.64-3.81,10.06-8.77,10.32-13.77h0V346Z"/><g class="h"><path d="M155,346a22.69,22.69,0,0,0-8.41-7.78c-13.74-7.93-36-7.93-49.76,0A22.69,22.69,0,0,0,88.44,346h-1.9v7.19h0c.25,5,3.68,9.95,10.29,13.77,13.75,7.94,36,7.94,49.75,0,6.64-3.81,10.06-8.77,10.32-13.77h0V346Z"/></g><path class="i" d="M121.72,332.3c-9,0-18,2-24.88,5.95A22.76,22.76,0,0,0,88.43,346H86.54v7.19h0c.24,5,3.67,9.95,10.28,13.77,6.87,4,15.89,6,24.88,6Z"/><path class="i" d="M102.49,335.6a38.89,38.89,0,0,0-5.66,2.65A22.61,22.61,0,0,0,88.42,346h-1.9v7.19h0c.25,5,3.67,9.95,10.28,13.77a38,38,0,0,0,5.67,2.66Z"/><path class="j" d="M140.94,335.6a39.5,39.5,0,0,1,5.67,2.65A22.69,22.69,0,0,1,155,346h1.91v7.19h0c-.26,5-3.7,9.95-10.32,13.77a37.92,37.92,0,0,1-5.66,2.66Z"/><path class="b" d="M146.61,331.66c-13.74-7.94-36-7.94-49.76,0s-13.75,20.81,0,28.74,36,7.94,49.76,0S160.36,339.6,146.61,331.66Z"/><path class="k" d="M146.61,331.66c-13.74-7.94-36-7.94-49.76,0s-13.75,20.81,0,28.74,36,7.94,49.76,0S160.36,339.6,146.61,331.66Z"/><path class="b" d="M137.93,336.92a36.5,36.5,0,0,0-16.21-3.46,36.47,36.47,0,0,0-16.21,3.46c-4.6,2.36-7.14,5.6-7.14,9.12s2.54,6.75,7.14,9.12a36.33,36.33,0,0,0,16.21,3.47,36.36,36.36,0,0,0,16.21-3.47c4.6-2.36,7.14-5.6,7.14-9.12S142.53,339.28,137.93,336.92Z"/><path class="l" d="M137.93,336.92a36.5,36.5,0,0,0-16.21-3.46,36.47,36.47,0,0,0-16.21,3.46c-4.6,2.36-7.14,5.6-7.14,9.12s2.54,6.75,7.14,9.12a36.33,36.33,0,0,0,16.21,3.47,36.36,36.36,0,0,0,16.21-3.47c4.6-2.36,7.14-5.6,7.14-9.12S142.53,339.28,137.93,336.92Z"/><path class="b" d="M145.84,333c-6.41-3.71-15-5.75-24.12-5.75s-17.7,2-24.12,5.75c-6.16,3.55-9.55,8.18-9.55,13s3.39,9.5,9.55,13.05c6.42,3.7,15,5.74,24.12,5.74s17.71-2,24.12-5.74c6.16-3.55,9.55-8.19,9.55-13.05S152,336.54,145.84,333Zm-7.91,22.15a36.23,36.23,0,0,1-16.21,3.47,36.2,36.2,0,0,1-16.21-3.47c-4.6-2.36-7.14-5.59-7.14-9.12s2.54-6.75,7.14-9.12a36.47,36.47,0,0,1,16.21-3.46,36.5,36.5,0,0,1,16.21,3.46c4.6,2.36,7.14,5.61,7.14,9.12s-2.54,6.76-7.14,9.12Z"/><path class="m" d="M145.84,333c-6.41-3.71-15-5.75-24.12-5.75s-17.7,2-24.12,5.75c-6.16,3.55-9.55,8.18-9.55,13s3.39,9.5,9.55,13.05c6.42,3.7,15,5.74,24.12,5.74s17.71-2,24.12-5.74c6.16-3.55,9.55-8.19,9.55-13.05S152,336.54,145.84,333Zm-7.91,22.15a36.23,36.23,0,0,1-16.21,3.47,36.2,36.2,0,0,1-16.21-3.47c-4.6-2.36-7.14-5.59-7.14-9.12s2.54-6.75,7.14-9.12a36.47,36.47,0,0,1,16.21-3.46,36.5,36.5,0,0,1,16.21,3.46c4.6,2.36,7.14,5.61,7.14,9.12s-2.54,6.76-7.14,9.12Z"/><path class="k" d="M137.38,354.07c8.64-4.44,8.64-11.61,0-16.07s-22.67-4.44-31.32,0-8.64,11.61,0,16.07S128.74,358.5,137.38,354.07Z"/><path class="b" d="M137.38,354.07c8.64-4.44,8.64-11.61,0-16.07s-22.67-4.44-31.32,0-8.64,11.61,0,16.07S128.74,358.5,137.38,354.07Z"/><path class="n" d="M137.38,354.07c8.64-4.44,8.64-11.61,0-16.07s-22.67-4.44-31.32,0-8.64,11.61,0,16.07S128.74,358.5,137.38,354.07Z"/><path class="b" d="M137.38,341c-8.65-4.44-22.67-4.44-31.32,0-3.57,1.83-5.67,4.14-6.28,6.53.61,2.38,2.71,4.7,6.28,6.53,8.65,4.43,22.67,4.43,31.32,0,3.57-1.83,5.66-4.15,6.28-6.53C143,345.14,141,342.84,137.38,341Z"/><path class="o" d="M137.38,341c-8.65-4.44-22.67-4.44-31.32,0-3.57,1.83-5.67,4.14-6.28,6.53.61,2.38,2.71,4.7,6.28,6.53,8.65,4.43,22.67,4.43,31.32,0,3.57-1.83,5.66-4.15,6.28-6.53C143,345.14,141,342.84,137.38,341Z"/><polygon class="b" points="123.82 338.17 123.82 341.42 122.71 342.59 120.66 344.73 120.66 341.35 123.82 338.17"/><polygon class="o" points="123.82 338.17 123.82 341.42 122.71 342.59 120.66 344.73 120.66 341.35 123.82 338.17"/><path class="b" d="M120.66,341.35v1.92a19.19,19.19,0,0,1-3.15.9,3.83,3.83,0,0,1-1.35-.05,3.61,3.61,0,0,1-.64-.27c-.79-.46-.91-1.16.58-2A5.18,5.18,0,0,1,120.66,341.35Z"/><path class="n" d="M120.66,341.35v1.92a19.19,19.19,0,0,1-3.15.9,3.83,3.83,0,0,1-1.35-.05,3.61,3.61,0,0,1-.64-.27c-.79-.46-.91-1.16.58-2A5.18,5.18,0,0,1,120.66,341.35Z"/><path class="b" d="M135.37,350.58v2.8l-3.55,2.05-2.63-1.53a13.36,13.36,0,0,1-10.16.47v-2.82l1.6-1.59-1.6.44a10.37,10.37,0,0,1-7.92-.9c-1.6-.92-2.33-1.93-2.33-3v-2.73l.29-1.2-1-.56v-2.8l2.62,1.52c-1.28,1-2,2-1.94,3h0c0,1,.77,2,2.33,2.88,3.45,2,6.87,1.34,10,.33,2.91-.95,5-2.07,6.71-1.1,1,.61.72,1.34-.45,2a5.81,5.81,0,0,1-5,.29l-3.32,3.31a10.91,10.91,0,0,0,1.85.55,13.81,13.81,0,0,0,8.29-1l2.57,1.55Z"/><path class="k" d="M108.76,343.78h0c0,1,.77,2,2.33,2.88,3.45,2,6.87,1.34,10,.33,2.91-.95,5-2.07,6.72-1.1,1,.61.72,1.34-.45,2a5.84,5.84,0,0,1-5,.29l-3.31,3.31a10.81,10.81,0,0,0,1.84.55,13.85,13.85,0,0,0,8.3-1l2.58,1.55,3.55-2.05v2.8l-3.55,2.05-2.62-1.53a13.34,13.34,0,0,1-10.17.47v-2.81l1.61-1.59-1.61.43a10.32,10.32,0,0,1-7.92-.9c-1.59-.92-2.33-1.92-2.33-3v-2.73l.29-1.19"/><path class="n" d="M108.08,339.25v2.8l1,.56h0a5.77,5.77,0,0,1,1.66-1.85Z"/><path class="b" d="M134.76,348.74a3.26,3.26,0,0,1-.22,1.38l-1.77-1a3.49,3.49,0,0,0,2-2.7C134.75,347.13,134.76,348.66,134.76,348.74Z"/><g class="c"><path d="M134.76,348.74a3.26,3.26,0,0,1-.22,1.38l-1.77-1a3.49,3.49,0,0,0,2-2.7C134.75,347.13,134.76,348.66,134.76,348.74Z"/></g><path class="b" d="M134.76,350.24l-2-1.19a3.46,3.46,0,0,0,2-3.11v-.27c-.09-1-.83-1.91-2.28-2.76h0a9.26,9.26,0,0,0-4.71-1.23h-1.68a20.39,20.39,0,0,0-2.3.47l-1.07.32-1.48.48-.56.2a17.27,17.27,0,0,1-3.16.9,3.41,3.41,0,0,1-1.35-.06,3,3,0,0,1-.64-.26c-.78-.46-.91-1.16.58-2a5.19,5.19,0,0,1,4.57-.47l3.16-3.19a13.5,13.5,0,0,0-9.53.53l-2.63-1.51-3.58,2.07,2.62,1.51c-1.28,1-2,2-2,3h0c0,1,.78,2,2.34,2.88,3.45,2,6.87,1.34,10,.33,2.91-.95,5-2.07,6.7-1.1,1.05.61.73,1.34-.44,2a5.81,5.81,0,0,1-5,.29L119,351.4a12.32,12.32,0,0,0,1.86.54,11.79,11.79,0,0,0,3.24.24,15.13,15.13,0,0,0,5.08-1.23l2.58,1.66,3.55-2.05Z"/><g class="c"><path class="d" d="M134.76,350.24l-2-1.19a3.46,3.46,0,0,0,2-3.11v-.27c-.09-1-.83-1.91-2.28-2.76h0a9.26,9.26,0,0,0-4.71-1.23h-1.68a20.39,20.39,0,0,0-2.3.47l-1.07.32-1.48.48-.56.2a17.27,17.27,0,0,1-3.16.9,3.41,3.41,0,0,1-1.35-.06,3,3,0,0,1-.64-.26c-.78-.46-.91-1.16.58-2a5.19,5.19,0,0,1,4.57-.47l3.16-3.19a13.5,13.5,0,0,0-9.53.53l-2.63-1.51-3.58,2.07,2.62,1.51c-1.28,1-2,2-2,3h0c0,1,.78,2,2.34,2.88,3.45,2,6.87,1.34,10,.33,2.91-.95,5-2.07,6.7-1.1,1.05.61.73,1.34-.44,2a5.81,5.81,0,0,1-5,.29L119,351.4a12.32,12.32,0,0,0,1.86.54,11.79,11.79,0,0,0,3.24.24,15.13,15.13,0,0,0,5.08-1.23l2.58,1.66,3.55-2.05Z"/></g><polygon class="b" points="129.18 351.11 129.18 353.9 131.8 355.42 131.8 352.62 129.18 351.11"/><polygon class="n" points="129.18 351.11 129.18 353.9 131.8 355.42 131.8 352.62 129.18 351.11"/><polygon class="p" points="108.08 339.26 111.66 337.18 114.29 338.7 111.68 337.61 108.08 339.26"/><path class="p" d="M116.09,341.83a5.2,5.2,0,0,1,4.57-.48l3.16-3.18L120.66,341A4.78,4.78,0,0,0,116.09,341.83Z"/><path class="p" d="M119,351.56a12.32,12.32,0,0,0,1.86.54,12.55,12.55,0,0,0,3.24.24,11.58,11.58,0,0,1-4.57-.91l2.84-3.2Z"/><polygon class="p" points="129.18 351.11 131.8 352.29 135.34 350.57 131.8 352.62 129.18 351.11"/><path class="p" d="M97.86,333.46c9.32-5.66,23.86-6.22,23.86-6.22-9.12,0-17.7,2-24.12,5.75-6.16,3.55-9.55,8.18-9.55,13C88.05,346,88.38,339.22,97.86,333.46Z"/><path class="p" d="M119,366.3c9.89.44,20-1.53,27.61-5.9,7.87-4.53,11.23-10.7,10.1-16.58,0,0,1.46,9.65-10.69,16.26S119,366.3,119,366.3Z"/><path class="b" d="M152.71,336a22.74,22.74,0,0,0-8.41-7.77c-13.75-7.94-36-7.94-49.75,0A22.78,22.78,0,0,0,86.1,336H84.21v7.2h0c.25,5,3.67,9.95,10.28,13.77,13.75,7.94,36,7.94,49.75,0,6.64-3.82,10-8.77,10.31-13.77h0V336Z"/><g class="h"><path d="M152.71,336a22.74,22.74,0,0,0-8.41-7.77c-13.75-7.94-36-7.94-49.75,0A22.78,22.78,0,0,0,86.1,336H84.21v7.2h0c.25,5,3.67,9.95,10.28,13.77,13.75,7.94,36,7.94,49.75,0,6.64-3.82,10-8.77,10.31-13.77h0V336Z"/></g><path class="i" d="M119.41,322.33c-9,0-18,2-24.88,5.95A22.88,22.88,0,0,0,86.1,336H84.21v7.2h0c.25,5,3.67,9.95,10.28,13.77,6.87,4,15.89,5.95,24.88,5.95Z"/><path class="i" d="M100.18,325.63a38.51,38.51,0,0,0-5.67,2.66A22.79,22.79,0,0,0,86.1,336H84.21v7.2h0c.25,5,3.67,9.95,10.28,13.77a38,38,0,0,0,5.67,2.65Z"/><path class="j" d="M138.63,325.63a38,38,0,0,1,5.67,2.66,22.71,22.71,0,0,1,8.41,7.73h1.9v7.2h0c-.26,5-3.7,9.95-10.31,13.77a38.45,38.45,0,0,1-5.67,2.65Z"/><path class="b" d="M144.3,321.69c-13.75-7.93-36-7.93-49.75,0s-13.74,20.81,0,28.74,36,7.94,49.75,0S158,329.63,144.3,321.69Z"/><path class="k" d="M144.3,321.69c-13.75-7.93-36-7.93-49.75,0s-13.74,20.81,0,28.74,36,7.94,49.75,0S158,329.63,144.3,321.69Z"/><path class="b" d="M135.62,327a36.33,36.33,0,0,0-16.21-3.46A36.3,36.3,0,0,0,103.2,327c-4.61,2.36-7.14,5.6-7.14,9.12s2.53,6.74,7.14,9.12a36.17,36.17,0,0,0,16.21,3.47,36.2,36.2,0,0,0,16.21-3.47c4.6-2.36,7.14-5.59,7.14-9.12S140.22,329.31,135.62,327Z"/><path class="l" d="M135.62,327a36.33,36.33,0,0,0-16.21-3.46A36.3,36.3,0,0,0,103.2,327c-4.61,2.36-7.14,5.6-7.14,9.12s2.53,6.74,7.14,9.12a36.17,36.17,0,0,0,16.21,3.47,36.2,36.2,0,0,0,16.21-3.47c4.6-2.36,7.14-5.59,7.14-9.12S140.22,329.31,135.62,327Z"/><path class="b" d="M143.53,323c-6.42-3.71-15-5.76-24.12-5.76S101.7,319.31,95.28,323c-6.16,3.55-9.54,8.18-9.54,13s3.38,9.49,9.54,13.05c6.42,3.7,15,5.74,24.13,5.74s17.7-2,24.12-5.74c6.15-3.56,9.54-8.19,9.54-13.05S149.68,326.57,143.53,323Zm-7.91,22.12a36.2,36.2,0,0,1-16.21,3.47,36.17,36.17,0,0,1-16.21-3.47c-4.61-2.36-7.14-5.59-7.14-9.12s2.53-6.75,7.14-9.12a36.3,36.3,0,0,1,16.21-3.46,36.33,36.33,0,0,1,16.21,3.46c4.6,2.36,7.14,5.6,7.14,9.12S140.22,342.81,135.62,345.14Z"/><path class="m" d="M143.53,323c-6.42-3.71-15-5.76-24.12-5.76S101.7,319.31,95.28,323c-6.16,3.55-9.54,8.18-9.54,13s3.38,9.49,9.54,13.05c6.42,3.7,15,5.74,24.13,5.74s17.7-2,24.12-5.74c6.15-3.56,9.54-8.19,9.54-13.05S149.68,326.57,143.53,323Zm-7.91,22.12a36.2,36.2,0,0,1-16.21,3.47,36.17,36.17,0,0,1-16.21-3.47c-4.61-2.36-7.14-5.59-7.14-9.12s2.53-6.75,7.14-9.12a36.3,36.3,0,0,1,16.21-3.46,36.33,36.33,0,0,1,16.21,3.46c4.6,2.36,7.14,5.6,7.14,9.12S140.22,342.81,135.62,345.14Z"/><path class="k" d="M135.06,344.09c8.65-4.44,8.65-11.61,0-16.06s-22.66-4.44-31.31,0-8.65,11.61,0,16.06S126.41,348.53,135.06,344.09Z"/><path class="b" d="M135.06,344.09c8.65-4.44,8.65-11.61,0-16.06s-22.66-4.44-31.31,0-8.65,11.61,0,16.06S126.41,348.53,135.06,344.09Z"/><path class="n" d="M135.06,344.09c8.65-4.44,8.65-11.61,0-16.06s-22.66-4.44-31.31,0-8.65,11.61,0,16.06S126.41,348.53,135.06,344.09Z"/><path class="b" d="M135.06,331.05c-8.65-4.44-22.66-4.44-31.31,0-3.57,1.83-5.66,4.14-6.29,6.52.63,2.39,2.72,4.7,6.29,6.53,8.65,4.44,22.66,4.44,31.31,0,3.58-1.83,5.67-4.15,6.29-6.53C140.73,335.19,138.64,332.87,135.06,331.05Z"/><path class="o" d="M135.06,331.05c-8.65-4.44-22.66-4.44-31.31,0-3.57,1.83-5.66,4.14-6.29,6.52.63,2.39,2.72,4.7,6.29,6.53,8.65,4.44,22.66,4.44,31.31,0,3.58-1.83,5.67-4.15,6.29-6.53C140.73,335.19,138.64,332.87,135.06,331.05Z"/><polygon class="b" points="121.5 328.2 121.5 331.44 120.39 332.61 118.35 334.76 118.35 331.39 121.5 328.2"/><polygon class="o" points="121.5 328.2 121.5 331.44 120.39 332.61 118.35 334.76 118.35 331.39 121.5 328.2"/><path class="b" d="M118.35,331.38v1.91a17.27,17.27,0,0,1-3.16.9,3.25,3.25,0,0,1-1.35-.05,2.73,2.73,0,0,1-.64-.27c-.78-.46-.91-1.16.58-2A5.2,5.2,0,0,1,118.35,331.38Z"/><path class="n" d="M118.35,331.38v1.91a17.27,17.27,0,0,1-3.16.9,3.25,3.25,0,0,1-1.35-.05,2.73,2.73,0,0,1-.64-.27c-.78-.46-.91-1.16.58-2A5.2,5.2,0,0,1,118.35,331.38Z"/><path class="b" d="M133,340.6v2.8l-3.55,2.05-2.63-1.52a13.31,13.31,0,0,1-10.16.46v-2.8l1.65-1.6-1.65.44a10.37,10.37,0,0,1-7.92-.91c-1.6-.91-2.33-1.92-2.33-2.95v-2.73l.29-1.19-1-.57v-2.8l2.62,1.52c-1.28,1-2,2-1.94,3h0c0,1,.78,2,2.33,2.88,3.45,2,6.87,1.34,10,.33,2.91-.95,5-2.07,6.71-1.1,1,.61.73,1.34-.45,2a5.85,5.85,0,0,1-5,.29l-3.36,3.31a11,11,0,0,0,1.86.55,13.82,13.82,0,0,0,8.29-1l2.63,1.52Z"/><path class="k" d="M106.45,333.81h0c0,1,.78,2,2.33,2.88,3.45,2,6.87,1.34,10,.33,2.91-.95,5-2.07,6.71-1.1,1,.61.73,1.34-.45,2a5.85,5.85,0,0,1-5,.29l-3.36,3.31a11,11,0,0,0,1.86.55,13.82,13.82,0,0,0,8.29-1l2.63,1.52,3.55-2.05v2.8l-3.55,2.05-2.63-1.52a13.38,13.38,0,0,1-10.17.46v-2.81l1.66-1.6-1.66.45a10.42,10.42,0,0,1-7.92-.91c-1.59-.91-2.33-1.92-2.33-3V333.8l.29-1.19"/><path class="n" d="M105.77,329.28v2.8l1,.57h0a5.67,5.67,0,0,1,1.65-1.86Z"/><path class="b" d="M132.45,338.77a3.19,3.19,0,0,1-.26,1.33l-1.8-1a3.47,3.47,0,0,0,2-2.69C132.44,337.15,132.45,338.69,132.45,338.77Z"/><g class="c"><path d="M132.45,338.77a3.19,3.19,0,0,1-.26,1.33l-1.8-1a3.47,3.47,0,0,0,2-2.69C132.44,337.15,132.45,338.69,132.45,338.77Z"/></g><path class="b" d="M132.45,340.26l-2.06-1.18a3.47,3.47,0,0,0,2-3.12v-.27c-.09-1-.83-1.91-2.27-2.75h0a9.32,9.32,0,0,0-4.72-1.23H124a1.26,1.26,0,0,0-.27,0,19.94,19.94,0,0,0-2.3.47c-.36.1-.72.2-1.08.32l-1.48.48-.56.2a17.25,17.25,0,0,1-3.16.89,3.25,3.25,0,0,1-1.35-.05,2.89,2.89,0,0,1-.63-.26c-.83-.46-.92-1.15.57-2a5.22,5.22,0,0,1,4.57-.47l3.16-3.18a13.5,13.5,0,0,0-9.53.52l-2.63-1.51-3.58,2.07,2.62,1.51c-1.28,1-2,2-1.94,3h0c0,1,.77,2,2.33,2.89,3.45,2,6.87,1.33,10,.32,2.91-.95,5-2.07,6.7-1.1,1.06.6.74,1.33-.44,2a5.78,5.78,0,0,1-5,.29l-3.36,3.32a13.11,13.11,0,0,0,1.85.55,12.62,12.62,0,0,0,3.24.24,15.39,15.39,0,0,0,5.08-1.24l2.63,1.52,3.54-2Z"/><g class="c"><path class="d" d="M132.45,340.26l-2.06-1.18a3.47,3.47,0,0,0,2-3.12v-.27c-.09-1-.83-1.91-2.27-2.75h0a9.32,9.32,0,0,0-4.72-1.23H124a1.26,1.26,0,0,0-.27,0,19.94,19.94,0,0,0-2.3.47c-.36.1-.72.2-1.08.32l-1.48.48-.56.2a17.25,17.25,0,0,1-3.16.89,3.25,3.25,0,0,1-1.35-.05,2.89,2.89,0,0,1-.63-.26c-.83-.46-.92-1.15.57-2a5.22,5.22,0,0,1,4.57-.47l3.16-3.18a13.5,13.5,0,0,0-9.53.52l-2.63-1.51-3.58,2.07,2.62,1.51c-1.28,1-2,2-1.94,3h0c0,1,.77,2,2.33,2.89,3.45,2,6.87,1.33,10,.32,2.91-.95,5-2.07,6.7-1.1,1.06.6.74,1.33-.44,2a5.78,5.78,0,0,1-5,.29l-3.36,3.32a13.11,13.11,0,0,0,1.85.55,12.62,12.62,0,0,0,3.24.24,15.39,15.39,0,0,0,5.08-1.24l2.63,1.52,3.54-2Z"/></g><polygon class="b" points="126.86 341.13 126.86 343.93 129.49 345.45 129.49 342.65 126.86 341.13"/><polygon class="n" points="126.86 341.13 126.86 343.93 129.49 345.45 129.49 342.65 126.86 341.13"/><polygon class="p" points="105.77 329.28 109.35 327.21 111.98 328.73 109.37 327.64 105.77 329.28"/><path class="p" d="M113.81,331.88a5.2,5.2,0,0,1,4.57-.48l3.16-3.18-3.19,2.83A4.77,4.77,0,0,0,113.81,331.88Z"/><path class="p" d="M116.7,341.59a12.08,12.08,0,0,0,1.84.54,11.83,11.83,0,0,0,3.25.24,11.17,11.17,0,0,1-4.56-.92l2.82-3.2Z"/><polygon class="p" points="126.86 341.13 129.49 342.32 133.04 340.6 129.49 342.65 126.86 341.13"/><path class="p" d="M95.57,323.49c9.31-5.66,23.85-6.23,23.85-6.23-9.13,0-17.71,2.05-24.13,5.76-6.16,3.55-9.54,8.18-9.54,13C85.74,336.06,86.07,329.25,95.57,323.49Z"/><path class="p" d="M116.69,356.32c9.89.44,20-1.52,27.61-5.89,7.86-4.54,11.23-10.7,10.09-16.62,0,0,1.47,9.65-10.69,16.26S116.69,356.32,116.69,356.32Z"/><path class="x" d="M53.51,183.88h0a2.62,2.62,0,0,1,1.54-2.17,8.3,8.3,0,0,1,7.46,0,2.64,2.64,0,0,1,1.56,2.16h0L66.29,239h0c.09,1.15-.63,2.31-2.14,3.19a11.57,11.57,0,0,1-10.47,0c-1.52-.87-2.23-2-2.16-3.17h0Z"/><path class="w" d="M62.54,181.7c2.07,1.19,2.08,3.12,0,4.33a8.32,8.32,0,0,1-7.47,0c-2.07-1.2-2.08-3.13,0-4.33A8.26,8.26,0,0,1,62.54,181.7Z"/><path class="b" d="M56.5,169.08a5,5,0,0,1,4.53,0,1.56,1.56,0,0,1,.93,1.31h0v13.48h0a1.61,1.61,0,0,1-.93,1.31,5,5,0,0,1-4.53,0,1.6,1.6,0,0,1-1-1.3V170.39h0A1.6,1.6,0,0,1,56.5,169.08Z"/><path class="k" d="M56.5,169.08a5,5,0,0,1,4.53,0,1.56,1.56,0,0,1,.93,1.31h0v13.48h0a1.61,1.61,0,0,1-.93,1.31,5,5,0,0,1-4.53,0,1.6,1.6,0,0,1-1-1.3V170.39h0A1.6,1.6,0,0,1,56.5,169.08Z"/><path class="k" d="M55.58,177.88l.51.07h.29a8.05,8.05,0,0,0,1,.07c.41,0,.81,0,1.21,0a7.6,7.6,0,0,0,1.07-.05,5,5,0,0,0,.56-.06,4.25,4.25,0,0,0,.61-.08,4.14,4.14,0,0,0,.6-.09,3.12,3.12,0,0,0,.44-.09H62v-7.27h0a1.57,1.57,0,0,0-.94-1.31,4,4,0,0,0-.83-.33,21.31,21.31,0,0,1-4.66,3Z"/><path class="u" d="M60.35,186.76,61.89,243a9.27,9.27,0,0,0,2.27-.9c1.52-.88,2.23-2,2.15-3.19h0l-2.22-55.07A2.63,2.63,0,0,1,62.54,186,7.06,7.06,0,0,1,60.35,186.76Z"/><path class="w" d="M96.4,114.07a7,7,0,0,0-.06-1.12c-.06-.37,0-.72-.08-1.08a6.26,6.26,0,0,0-.08-.73c-.06-.62-.15-1.24-.25-1.83l-.15-.83c0-.26-.11-.5-.16-.75-.15-.69-.32-1.35-.52-2-.1-.31-.19-.61-.29-.91a.58.58,0,0,1,0-.14c-.11-.29-.21-.58-.32-.83s-.26-.64-.41-1a5.86,5.86,0,0,0-.32-.67,3.54,3.54,0,0,0-.23-.48c-.1-.19-.2-.39-.31-.57l-.08-.13-.29-.5-.2-.31A16.51,16.51,0,0,0,91,98.13l-.3-.33a3.07,3.07,0,0,0-.25-.26l-.33-.33a8.43,8.43,0,0,0-.95-.83c-.16-.14-.32-.26-.49-.39l-.5-.36c-.27-.2-.55-.37-.83-.54L87.13,95h0l-5.16-3H81.9a16.52,16.52,0,0,0-8.27-2.18c-4.28,0-9.12,1.4-14.24,4.37C41.8,104.25,27.57,129,27.57,149.28c0,10.14,3.55,17.27,9.28,20.61h0l5.17,3h.06l.07,0,.09,0c.24.14.49.28.75.4s.64.3,1,.42a9.25,9.25,0,0,0,.88.32,2.54,2.54,0,0,0,.47.14,4.13,4.13,0,0,0,.5.15l.52.13a2.24,2.24,0,0,0,.39.08l.68.13h.16l.83.11c4.74.5,10.27-.83,16.17-4.25,17.61-10.16,31.88-34.88,31.88-55.2C96.44,115,96.44,114.55,96.4,114.07Zm-58,48a31,31,0,0,1-1.08-8.34c0-19.26,14.1-43.67,30.77-53.3a29.49,29.49,0,0,1,7.81-3.23,17,17,0,0,1,4-.51,11.61,11.61,0,0,1,2,.16h0c3.42,4,3.92,10.5,3.92,14,0,19.26-14.1,43.67-30.76,53.29-4.25,2.49-8.3,3.75-11.83,3.75a8.24,8.24,0,0,1-2.15-.28h0A15.29,15.29,0,0,1,38.35,162Z"/><path class="ac" d="M91.86,114.15c0,10.24-4,21.91-10.2,32.07l-.9,1.43c-.31.47-.53.83-.83,1.22-.59.87-1.18,1.72-1.8,2.56-.3.4-.59.8-.9,1.19s-.65.83-1,1.28c-.64.83-1.31,1.59-2,2.36-.44.52-.89,1-1.35,1.51a51.81,51.81,0,0,1-11.85,9.67c-.83.47-1.58.88-2.36,1.26a23.62,23.62,0,0,1-8.11,2.42c-.46,0-.92.07-1.35.07h-.67a10.91,10.91,0,0,1-1.27-.12l-.6-.11a5.47,5.47,0,0,1-.58-.15,9.27,9.27,0,0,1-5-3.23,8.18,8.18,0,0,0,2.15.27c3.5,0,7.58-1.29,11.82-3.74,16.69-9.62,30.76-34,30.76-53.29,0-3.46-.5-9.95-3.91-14H81.9c4.35.69,6.82,3.66,8.22,7.07a19.6,19.6,0,0,1,.95,3l0,.16a3.48,3.48,0,0,0,.12.56c0,.18.07.36.11.54v.13a3.7,3.7,0,0,0,.1.58c.11.71.2,1.41.26,2.07v2.26A2,2,0,0,1,91.86,114.15Z"/><path class="v" d="M41.58,172.66l-4.78-2.81c-5.73-3.32-9.23-10.46-9.23-20.56,0-9.06,2.84-19,7.53-28.12l5.46,3.13c-4.71,9.13-7.83,19-7.83,28C32.69,162.23,36.07,169.26,41.58,172.66Z"/><path class="x" d="M87.16,94.92v0h0l-5.16-3h-.08a16.36,16.36,0,0,0-8.29-2.12c-4.28,0-9.12,1.4-14.24,4.36-9.76,5.64-18.48,15.75-24.33,27.09l5.43,3.19c0,.08-.08.15-.12.23,5.86-11.23,14.55-21.39,24.2-27.47,8.73-5.51,17-5.58,22.8-2.06Z"/><path class="ad" d="M89.09,112.52c0,19.26-14.1,43.67-30.77,53.3a30,30,0,0,1-7.81,3.23,17,17,0,0,1-4,.51,11.34,11.34,0,0,1-4.08-.7A13.72,13.72,0,0,1,38.35,162a31,31,0,0,1-1.08-8.34c0-19.26,14.1-43.67,30.77-53.3a29.49,29.49,0,0,1,7.81-3.23,17,17,0,0,1,4-.51,11.38,11.38,0,0,1,4.08.7A13.68,13.68,0,0,1,88,104.18,30.9,30.9,0,0,1,89.09,112.52Z"/><path class="m" d="M46.5,169.56a17,17,0,0,0,4-.51,30,30,0,0,0,7.81-3.23c16.68-9.63,30.77-34,30.77-53.3A30.9,30.9,0,0,0,88,104.18,13.76,13.76,0,0,0,84,97.35l-.2-.06-.56-.18-.33-.1a5.41,5.41,0,0,0-.58-.12L82,96.82h0c3.42,4,3.91,10.51,3.91,14,0,19.25-14.09,43.67-30.75,53.29-4.25,2.48-8.3,3.74-11.83,3.74a8.24,8.24,0,0,1-2.15-.28h0a9.45,9.45,0,0,0,1.26,1.27A11.51,11.51,0,0,0,46.5,169.56Z"/><path class="v" d="M202.92,181.51a4,4,0,0,1,2.72.48,12.56,12.56,0,0,1,2.12,4.42c.61,2.21.89,3.09,2.31,4.14a15.57,15.57,0,0,1,4.54,5,15.2,15.2,0,0,1,1.91,9.78c-.52,3.94-2.13,5.49-3.61,6.22a6.9,6.9,0,0,1-2.77.49Z"/><path class="w" d="M195.67,181.11l.79.72a12,12,0,0,1,1.31,1.15c1.66,1.81,1.37,5.81,1.26,6.9a2.5,2.5,0,0,0-1.95.55c-1.29.91-3.39,2.69-3.21,3.42s3.7,2.27,7,6.4a32.35,32.35,0,0,1,4.62,7.67c.92,1.9,2.74,5,5.69,3.89,1.54-.53,4.81-4.07,3.94-10.68a13.3,13.3,0,0,0-6.23-10.07c-2.19-1.6-2.43-3.32-3.65-6.31a5.4,5.4,0,0,0-2.36-3.24c-1.95-.57-3.89,0-5.32-.2C196.43,181.18,196,180.5,195.67,181.11Z"/><path class="x" d="M199.49,138.53a4,4,0,0,1-2.41,2.21c-6.63,2.2-15.2,5-23.3,8.43-10.05,4.31-13,6.85-15.46,11.21-1.48,2.67-1.29,6.35-.48,8.88s2.86,6.06,8,9c10.27,5.76,16.22,9.3,22.45,12.25,0,0,5.54-5.92,6.13-11l-9-8.26,21.36-10.06,27.37-24.82Z"/><path class="w" d="M185,169.74a13.12,13.12,0,0,0-5.44,8.24c-.37,1.72-.89,4.7-1.31,7.23,3.69,2,6.85,3.74,10,5.25,0,0,5.54-5.92,6.13-11l-9-8.26,1.24-.58Z"/><path class="w" d="M206.76,161.11l-5.88-18.17-3,4.52a23.43,23.43,0,0,0,2.27,8.76s-9.95,7.64-11.13,8.37c-4.41,2.74-5,2.36-7.46.58a10.08,10.08,0,0,0-9.17-1.43c6.17-.44,7.69,2.12,13.05,7.47l21.36-10.07Z"/><path class="ae" d="M178.57,230.71c0,2,.73,4.92-.4,7.19a6.6,6.6,0,0,1-3.79,3.32,8.67,8.67,0,0,0-2.44,1.1l-2.49,2.09a29.34,29.34,0,0,0-3.55,2.85c-2.89,3.09-7.46,4.05-11.61,3.76a15,15,0,0,1-5.88-1.49c-1.31-.65-2.91-1.9-2.9-3.51s1.27-2.25,2.49-3.13a33.68,33.68,0,0,1,5-2.78,25.73,25.73,0,0,0,5-3.15c1.61-1.41,6.12-4.15,8.86-10.06,1.26-2.7,5.4-14.79,5.4-14.79l14.67,4.39S178.57,228.72,178.57,230.71Z"/><path class="v" d="M178.62,238.51a4.4,4.4,0,0,1-.57,3,13.72,13.72,0,0,1-4.87,2.22c-2.43.63-3.4.93-4.56,2.49a13.88,13.88,0,0,1-4.92,4.65,16.29,16.29,0,0,1-12.57,1.49c-3.88-1-5.18-3.09-5.47-3.67a4.45,4.45,0,0,1-.31-2.57Z"/><path class="w" d="M179,229.45a15.65,15.65,0,0,0-.56,1.54,3.52,3.52,0,0,1-1.35,1.72,9.7,9.7,0,0,1-6,1.18,2.43,2.43,0,0,0-1.35-2.57c-2.33-1.17-4.54-1.92-5.3-1.61-1.74.73-.4,1.43-5.8,5.91a49.49,49.49,0,0,1-9.13,6.11c-2,1.13-4.8,3-3.93,5.27.56,1.66,4.34,5.23,11.33,4.62,6.45-.56,9.45-4.36,11.24-6.72s3.64-2.63,7-3.91c1.45-.56,2.59-.88,3.59-2.49.64-2.11.29-5,.48-6.57C179.26,230.71,179.62,229.83,179,229.45Z"/><path class="x" d="M197,142.41l4.15-4.15,39.51,5.21c.06,3.94-.73,12.32-2.31,16.53-1.44,3.86-3.32,8-12.44,12.87s-20.08,9.84-22.31,11.08c-3.19,1.81-3.11,1.89-3.86,7.53-.77,5.81-3.54,12.32-7.41,18.12-3,4.55-11.6,18.91-11.6,18.91-5.65,1.12-10.25-2.13-12.79-5.24,0,0,11.52-36.49,12.69-42.51.66-3.36,1.31-6.38,5.33-10.17,3.45-3.26,16.82-14.66,16.82-14.66A20.15,20.15,0,0,1,197,142.41Z"/><path class="w" d="M234,146.84c.43,8.38.69,13.44-10.74,19.28-3.44,1.75-7,3.42-10.48,5-10.26,4.8-17.26,10-17.8,13.82-.21,1.45-.33,3.19-.47,5.2-.33,4.74-.6,8.67-4.51,16.19-2.73,5.22-8.41,16-11.25,20.36l1,.11c2.77-4.43,8-14.1,11-20,4-7.79,4.31-11.86,4.64-16.65.14-2,.27-3.71.46-5.13.48-3.31,8.06-8.79,17.27-13.1,3.47-1.62,7.06-3.32,10.51-5.06,12-6.11,11.69-11.7,11.25-20.15,0-.83-.08-1.66-.11-2.49l-.95-.18C233.86,145.06,233.9,146,234,146.84Z"/><path class="w" d="M226.83,165c-.14-.11-3.52-2.64-2-8.73A34.88,34.88,0,0,0,226,142l.94-.09a35.92,35.92,0,0,1-1.16,14.58c-1.4,5.48,1.56,7.71,1.59,7.73Z"/><path class="w" d="M169.27,219.1c1.38,2.34,9.78,6.9,13.92,5.51l-2.42,4.15c-3.07,1.41-10-1.35-13.27-4.85Z"/><path class="g" d="M210.14,90.86c-6.94,0-11,3-11,8.82,0,5,1.89,20.73,1.89,20.73l-10.37,8.16,6,7.17s10.23-5.19,13.77-7.12c5.4-3,4.72-4.08,4.28-10.92S210.14,90.86,210.14,90.86Z"/><path class="f" d="M192.59,127.05l3.55-2.79a10.74,10.74,0,0,1,4,4.52,11.17,11.17,0,0,1,1,4.65l-3.77,1.93S196.83,129.36,192.59,127.05Z"/><path class="a" d="M220.33,90.84c5.85.4,8.42,1.56,15.45,3,1.66,1.54,4.15,8,4.93,16.17,1,10.62,1,14.71.75,27.68a97.84,97.84,0,0,1-1.06,13.57c-10.41,6.29-36.83,2.88-44.28-10.32,1.85-2.8,2.66-11.61,3-31,.24-11.38,6.64-19,11.07-19.13C212.43,90.8,216.57,90.56,220.33,90.84Z"/><path class="v" d="M203.61,70.05a6.46,6.46,0,0,1-2.54-3,10.13,10.13,0,0,1-.72-4.39,4.76,4.76,0,0,1,.37-1.53,2.19,2.19,0,0,1,1.65-.83l1.22-.19a8.06,8.06,0,0,1-1.88-2.6,4.13,4.13,0,0,1-.2-2.38,1.25,1.25,0,0,1,.25-.59,1.38,1.38,0,0,1,1.38-.22,26.74,26.74,0,0,0,8.74.45c2.31-.19,3.46-.5,6.63-.88s8.89.93,10,6.9c4.28.6,5,7.46,3.86,10.39-2.11,5.4-4.14,9-5.19,12.86-.22-.15-14.72-8-18.05-10.27l-3.75-2.49Z"/><path class="ae" d="M231.22,79.94c-2.49,2-4.15.2-4.15.2l.41,12.2c-1.27,1.76-6.7,3-9.17,4.57-.95.62-2.49,3.1-4.09,4.87-.92-2-2.93-6.87-.15-10.23L214,89.22a21.18,21.18,0,0,1-3.9-.06,6.47,6.47,0,0,1-2.29-.77,7,7,0,0,1-3.22-4.06,34.09,34.09,0,0,1-1.46-9.25c-.13-3.76.1-8.64,1.27-11.19,2.19-2.06,8.89-2.49,14.57-1,.15,1.41,0,2.64,1.21,4.15a6.11,6.11,0,0,0,2.21,1.66c.24,2.73.37,3.46.91,4.66.31.68.9,1.71,2.27,1.16.65-.26,1.09-1.73,1.75-2.71.83-1.33,3.72-2,5.2.74A6.2,6.2,0,0,1,231.22,79.94Z"/><path class="af" d="M214,89.22c2.83-.37,7.87-1.61,9.28-3.39S225.69,80,225.69,80s-.42,4.53-1.47,6.52S220.73,89.4,219,90A31.6,31.6,0,0,1,214,91Z"/><path class="v" d="M214.69,70.31l2.89-.64a1.56,1.56,0,0,0-1.82-1.16,1.46,1.46,0,0,0-1.09,1.75S214.68,70.29,214.69,70.31Z"/><path class="v" d="M207.67,69.09l-2.35,1.81a1.55,1.55,0,0,1,.29-2.13,1.43,1.43,0,0,1,2,.27A.1.1,0,0,1,207.67,69.09Z"/><path class="ag" d="M215.43,80.78l-3.06,1.28a1.73,1.73,0,0,0,2.23.91,1.66,1.66,0,0,0,.83-2.19Z"/><path class="ah" d="M215.35,81.44a1.67,1.67,0,0,0-1.57,1.66,1.66,1.66,0,0,0,.83-.11,1.59,1.59,0,0,0,1-1.52Z"/><polygon class="af" points="212.53 71.08 211.91 80 207.25 78.21 212.53 71.08"/><path class="v" d="M217.33,72.87A1.22,1.22,0,1,1,216,71.72h0A1.23,1.23,0,0,1,217.33,72.87Z"/><path class="v" d="M208.22,73.2A1.21,1.21,0,0,1,207,74.41h0a1.23,1.23,0,0,1-1.21-1.24v0A1.21,1.21,0,0,1,207,72h0a1.2,1.2,0,0,1,1.2,1.2Z"/><path class="g" d="M224.56,156.81v.74a2.08,2.08,0,0,1-1,1.83l-19.69,11.91a2.13,2.13,0,0,1-1,.3,2,2,0,0,1-1-.26l-37-20.33a2.12,2.12,0,0,1-1.08-1.79v-.51l39.16,21.47Z"/><path class="ai" d="M163.66,148.7l21.42-13a1.27,1.27,0,0,1,1.25,0l38.09,20.92a.28.28,0,0,1,.11.37.38.38,0,0,1-.11.11l-21.61,13Z"/><polygon class="f" points="202.96 168.35 214.52 161.36 179.89 142.34 168.28 149.3 202.96 168.35"/><polygon class="f" points="208.31 149.46 208.1 149.59 202.44 153.02 192.12 147.35 191.9 147.23 197.78 143.68 208.31 149.46"/><polygon class="aj" points="208.1 149.59 202.44 153.02 192.12 147.35 197.78 143.92 208.1 149.59"/><path class="g" d="M202.81,170.17v1.39a2.15,2.15,0,0,1-1.06-.25l-37-20.34a2.09,2.09,0,0,1-1.09-1.79v-.5Z"/><g class="ak"><path class="f" d="M202.81,170.17v1.39a2.15,2.15,0,0,1-1.06-.25l-37-20.34a2.09,2.09,0,0,1-1.09-1.79v-.5Z"/></g><path class="ae" d="M192.9,126.83a22.64,22.64,0,0,1-6.55,3.85c-4.48,1.61-5.41,1.58-8.93,4.27a30.69,30.69,0,0,0-3.41,3.24c-1,1.8-2.48,3.31-3.6,5.08-.93,1,.22,1.33,1.12,1.18,2.49-.53,4-2.92,6-4.24a8.36,8.36,0,0,0,.19,2.49c.14.67.19,1.51.87,1.86a5.26,5.26,0,0,0,1.52.25,1,1,0,0,0,.42.58,1.71,1.71,0,0,0,1.26,0,5,5,0,0,0,.64-.25,1.27,1.27,0,0,0,1,.78,5.53,5.53,0,0,0,2.86-.54c.12-.09,1-.91,1.32-1.14s.76-.56.88-.89-.67-1-1.23-1a5.31,5.31,0,0,0-1.78.53,6.6,6.6,0,0,0,.18-1.66c.3-.89,4-.43,7.06-1.66,2.28-1,2.89-3.25,4-3.8l1-.48C197.56,131.14,195.61,128.17,192.9,126.83Z"/><path class="b" d="M202.22,170.52a2.45,2.45,0,0,1-2.13-.12l-36.87-20.25a2.47,2.47,0,0,1-1.25-1.71l-4.49-23.69a2.67,2.67,0,0,1,0-.4,2.43,2.43,0,0,1,.69-1.78l38.27,21.06a1.89,1.89,0,0,1,.93,1.27Z"/><g class="al"><path class="d" d="M202.22,170.52a2.45,2.45,0,0,1-2.13-.12l-36.87-20.25a2.47,2.47,0,0,1-1.25-1.71l-4.49-23.69a2.67,2.67,0,0,1,0-.4,2.43,2.43,0,0,1,.69-1.78l38.27,21.06a1.89,1.89,0,0,1,.93,1.27Z"/></g><path class="ai" d="M202.81,170.17l-.25.15a2.16,2.16,0,0,1-.34.17l-4.85-25.64a1.89,1.89,0,0,0-.93-1.26l-38.31-21a2.38,2.38,0,0,1,.5-.4L197,143.24a1.81,1.81,0,0,1,.92,1.26Z"/><path class="b" d="M181.24,149a8.05,8.05,0,0,0-3.77-4.65c-1.78-1-3-.48-2.69,1.11a8,8,0,0,0,3.78,4.64C180.34,151.09,181.54,150.59,181.24,149Z"/><path class="ae" d="M254,127.36c-2.17-9.18-6-19.63-8.46-26.48-1.31-3.63-3.32-5.15-9.06-6.64-4,5.92-2.92,15.16-1.47,18.58l5.51,15.51s-5,4.62-9.74,8.13c-4,3-6.06,4.68-10.78,4.65-5.51,0-6.28.17-8.74,1.26-1.31.58-4.7,2.49-6,3.21-1,.54-2.84,2.49-4.53,3.74s.39,1.83,1.66,1.45a18.44,18.44,0,0,0,4.05-1.89,21.28,21.28,0,0,1,3.19-1.24,19.7,19.7,0,0,0-.66,3.73c0,.68-.14,1.5.45,2a5.37,5.37,0,0,0,1.43.58,1,1,0,0,0,.29.66,1.67,1.67,0,0,0,1.21.3,4.13,4.13,0,0,0,.69-.11,1.24,1.24,0,0,0,.77,1,5.53,5.53,0,0,0,2.91.09c.14-.06,1.22-.65,1.53-.83a3,3,0,0,0,1.06-.68c.24-.35-.43-1.17-1-1.26a5.75,5.75,0,0,0-1.85.14,7,7,0,0,0,.53-1.6c.5-.83,4.14,0,7.36-.58,2.44-.44,4.19-2.76,5.28-3.26,7-3.2,12.35-5.45,19.41-9.76C255.49,134.1,255.21,132.31,254,127.36Z"/><path class="af" d="M209,147.84c.37-.93.94-2,1.66-2.28a8.39,8.39,0,0,0-1,2.06Z"/><path class="af" d="M210.83,153.93a7.53,7.53,0,0,1-.07-2,16.65,16.65,0,0,1,.25-2,8.29,8.29,0,0,1,.53-2,3.6,3.6,0,0,1,1.19-1.66,3.24,3.24,0,0,0-.55.83,7.09,7.09,0,0,0-.37.9,15.67,15.67,0,0,0-.43,1.92c-.12.66-.22,1.3-.33,2A14.92,14.92,0,0,0,210.83,153.93Z"/><path class="af" d="M213,154.78a9.27,9.27,0,0,1,0-2,15.8,15.8,0,0,1,.29-1.95,13.81,13.81,0,0,1,.52-1.91,3.81,3.81,0,0,1,1-1.66,2.46,2.46,0,0,0-.44.83c-.11.31-.2.61-.28.93-.16.62-.31,1.26-.43,1.89A35.43,35.43,0,0,0,213,154.78Z"/><path class="af" d="M218.3,153.1a3.32,3.32,0,0,0-.83.11c-.27.07-.45.2-.78.31l.13-.22a.84.84,0,0,1,0,.39.87.87,0,0,1-.18.31,1.18,1.18,0,0,1-.56.37,2.78,2.78,0,0,0,.33-.51,1.12,1.12,0,0,0,.08-.26.81.81,0,0,0,0-.22v-.15l.16-.07a2,2,0,0,1,.76-.16A1.6,1.6,0,0,1,218.3,153.1Z"/><path class="g" d="M235.78,93.88c2.17.35,6.47.74,8.77,4.1s3.55,7.65,5.4,13.32,4.71,15.29,5.33,18.32,0,4.74-2.74,6.63-10.78,6.56-14.76,7.84a12.16,12.16,0,0,0-2.73-5.93A12.72,12.72,0,0,0,232,135.5l8.21-7.23s-5.29-15.15-6.2-17.42S231.91,99.73,235.78,93.88Z"/><path class="f" d="M233.09,134.58l-3.86,3a13,13,0,0,1,3.69,3.72,9.82,9.82,0,0,1,1.65,4.23l5-2.09S238.88,135.94,233.09,134.58Z"/><path class="aj" d="M214.19,101.78a35.73,35.73,0,0,0,3.05-5.39c.83-1.66,3.63-2,6.52-3.82A10.17,10.17,0,0,0,227.33,89l-.06-1.88c1,0,1,.83,1.47,1.87s2,3.44,3.16,3.77c-1.27,3.59-5.64,7.82-10.37,9.78-1.66-3.76-3.42-4.86-4-4.15C216.21,100,215.51,101,214.19,101.78Z"/><path class="aj" d="M214.19,101.78c-.64-1.52-.49-4-.89-6.4a15.48,15.48,0,0,1,.74-3.83L214,89.22l-1.4.07a6.12,6.12,0,0,1-1.25,1.53c-1.76,1.55-3.1,6.78-2.49,8.89.57-1.94,2.06-3.32,2.93-2.95S213,100.6,214.19,101.78Z"/><path class="b" d="M215.19,105.49c0,4.77.55,17.23,1,20.73.34,2.78-3.62,9-4.81,9.12-.72.11-4.09-5.44-4.25-9.38-.14-3.6,2.89-15.67,5.14-21.14a1.55,1.55,0,0,1,2.95.67Z"/><path class="b" d="M212.54,100.35c-.83-1.07-.56-3.44-.56-3.44-.46-.54-1.56,0-2.28,1,0,0,.31,3.32,2.28,4.85Z"/><path class="u" d="M212,102.81l.56-2.49a2.75,2.75,0,0,1-.17-.29h0a2.39,2.39,0,0,0-1,2.14A3.94,3.94,0,0,0,212,102.81Z"/><path class="u" d="M212,96.91c-.46-.54-1.56,0-2.28,1a8,8,0,0,0,.24,1.28c.34-.93,1.14-1.87,1.66-1.74a1,1,0,0,1,.38.19A4,4,0,0,1,212,96.91Z"/><path class="b" d="M216,101.19a10,10,0,0,0,2.68-2.78,8,8,0,0,1,2.14,2.63,11,11,0,0,1-4.31,2Z"/><path class="u" d="M218.64,98.41l-.34.45a7.73,7.73,0,0,1,1.86,2.62,6.31,6.31,0,0,0,.58-.44A7.79,7.79,0,0,0,218.64,98.41Z"/><path class="b" d="M214.26,100.22c-1.93-.38-2.15.61-2.49,1.56a4.22,4.22,0,0,0,.5,3.08,3.1,3.1,0,0,1,2.95.62,4.33,4.33,0,0,0,1.38-2.89A2.78,2.78,0,0,0,214.26,100.22Z"/><path class="u" d="M215.19,105.49a4.28,4.28,0,0,0,1.38-2.89,2.83,2.83,0,0,0-1.18-1.91,2.86,2.86,0,0,1,.21,3c-.54.69-.79.58-1.57.49s-1.79.4-1.79.72A3.1,3.1,0,0,1,215.19,105.49Z"/><path class="b" d="M186.78,105.78c-11.55,0-17.65-5.87-17.65-17h.6c0,10.72,5.89,16.39,17.05,16.39Z"/><path class="am" d="M186.78,105.78c-11.55,0-17.65-5.87-17.65-17h.6c0,10.72,5.89,16.39,17.05,16.39Z"/><path class="b" d="M113.81,120.76a.89.89,0,0,1-.4-.83V65.81a2.27,2.27,0,0,1,1-1.78l63.86-36.85a.81.81,0,0,1,1.29.77V82.1a2.27,2.27,0,0,1-1,1.79l-63.85,36.84a1.13,1.13,0,0,1-.54.16A.72.72,0,0,1,113.81,120.76Zm64.68-93.13L114.64,64.47a1.74,1.74,0,0,0-.77,1.34V120a.3.3,0,0,0,.17.39.31.31,0,0,0,.34-.1L178.23,83.4a1.75,1.75,0,0,0,.78-1.34V27.92a.45.45,0,0,0-.14-.36h-.1a.62.62,0,0,0-.23.07Z"/><path class="am" d="M113.81,120.76a.89.89,0,0,1-.4-.83V65.81a2.27,2.27,0,0,1,1-1.78l63.86-36.85a.81.81,0,0,1,1.29.77V82.1a2.27,2.27,0,0,1-1,1.79l-63.85,36.84a1.13,1.13,0,0,1-.54.16A.72.72,0,0,1,113.81,120.76Zm64.68-93.13L114.64,64.47a1.74,1.74,0,0,0-.77,1.34V120a.3.3,0,0,0,.17.39.31.31,0,0,0,.34-.1L178.23,83.4a1.75,1.75,0,0,0,.78-1.34V27.92a.45.45,0,0,0-.14-.36h-.1a.62.62,0,0,0-.23.07Z"/><circle class="b" cx="186.77" cy="105.5" r="1.3"/><path class="b" d="M120.3,105h-.09a.39.39,0,0,1-.3-.46h0l.45-2.09c1.85-8.49,4.38-20.12,8-22.19,1.92-1.11,3.06.71,4.07,2.3,1.32,2.07,2.24,3.26,4,2.24,1.91-1.11,3.05-6.26,4.25-11.72,1.49-6.82,3.19-14.54,7-16.74a2.31,2.31,0,0,1,2.18-.21c2.39,1,3.59,6.49,4.86,12.26,1.11,5,2.25,10.18,4,11a1.22,1.22,0,0,0,1.17-.13c1.84-1.07,2.69-4.48,3.52-7.78.94-3.73,1.9-7.58,4.36-9a1.53,1.53,0,0,1,1.45-.1c1.87.83,2.95,5.71,3.81,10.18l.1.51a.4.4,0,0,1-.79.16l-.1-.52c-.55-2.87-1.7-8.84-3.35-9.6a.77.77,0,0,0-.72.06c-2.16,1.25-3.09,5-4,8.5s-1.76,7-3.9,8.29a2,2,0,0,1-1.89.18c-2.14-.94-3.28-6.08-4.48-11.52-1.12-5.07-2.39-10.78-4.41-11.7A1.55,1.55,0,0,0,148,57c-3.53,2-5.19,9.5-6.61,16.2-1.3,5.88-2.42,11-4.62,12.23-2.57,1.48-4-.72-5.09-2.49s-1.86-2.69-3-2c-3.27,1.89-5.85,13.79-7.56,21.67l-.46,2.08A.39.39,0,0,1,120.3,105Z"/><path class="b" d="M129,79.1a3,3,0,0,0-1.33,2.32c0,.83.59,1.19,1.33.77a3,3,0,0,0,1.34-2.32C130.34,79,129.74,78.68,129,79.1Z"/><g class="an"><path class="d" d="M129,79.1a3,3,0,0,0-1.33,2.32c0,.83.59,1.19,1.33.77a3,3,0,0,0,1.34-2.32C130.34,79,129.74,78.68,129,79.1Z"/></g><path class="b" d="M147.81,55.2a3,3,0,0,0-1.34,2.32c0,.83.6,1.19,1.34.77A3,3,0,0,0,149.14,56C149.17,55.12,148.57,54.78,147.81,55.2Z"/><g class="an"><path class="d" d="M147.81,55.2a3,3,0,0,0-1.34,2.32c0,.83.6,1.19,1.34.77A3,3,0,0,0,149.14,56C149.17,55.12,148.57,54.78,147.81,55.2Z"/></g><path class="b" d="M168,61.37a3,3,0,0,0-1.33,2.31c0,.83.6,1.2,1.33.77a2.94,2.94,0,0,0,1.34-2.31C169.37,61.29,168.77,61,168,61.37Z"/><g class="an"><path class="d" d="M168,61.37a3,3,0,0,0-1.33,2.31c0,.83.6,1.2,1.33.77a2.94,2.94,0,0,0,1.34-2.31C169.37,61.29,168.77,61,168,61.37Z"/></g><path class="b" d="M65.77,56.73a11.94,11.94,0,0,0-3.17.71c-2.33.76-3.41,1.11-3.41-.16a2.19,2.19,0,0,1,.16-.75,4.16,4.16,0,0,1,1.81-1.81c1.53-.89,2.4-.68,2.61.31L68,51.44a2.51,2.51,0,0,0-2.49-1.88,6.76,6.76,0,0,0-2.62.62V47.62l-2.13,1.26-1.3.75V52.2c-2.95,2.14-4.79,5-4.79,8a4.29,4.29,0,0,0,.27,1.66c.64,1.66,2.43,1.4,4.31.83.65-.2,1.29-.43,1.86-.63,1.35-.44,2.31-.6,2.31.54a3.25,3.25,0,0,1-1.9,2.6c-1.82,1-2.49.19-2.67-.65L54.4,68.28a4.23,4.23,0,0,0,.34.92,2.49,2.49,0,0,0,2.8,1.22,8.21,8.21,0,0,0,2.18-.66v2.56l3.44-2V67.78c3-2.19,5-5.15,5-8.24C68.2,57.32,67.13,56.7,65.77,56.73Z"/><path class="t" d="M65.77,56.73a11.94,11.94,0,0,0-3.17.71c-2.33.76-3.41,1.11-3.41-.16a2.19,2.19,0,0,1,.16-.75,4.16,4.16,0,0,1,1.81-1.81c1.53-.89,2.4-.68,2.61.31L68,51.44a2.51,2.51,0,0,0-2.49-1.88,6.76,6.76,0,0,0-2.62.62V47.62l-2.13,1.26-1.3.75V52.2c-2.95,2.14-4.79,5-4.79,8a4.29,4.29,0,0,0,.27,1.66c.64,1.66,2.43,1.4,4.31.83.65-.2,1.29-.43,1.86-.63,1.35-.44,2.31-.6,2.31.54a3.25,3.25,0,0,1-1.9,2.6c-1.82,1-2.49.19-2.67-.65L54.4,68.28a4.23,4.23,0,0,0,.34.92,2.49,2.49,0,0,0,2.8,1.22,8.21,8.21,0,0,0,2.18-.66v2.56l3.44-2V67.78c3-2.19,5-5.15,5-8.24C68.2,57.32,67.13,56.7,65.77,56.73Z"/><path class="b" d="M47.47,83.27a1,1,0,0,1-.56-.15,1.35,1.35,0,0,1-.6-1.26V54.56a3.71,3.71,0,0,1,1.67-3l26.08-15a1.24,1.24,0,0,1,2,1.16V65a3.72,3.72,0,0,1-1.71,3l-9.9,5.71L62,81a1,1,0,0,1-1.75.16l-2.16-3.74L48.3,83A1.75,1.75,0,0,1,47.47,83.27ZM74.9,36.89a1.12,1.12,0,0,0-.55.18l-26,15.06a3.12,3.12,0,0,0-1.41,2.43v27.3a.82.82,0,0,0,.31.75A.79.79,0,0,0,48,82.5l10.23-5.93,2.49,4.27a.34.34,0,0,0,.35.18.36.36,0,0,0,.32-.24L64,73.31l10.1-5.8a3.18,3.18,0,0,0,1.41-2.44V37.71A.86.86,0,0,0,75.2,37,.53.53,0,0,0,74.9,36.89Z"/><path class="b" d="M334,351.6a5.54,5.54,0,0,1-2.64-.64l-14-8.1a1.91,1.91,0,0,1-1.11-2.47,1.93,1.93,0,0,1,1.11-1.11l8.51-4.92c-.55-1.07-2-4-2.29-4.59a1.29,1.29,0,0,1,0-1.34,1.15,1.15,0,0,1,1.19-.32l9.19,1.6,8.74-5a5.79,5.79,0,0,1,5.28,0l14,8.09a1.93,1.93,0,0,1,0,3.59L336.59,351A5.41,5.41,0,0,1,334,351.6ZM324.22,329a.77.77,0,0,0,.14.37c.31.69,2.49,4.91,2.49,5l.19.39-9.23,5.34c-.49.28-.77.63-.77,1a1.28,1.28,0,0,0,.77,1l14,8.08a4.89,4.89,0,0,0,4.35,0l25.31-14.61a1,1,0,0,0,.72-1.26,1,1,0,0,0-.72-.72l-14-8.09a4.89,4.89,0,0,0-4.35,0l-9,5.22L324.56,329A.78.78,0,0,0,324.22,329Z"/><g class="ao"><path class="d" d="M334,351.6a5.54,5.54,0,0,1-2.64-.64l-14-8.1a1.91,1.91,0,0,1-1.11-2.47,1.93,1.93,0,0,1,1.11-1.11l8.51-4.92c-.55-1.07-2-4-2.29-4.59a1.29,1.29,0,0,1,0-1.34,1.15,1.15,0,0,1,1.19-.32l9.19,1.6,8.74-5a5.79,5.79,0,0,1,5.28,0l14,8.09a1.93,1.93,0,0,1,0,3.59L336.59,351A5.41,5.41,0,0,1,334,351.6ZM324.22,329a.77.77,0,0,0,.14.37c.31.69,2.49,4.91,2.49,5l.19.39-9.23,5.34c-.49.28-.77.63-.77,1a1.28,1.28,0,0,0,.77,1l14,8.08a4.89,4.89,0,0,0,4.35,0l25.31-14.61a1,1,0,0,0,.72-1.26,1,1,0,0,0-.72-.72l-14-8.09a4.89,4.89,0,0,0-4.35,0l-9,5.22L324.56,329A.78.78,0,0,0,324.22,329Z"/></g><path class="b" d="M334.77,336.16a9.32,9.32,0,0,1,.83.46c.21.14.5.3.77.48a1.42,1.42,0,0,1,.79,1.4,2.35,2.35,0,0,1-1.31,1.45,5.63,5.63,0,0,1-2.49.77,4.87,4.87,0,0,1-2.43-.46l-.83-.45-.83-.5c-.63-.42-.92-.88-.82-1.38s.53-1,1.36-1.48a5.59,5.59,0,0,1,2.55-.78A4.67,4.67,0,0,1,334.77,336.16Zm-1.66,2.7a1.59,1.59,0,0,0,.47.14.64.64,0,0,0,.45-.1c.15-.08.21-.17.18-.26a.75.75,0,0,0-.26-.27,10.32,10.32,0,0,0-1.4-.83,1.36,1.36,0,0,0-.47-.15.64.64,0,0,0-.45.1c-.15.08-.21.17-.17.26a.59.59,0,0,0,.25.27,13.71,13.71,0,0,0,1.43.84Zm3.79-6.05a.45.45,0,0,1,0-.28.64.64,0,0,1,.28-.26l1.76-1a.94.94,0,0,1,.38-.11.62.62,0,0,1,.35.08l.07.06a.22.22,0,0,1,.05.08l2.63,11.14a.42.42,0,0,1,0,.27c0,.08-.12.17-.28.26l-1.75,1a.89.89,0,0,1-.38.12.64.64,0,0,1-.36-.08l-.07-.06a.19.19,0,0,1-.05-.09ZM348.51,335a7.13,7.13,0,0,1,.83.46c.2.14.5.3.77.48a1.5,1.5,0,0,1,.82,1.4c-.05.52-.53,1-1.31,1.45a5.63,5.63,0,0,1-2.49.77,4.69,4.69,0,0,1-2.42-.47,8.8,8.8,0,0,1-.83-.44l-.83-.49c-.65-.43-.93-.89-.83-1.4a2.4,2.4,0,0,1,1.35-1.46,5.54,5.54,0,0,1,2.56-.83,4.72,4.72,0,0,1,2.36.53Zm-1.65,2.69a1.24,1.24,0,0,0,.47.15.7.7,0,0,0,.45-.1c.14-.08.2-.16.17-.26a.57.57,0,0,0-.26-.27,13.78,13.78,0,0,0-1.39-.83,1.59,1.59,0,0,0-.47-.14.74.74,0,0,0-.46.1c-.15.08-.2.17-.17.26a.65.65,0,0,0,.25.27,11.37,11.37,0,0,0,1.44.82Z"/></svg>