<svg xmlns="http://www.w3.org/2000/svg" width="420" height="400" viewBox="0 0 420 400"><defs><style>.a{fill:#f5f5f5;}.b{fill:#e0e0e0;}.c{fill:#407bff;}.d{opacity:0.1;}.d,.i,.j,.k,.l,.m,.n,.o,.p,.q,.r,.u{isolation:isolate;}.e,.j,.k,.l,.m,.n,.p,.r{fill:#fff;}.f{fill:#37474f;}.g{fill:#263238;}.h{fill:#455a64;}.i,.n{opacity:0.4;}.j{opacity:0.8;}.k{opacity:0.85;}.l{opacity:0.65;}.m{opacity:0.55;}.o{opacity:0.05;}.p{opacity:0.75;}.q{opacity:0.15;}.r{opacity:0.5;}.s{fill:#ffa8a7;}.t{fill:#f28f8f;}.u{opacity:0.25;}</style></defs><ellipse class="a" cx="210" cy="281.32" rx="205.58" ry="118.68"/><ellipse class="b" cx="345.89" cy="305.38" rx="51.4" ry="29.68"/><path class="b" d="M161.88,369.5,34.37,295.89c-2.09-1.21-2.09-3.17,0-4.38L218.71,185.09a8.31,8.31,0,0,1,7.58,0l127.47,73.6c2.09,1.2,2.09,3.16,0,4.36L169.46,369.5A8.37,8.37,0,0,1,161.88,369.5Z"/><path class="c" d="M371.84,288.36c-1.1-7.54,1.71-36.26,8.1-47.19s17-22.41,26.19-20.69c8.54,1.59,9.22,12.4.38,20.91S384.12,261,381.56,273.82l-7,21.9Z"/><path class="d" d="M371.84,288.36c-1.1-7.54,1.71-36.26,8.1-47.19s17-22.41,26.19-20.69c8.54,1.59,9.22,12.4.38,20.91S384.12,261,381.56,273.82l-7,21.9Z"/><path class="e" d="M373.88,286a.56.56,0,0,0,.41-.53c.39-26.5,17.34-51.05,28.9-57.88a.56.56,0,0,0-.56-1c-11.78,7-29.05,31.92-29.48,58.82a.54.54,0,0,0,.54.56h0A.4.4,0,0,0,373.88,286Z"/><path class="c" d="M378,299.83c.59-4.42,3.68-12,10.66-19.57,8.56-9.24,22.77-14.29,24.75-19.65,2.37-6.45-3.05-10.86-12.28-7.92-12.41,3.95-26.26,19.44-26.08,39.37Z"/><path class="e" d="M375.53,295.65a.55.55,0,0,0,.42-.43c4.68-23.23,23.41-35.69,31.06-37.84a.57.57,0,0,0,.43-.65.55.55,0,0,0-.67-.39h0c-8.45,2.36-27.07,15-31.84,38.69a.55.55,0,0,0,.43.65h0A.39.39,0,0,0,375.53,295.65Z"/><path class="e" d="M117.37,38.23l-6.8,3.93c0-.3.05-.6.05-.9v-2c0-3.51-2.46-4.93-5.5-3.18a10.83,10.83,0,0,0-3.28,3.15c-.49-4.41-4-6.05-8.16-3.62-4.54,2.62-8.23,9-8.23,14.29v3a7.86,7.86,0,0,0,.69,3.41l-5.68,3.22a6.73,6.73,0,0,0-3,5.29c0,1.94,1.36,2.73,3,1.78L117.33,45.3A6.75,6.75,0,0,0,120.39,40C120.42,38.05,119.05,37.25,117.37,38.23Z"/><path class="e" d="M31.45,47l3.75-2.9V35.85c0-6.56,5.23-14.17,10.9-17.45h0c5.68-3.28,10.28-.61,10.28,5.94v1.2a14.69,14.69,0,0,1,4.77-4.77h0c4.09-2.36,7.4-.45,7.4,4.27v.55l5.24-3c2.68-1.56,4.87-.3,4.87,2.81a10.77,10.77,0,0,1-4.87,8.43L31.45,58.26c-2.68,1.55-4.88.29-4.88-2.82A10.73,10.73,0,0,1,31.45,47Z"/><path class="f" d="M42.24,285.76a8.88,8.88,0,0,0,4.13,6.86l115.68,66.79a9.19,9.19,0,0,0,8.27,0l171.44-99a7.77,7.77,0,0,0,0-13.72L226.08,179.9a9.11,9.11,0,0,0-8.26,0l-171.45,99A8.86,8.86,0,0,0,42.24,285.76Z"/><path class="g" d="M166.22,351.43v8.93a8.46,8.46,0,0,1-4.12-1L46.37,292.62A7.74,7.74,0,0,1,46,279.17c-1.85,1.32-1.71,3.27.42,4.47l115.69,66.8A8.49,8.49,0,0,0,166.22,351.43Z"/><path class="h" d="M38.36,279.06a8.83,8.83,0,0,1-3.86-7V134a9.14,9.14,0,0,1,4.12-7.15l171.45-99a8.9,8.9,0,0,1,8-.15,8.87,8.87,0,0,1,3.87,7v138a9.12,9.12,0,0,1-4.13,7.15l-171.48,99A8.84,8.84,0,0,1,38.36,279.06Z"/><path class="g" d="M45.89,279.15a8.93,8.93,0,0,1-7.53-.1,8.86,8.86,0,0,1-3.86-7V134a8.26,8.26,0,0,1,1.21-4.07l7.74,4.47h0a8.43,8.43,0,0,0-1.21,4.06V276.52C42.24,279,43.83,280.06,45.89,279.15Z"/><path class="f" d="M42.24,138.46V276.52c0,2.68,1.85,3.7,4.13,2.38l171.45-99a9.11,9.11,0,0,0,4.12-7.15v-138c0-2.63-1.84-3.7-4.12-2.38l-171.45,99A9.14,9.14,0,0,0,42.24,138.46Z"/><path class="h" d="M46.37,283.66l115.68,66.8a9.13,9.13,0,0,0,8.27,0l171.44-99c2.28-1.33,2.28-3.46,0-4.78L226.08,179.9a9.11,9.11,0,0,0-8.26,0l-171.45,99C44.09,280.22,44.09,282.35,46.37,283.66Z"/><path class="c" d="M48.59,136.61,214.36,40.93c1.37-.78,2.48-.14,2.48,1.44V169.74a5.47,5.47,0,0,1-2.48,4.29L48.59,269.71c-1.36.79-2.48.14-2.48-1.44V140.9A5.51,5.51,0,0,1,48.59,136.61Z"/><path class="i" d="M48.59,136.61,214.36,40.93c1.37-.78,2.48-.14,2.48,1.44V169.74a5.47,5.47,0,0,1-2.48,4.29L48.59,269.71c-1.36.79-2.48.14-2.48-1.44V140.9A5.51,5.51,0,0,1,48.59,136.61Z"/><path class="f" d="M59.8,280.09l160.09-92.41a4.55,4.55,0,0,1,4.13,0l7.51,4.33a1.27,1.27,0,0,1,0,2.39L71.42,286.8a4.55,4.55,0,0,1-4.13,0l-7.49-4.32A1.26,1.26,0,0,1,59.8,280.09Z"/><path class="g" d="M79.17,291.28l160.08-92.42a4.49,4.49,0,0,1,4.13,0l46.22,26.68a1.26,1.26,0,0,1,0,2.39l-159.91,92.3a4.58,4.58,0,0,1-4.14,0L79.17,293.65A1.25,1.25,0,0,1,79.17,291.28Z"/><path class="h" d="M219.83,238.16l5-2.92c.21-.12.22-.32,0-.44l-5.29-3.09a.94.94,0,0,0-.77,0l-5.05,2.92c-.2.12-.21.32,0,.43l5.36,3.08A.92.92,0,0,0,219.83,238.16Zm-8.64-10.81-5,2.91a.23.23,0,0,0-.14.3.24.24,0,0,0,.14.14l5.36,3.07a.87.87,0,0,0,.77,0l5.05-2.91a.25.25,0,0,0,.16-.29.25.25,0,0,0-.16-.16L212,227.34a.88.88,0,0,0-.76,0Zm-16.29,9.39-8.52,4.93c-.22.12-.22.33,0,.44l5.36,3.08a.94.94,0,0,0,.77,0l8.53-4.93a.23.23,0,0,0,0-.44l-5.36-3.07a.85.85,0,0,0-.76,0Zm8.94-5.14-5.05,2.91c-.22.13-.22.32,0,.44l5.36,3.07a.87.87,0,0,0,.77,0l5-2.91a.24.24,0,0,0,0-.45l-5.36-3.07a.85.85,0,0,0-.76,0ZM184.09,243l-5,2.9a.24.24,0,0,0,0,.45l5.36,3.07a.87.87,0,0,0,.77,0l5-2.9c.22-.13.22-.33,0-.45L184.86,243A.87.87,0,0,0,184.09,243Zm-7.36,4.25-5,2.91a.24.24,0,0,0-.14.3.27.27,0,0,0,.14.14l5.27,3.07a.79.79,0,0,0,.76,0l5-2.9c.22-.13.22-.32,0-.45l-5.31-3.07a.87.87,0,0,0-.74,0Zm20.89,12.51,5-2.92c.21-.12.21-.32,0-.43l-5.32-3.08a.94.94,0,0,0-.77,0l-5,2.91a.23.23,0,0,0-.15.29.22.22,0,0,0,.15.16l5.32,3.07a.89.89,0,0,0,.75,0ZM190.25,264l5.05-2.91c.21-.13.21-.33,0-.44L190,257.62a.94.94,0,0,0-.77,0l-5,2.92c-.22.12-.22.32,0,.44l5.31,3.08a.92.92,0,0,0,.76,0Zm-7.36,4.25,5-2.91a.23.23,0,0,0,.15-.3.26.26,0,0,0-.15-.14l-5.36-3.07a.79.79,0,0,0-.76,0l-5,2.91c-.22.12-.22.32,0,.45l5.36,3.07a.86.86,0,0,0,.72,0Zm-7.37,4.25,5-2.91c.22-.12.23-.32,0-.44l-5.36-3.07a.85.85,0,0,0-.76,0l-5,2.9c-.22.13-.23.32,0,.45l5.31,3.07a.91.91,0,0,0,.79,0Zm36.95-30.09,5.05-2.92a.23.23,0,0,0,0-.44L212.16,236a.87.87,0,0,0-.77,0l-5,2.85c-.22.13-.22.32,0,.44l5.31,3.07A.89.89,0,0,0,212.47,242.44ZM205,255.55l11.24-6.49c.21-.13.21-.33,0-.44l-12.92-7.46a.87.87,0,0,0-.77,0l-5.81,3.36c-.22.12-.22.32,0,.44l6.84,3.95a.24.24,0,0,1,.14.3.22.22,0,0,1-.14.14L198.89,252c-.22.13-.22.32,0,.45l5.36,3.06a.8.8,0,0,0,.71,0Zm-35.63-4-5,2.91a.24.24,0,0,0-.14.3.32.32,0,0,0,.14.14l5.32,3.07a.87.87,0,0,0,.77,0l5.05-2.91a.25.25,0,0,0,.16-.29.25.25,0,0,0-.16-.16l-5.32-3.07a.89.89,0,0,0-.78,0ZM162,255.8l-5.05,2.91c-.21.13-.21.32,0,.44l5.36,3.07a.87.87,0,0,0,.77,0l5-2.91c.22-.12.22-.32,0-.45l-5.36-3.07a.85.85,0,0,0-.76,0Zm-38.82,46.49a.87.87,0,0,0,.77,0l5-2.91c.22-.13.23-.32,0-.45l-5.36-3.06a.81.81,0,0,0-.77,0l-5,2.91c-.21.13-.22.32,0,.44ZM103,289.78l-5,2.91c-.22.12-.23.32,0,.44l5.31,3.08a.94.94,0,0,0,.77,0l5-2.91c.21-.12.22-.33,0-.44l-5.36-3.08a.83.83,0,0,0-.72,0ZM113.62,299a.81.81,0,0,0,.77,0l5-2.91c.21-.13.21-.32,0-.44l-5.36-3.07a.81.81,0,0,0-.77,0l-5,2.91a.24.24,0,0,0,0,.45Zm21.78,5.42,5-2.92a.22.22,0,0,0,.14-.29.2.2,0,0,0-.14-.14L135.08,298a.94.94,0,0,0-.77,0l-5,2.91a.23.23,0,0,0,0,.44l5.36,3.08a.9.9,0,0,0,.77,0Zm-8.14,4.26a.94.94,0,0,0,.77,0l5-2.92a.22.22,0,0,0,0-.43l-5.26-3.06a.94.94,0,0,0-.77,0l-5,2.9c-.21.13-.22.33,0,.45Zm-16.85-23.18-5,2.92a.22.22,0,0,0-.16.28.22.22,0,0,0,.16.16l5.31,3.08a.94.94,0,0,0,.77,0l5-2.92c.22-.12.22-.32,0-.44l-5.36-3.07a.84.84,0,0,0-.71,0Zm36.82-21.26-5,2.91c-.21.13-.21.32,0,.44l5.36,3.07a.81.81,0,0,0,.77,0l5-2.91c.21-.12.21-.32,0-.45L148,264.26a.84.84,0,0,0-.77,0Zm-29.48,17-5,2.92a.23.23,0,0,0,0,.44l5.32,3.07a.87.87,0,0,0,.77,0l5-2.91c.22-.13.22-.33,0-.44l-5.31-3.08a.92.92,0,0,0-.76.06ZM154.61,260l-5.05,3c-.21.13-.22.32,0,.44l5.32,3.07a.81.81,0,0,0,.77,0l5-2.91c.21-.12.22-.32,0-.45l-5.36-3.06A.83.83,0,0,0,154.61,260Zm-14.73,8.5-5,2.91c-.21.13-.22.32,0,.45L140.2,275a.81.81,0,0,0,.77,0l5-2.91c.21-.12.22-.32,0-.44l-5.32-3.07a.85.85,0,0,0-.82,0Zm-7.38,4.28-5,2.91a.24.24,0,0,0,0,.45l5.36,3.06a.81.81,0,0,0,.77,0l5-2.91a.23.23,0,0,0,0-.44l-5.36-3.07A.81.81,0,0,0,132.5,272.81ZM125.13,277l-5,2.92c-.21.12-.22.32,0,.44l5.32,3.07a.85.85,0,0,0,.76,0l5-2.91c.22-.13.23-.33,0-.44L125.91,277A.89.89,0,0,0,125.13,277Zm35.62,4,5-2.91c.21-.12.22-.32,0-.44l-5.3-3.09a.87.87,0,0,0-.77,0l-5,2.9c-.21.13-.22.32,0,.45L160,281a.9.9,0,0,0,.72,0ZM227.48,218l-5,2.9c-.21.13-.22.32,0,.45l5.32,3.07a.87.87,0,0,0,.77,0l5-2.91c.21-.12.22-.32,0-.44L228.25,218a.85.85,0,0,0-.76,0Zm-8.93,5.14-5,2.92a.23.23,0,0,0-.14.29.24.24,0,0,0,.14.14l5.32,3.08a.94.94,0,0,0,.77,0l5-2.91a.23.23,0,0,0,0-.44l-5.36-3.08a.92.92,0,0,0-.76,0Zm16.28-9.4-5,2.91c-.22.12-.22.32,0,.45l5.36,3.07a.94.94,0,0,0,.77,0l5-2.91c.21-.13.21-.33,0-.44l-5.36-3.07a.89.89,0,0,0-.75,0Zm-39.41,38.57,5-2.91a.24.24,0,0,0,.14-.3.27.27,0,0,0-.14-.14l-5.36-3.07a.87.87,0,0,0-.77,0l-5.05,2.91a.25.25,0,0,0-.16.29.25.25,0,0,0,.16.16l5.32,3.07A.88.88,0,0,0,195.42,252.26ZM243,209.44a.94.94,0,0,0-.77,0l-5,2.92c-.22.12-.23.32,0,.44l5.31,3.08a.94.94,0,0,0,.77,0l5-2.92c.21-.12.22-.32,0-.43Zm-74.86,67.35,5-2.9a.24.24,0,0,0,0-.45l-5.36-3.07a.94.94,0,0,0-.77,0l-5,2.9c-.22.13-.22.33,0,.45l5.36,3.07a.9.9,0,0,0,.77,0Zm90.33-52.15,5-2.91a.24.24,0,0,0,.15-.3.23.23,0,0,0-.15-.14l-5.36-3.07a.85.85,0,0,0-.76,0l-5,2.9c-.22.12-.22.32,0,.45l5.36,3.07a.85.85,0,0,0,.76,0Zm-15-.13,5-2.92a.23.23,0,0,0,.14-.29.2.2,0,0,0-.14-.14l-5.32-3.08a.92.92,0,0,0-.76,0l-5,2.91c-.22.13-.23.33,0,.45l5.31,3.07a.92.92,0,0,0,.76,0Zm7.1-10.66a.85.85,0,0,0-.76,0l-5.05,2.91a.23.23,0,0,0-.16.29.25.25,0,0,0,.16.16l5.31,3.07a.87.87,0,0,0,.77,0l5-2.91a.23.23,0,0,0,.14-.3.2.2,0,0,0-.14-.14Zm1.55-.9,12.92,7.46a.87.87,0,0,0,.77,0l5-2.91a.23.23,0,0,0,0-.44L258,209.6a.94.94,0,0,0-.77,0l-5,2.92c-.2.09-.2.28,0,.43Zm-17,9.38-5,2.91c-.22.12-.22.32,0,.44l5.36,3.08a.94.94,0,0,0,.77,0l5-2.91c.22-.12.22-.33,0-.44l-5.36-3.08A.92.92,0,0,0,235.09,222.33Zm-55.46,32-5,2.91c-.22.12-.22.32,0,.44l5.36,3.08a.94.94,0,0,0,.77,0l5-2.91c.22-.12.22-.33,0-.44l-5.36-3.08A.92.92,0,0,0,179.63,254.34Zm70.68-25.45a.87.87,0,0,0,.77,0l5-2.9c.21-.13.21-.33,0-.45l-5.32-3.07a.87.87,0,0,0-.77,0l-5.05,2.9a.23.23,0,0,0-.15.29.22.22,0,0,0,.15.16ZM187,250.09,182,253c-.22.12-.22.32,0,.44l5.31,3.07a.87.87,0,0,0,.77,0l5.05-2.91a.23.23,0,0,0,.14-.29.26.26,0,0,0-.14-.15l-5.36-3.07a.83.83,0,0,0-.72,0Zm-56.51,48a.94.94,0,0,0,.77,0l5-2.92a.23.23,0,0,0,0-.44l-5.36-3.08a.85.85,0,0,0-.76,0l-5.05,2.92c-.22.12-.22.32,0,.43Zm-9.83-9.7-5,2.92c-.21.12-.22.32,0,.43l5.36,3.08a.87.87,0,0,0,.77,0l5-2.92c.22-.12.22-.32,0-.44l-5.36-3.07a.88.88,0,0,0-.71,0Zm17.94,5.44,5.05-2.91a.24.24,0,0,0,.16-.29.22.22,0,0,0-.16-.15l-5.32-3.08a.92.92,0,0,0-.76,0l-5,2.91a.23.23,0,0,0-.14.3.2.2,0,0,0,.14.14l5.31,3.08a.85.85,0,0,0,.82,0Zm7.37-4.26,5-2.9c.21-.13.22-.32,0-.45l-5.32-3.07a.85.85,0,0,0-.76,0L139.88,286a.23.23,0,0,0-.14.3.22.22,0,0,0,.14.14l5.31,3.07a.84.84,0,0,0,.84,0Zm7.37-4.25,5-2.9c.22-.13.22-.32,0-.45L153,278.87a.87.87,0,0,0-.77,0l-4.94,2.87c-.21.13-.21.33,0,.45l5.36,3.07a.93.93,0,0,0,.73.06ZM128,284.11,123,287c-.22.13-.22.33,0,.44l5.36,3.07a.79.79,0,0,0,.76,0l5-2.91c.22-.12.22-.32,0-.44l-5.36-3.07a.81.81,0,0,0-.71,0Zm7.37-4.25-5,2.91c-.22.13-.23.32,0,.44l5.31,3.07a.87.87,0,0,0,.77,0l5.05-2.91c.2-.13.21-.32,0-.45l-5.36-3.06a.81.81,0,0,0-.68,0Zm29.49-17-5,2.91c-.22.12-.22.33,0,.44l5.36,3.08a.94.94,0,0,0,.77,0l5-2.91c.22-.12.22-.32,0-.44l-5.36-3.08a.92.92,0,0,0-.73,0Zm-7.37,4.26-5,2.91c-.22.12-.23.32,0,.44l5.36,3.07a.79.79,0,0,0,.76,0l5-2.9c.22-.13.23-.32,0-.45l-5.31-3.07a.89.89,0,0,0-.78,0Zm14.74-8.51-5,2.91c-.22.12-.23.32,0,.44l5.36,3.08a.94.94,0,0,0,.77,0l5-2.91c.22-.12.23-.32,0-.44L173,258.63a.88.88,0,0,0-.73,0Zm-29.49,17-5,2.91c-.22.12-.22.32,0,.44L143,282a.87.87,0,0,0,.77,0l5-2.91a.24.24,0,0,0,0-.45l-5.36-3.07a.89.89,0,0,0-.66,0Zm7.37-4.26-5,2.92a.22.22,0,0,0-.14.29.2.2,0,0,0,.14.14l5.36,3.08a.85.85,0,0,0,.76,0l5-2.92c.22-.12.22-.32,0-.44l-5.36-3.08a.93.93,0,0,0-.75,0Zm-7.42,28.85,5-2.91a.24.24,0,0,0,.14-.3.24.24,0,0,0-.14-.14l-5.32-3.07a.81.81,0,0,0-.77,0l-5,2.9c-.22.13-.22.32,0,.45L142,300.2a.89.89,0,0,0,.81,0Zm-41-3.08-5.36-3.07a.85.85,0,0,0-.76,0l-5,2.88c-.22.13-.22.32,0,.45L96,300.45a.87.87,0,0,0,.77,0l5-2.91a.23.23,0,0,0,0-.42ZM112,299.94l-5.31-3.07a.81.81,0,0,0-.77,0l-7.75,4.47c-.22.12-.23.32,0,.44l5.36,3.08a.92.92,0,0,0,.76,0l7.76-4.47c.21-.14.22-.33,0-.45Zm-18.36-8.82-5.36-3.07a.94.94,0,0,0-.77,0l-6.2,3.57c-.22.13-.23.33,0,.45l5.36,3.07a.87.87,0,0,0,.77,0l6.25-3.57c.21-.13.21-.33,0-.45Zm4.75-2.75a.81.81,0,0,0,.77,0l5-2.91c.21-.12.21-.32,0-.45L98.85,282a.79.79,0,0,0-.76,0l-5,2.91c-.22.13-.22.32,0,.44Zm23.21,14.81-5.36-3.06a.87.87,0,0,0-.77,0l-9.69,5.59c-.22.13-.22.33,0,.45l5.36,3.07a.87.87,0,0,0,.77,0l9.69-5.59C121.81,303.52,121.81,303.33,121.61,303.18Zm4.11,6.41-5.36-3.07a.87.87,0,0,0-.77,0l-6.2,3.57a.24.24,0,0,0-.14.3.22.22,0,0,0,.14.14l5.36,3.07a.81.81,0,0,0,.77,0l6.2-3.57c.2-.1.2-.3,0-.42Zm27.51-52.86a.85.85,0,0,0,.76,0l5-2.91a.23.23,0,0,0,.14-.3.2.2,0,0,0-.14-.14l-5.36-3.07a.87.87,0,0,0-.77,0l-5,2.9c-.22.12-.22.32,0,.45Zm-14.7,8.53a.85.85,0,0,0,.76,0l5.05-2.9a.25.25,0,0,0,.16-.29.25.25,0,0,0-.16-.16L139,258.84a.87.87,0,0,0-.77,0l-5,2.9a.24.24,0,0,0,0,.45Zm-32.68,18.86a.81.81,0,0,0,.77,0l5-2.91a.25.25,0,0,0,.16-.29.25.25,0,0,0-.16-.16l-5.32-3.06a.81.81,0,0,0-.77,0l-5,2.91a.23.23,0,0,0,0,.44Zm40-23.11a.94.94,0,0,0,.77,0l5-2.9c.21-.13.22-.34,0-.45l-5.36-3.07a.87.87,0,0,0-.77,0l-5,2.9c-.21.12-.22.32,0,.45Zm-14.73,8.5a.87.87,0,0,0,.77,0l5-2.9a.24.24,0,0,0,0-.45l-5.32-3.07a.87.87,0,0,0-.77,0l-5,2.91a.24.24,0,0,0-.15.3.23.23,0,0,0,.15.14ZM129.6,310a.87.87,0,0,0-.77,0l-7.76,4.47c-.21.12-.22.32,0,.43l5.32,3.08a.94.94,0,0,0,.77,0l7.75-4.47a.23.23,0,0,0,.14-.3.22.22,0,0,0-.14-.14Zm-9-34.41a.94.94,0,0,0,.77,0l5-2.92a.23.23,0,0,0,0-.44l-5.36-3.08a.94.94,0,0,0-.77,0l-5,2.92c-.21.12-.21.32,0,.43Zm-7.37,4.25a.87.87,0,0,0,.77,0l5-2.91c.21-.13.22-.33,0-.45l-5.32-3.07a.87.87,0,0,0-.77,0l-5.08,2.94c-.21.13-.22.33,0,.44Zm152.84-48.64a.94.94,0,0,0-.77,0l-12.41,7.15a.24.24,0,0,0-.14.3.27.27,0,0,0,.14.14l5.36,3.07a.81.81,0,0,0,.77,0l12.4-7.15c.21-.12.22-.32,0-.44Zm-16.33,9.42a.81.81,0,0,0-.77,0l-5,2.9c-.22.13-.22.32,0,.45l5.31,3.06a.81.81,0,0,0,.77,0l5.05-2.91a.24.24,0,0,0,.16-.29.25.25,0,0,0-.16-.16ZM150.14,296l5-2.91c.22-.13.23-.33,0-.44l-5.31-3.07a.87.87,0,0,0-.77,0l-5,2.93c-.2.13-.21.33,0,.45l5.32,3.07A.87.87,0,0,0,150.14,296ZM235,249.14a.92.92,0,0,0-.76,0l-5,2.92c-.22.12-.23.32,0,.44l5.31,3.07a.87.87,0,0,0,.77,0l5-2.91c.21-.13.22-.33,0-.44ZM273.43,227a.87.87,0,0,0-.77,0l-5.08,3a.22.22,0,0,0-.14.29.23.23,0,0,0,.14.15l5.36,3.07a.94.94,0,0,0,.77,0l5-2.9c.21-.13.21-.33,0-.45Zm12.69-1.18-13-7.49a.94.94,0,0,0-.77,0l-5,2.91c-.22.12-.22.32,0,.44l12.91,7.46a.87.87,0,0,0,.77,0l5-2.9c.21-.1.22-.29,0-.42ZM207.5,265a.81.81,0,0,0-.77,0l-6.21,3.57a.24.24,0,0,0,0,.45l5.36,3.07a.87.87,0,0,0,.77,0l6.2-3.57c.21-.13.22-.32,0-.44Zm18.61-10.72a.87.87,0,0,0-.77,0l-7.76,4.46c-.21.13-.22.33,0,.44L223,262.3a.92.92,0,0,0,.76,0l7.76-4.47c.21-.12.22-.32,0-.44Zm-35.67,20.59a.87.87,0,0,0-.77,0l-41.48,23.95c-.22.13-.23.32,0,.44l5.31,3.07a.81.81,0,0,0,.77,0l41.44-24a.23.23,0,0,0,.16-.28.25.25,0,0,0-.16-.16Zm-43.78,25.3a.81.81,0,0,0-.77,0l-6.2,3.57c-.21.13-.22.33,0,.45l5.36,3.06a.81.81,0,0,0,.77,0l6.25-3.57a.22.22,0,0,0,.16-.29.25.25,0,0,0-.16-.16ZM199,270a.81.81,0,0,0-.77,0l-6.2,3.57c-.21.13-.22.32,0,.45l5.36,3.07a.87.87,0,0,0,.77,0l6.2-3.57c.22-.12.23-.32,0-.44Zm-60.87,35.14a.94.94,0,0,0-.77,0l-6.2,3.58a.23.23,0,0,0,0,.44l5.36,3.08a.85.85,0,0,0,.76,0l6.21-3.58a.23.23,0,0,0,0-.44Zm77.93-45a.87.87,0,0,0-.77,0l-6.2,3.58c-.22.12-.22.32,0,.44l5.36,3.07a.87.87,0,0,0,.77,0l6.2-3.58a.23.23,0,0,0,0-.44ZM242.42,245a.87.87,0,0,0-.77,0l-5.09,2.85a.23.23,0,0,0,0,.44l5.36,3.07a.87.87,0,0,0,.77,0l5-2.92c.21-.12.21-.32,0-.43Zm16.32-11.61,5.05-2.9a.24.24,0,0,0,0-.45l-5.36-3.07a.87.87,0,0,0-.77,0l-5,2.9c-.21.13-.21.33,0,.45l5.36,3.07a.84.84,0,0,0,.71-.07Zm-31.47.63,5-2.91a.23.23,0,0,0,0-.44L227,227.54a.94.94,0,0,0-.77,0l-5,2.92c-.21.12-.21.32,0,.43L226.5,234a.83.83,0,0,0,.72-.08Zm-18.16,28,14.73-8.52a.23.23,0,0,0,.14-.29.22.22,0,0,0-.14-.14l-5.36-3.08a.87.87,0,0,0-.77,0L203,258.41a.23.23,0,0,0-.14.3.24.24,0,0,0,.14.14l5.36,3.07A.9.9,0,0,0,209.11,261.93Zm41.48-24.4a.87.87,0,0,0,.77,0l5-2.9c.22-.13.22-.32,0-.45L251,231.11a.87.87,0,0,0-.77,0l-5,2.91a.23.23,0,0,0-.15.3.29.29,0,0,0,.15.14Zm-6.83-4.39,5.05-2.91a.23.23,0,0,0,0-.44l-5.32-3.08a.94.94,0,0,0-.77,0l-5,2.91c-.21.13-.22.33,0,.45l5.32,3.07a.88.88,0,0,0,.71,0Zm-42,33.05,5-2.91c.22-.13.22-.32,0-.45l-5.36-3.07a.87.87,0,0,0-.77,0l-5.05,2.91c-.21.13-.21.32,0,.44l5.32,3.07a.89.89,0,0,0,.75,0Zm32.5-19.29a.81.81,0,0,0,.77,0l5-2.91c.21-.13.22-.32,0-.45l-5.32-3.06a.79.79,0,0,0-.76,0l-5,2.91c-.22.13-.23.32,0,.45Zm-69.4,40.52,5-2.92c.21-.12.22-.32,0-.43L164.59,281a.87.87,0,0,0-.77,0l-5,2.92c-.21.12-.22.32,0,.44l5.36,3.07a.82.82,0,0,0,.73,0Zm7.37-4.26,5-2.91a.23.23,0,0,0,0-.44l-5.36-3.07a.87.87,0,0,0-.77,0l-5,2.91c-.22.13-.22.32,0,.45l5.36,3.06a.81.81,0,0,0,.77,0Zm-14.73,8.51,5-2.91c.22-.13.22-.32,0-.44l-5.36-3.07a.85.85,0,0,0-.76,0l-5,2.91c-.22.12-.22.32,0,.44l5.36,3.08a.9.9,0,0,0,.77,0Zm29.48-17,5-2.92a.23.23,0,0,0,0-.44l-5.36-3.07a.85.85,0,0,0-.76,0l-5,2.91c-.22.13-.22.33,0,.44l5.36,3.08a.86.86,0,0,0,.75,0Zm-7.36,4.24,5-2.91c.22-.13.23-.33,0-.45l-5.36-3.06a.79.79,0,0,0-.76,0l-5,2.91c-.22.12-.23.32,0,.44l5.36,3.07A.87.87,0,0,0,179.63,278.94Zm14.73-8.51,5-2.91a.22.22,0,0,0,.16-.29.25.25,0,0,0-.16-.16L194,264a.79.79,0,0,0-.76,0l-5,2.91c-.22.13-.22.32,0,.44l5.31,3.07a.83.83,0,0,0,.78,0Zm37-61.05a.79.79,0,0,0,.76,0l5-2.91c.22-.13.22-.32,0-.44l-1.41-.82a.87.87,0,0,0-.77,0l-5,2.91a.24.24,0,0,0,0,.45ZM194.89,232.7a.85.85,0,0,0,.76,0l5-2.91c.21-.13.21-.33,0-.45l-5.36-3.07a.87.87,0,0,0-.77,0l-5,2.91a.23.23,0,0,0-.14.29.29.29,0,0,0,.14.15Zm14.73-8.51a.87.87,0,0,0,.77,0l5-2.9c.22-.13.22-.32,0-.45l-5.36-3.07a.87.87,0,0,0-.77,0l-5,2.91a.24.24,0,0,0-.14.3.27.27,0,0,0,.14.14Zm-23.74,13.7a.87.87,0,0,0,.77,0l5-2.91c.21-.13.21-.33,0-.45l-5.36-3.07a.87.87,0,0,0-.77,0l-5,2.93c-.21.13-.21.33,0,.45Zm16.36-9.44a.85.85,0,0,0,.76,0l5-2.91c.22-.12.23-.32,0-.45L202.68,222a.94.94,0,0,0-.77,0l-5,2.91c-.22.12-.23.33,0,.44Zm-31.09,17.94a.79.79,0,0,0,.76,0l5-2.91c.22-.12.22-.32,0-.44L171.59,240a.79.79,0,0,0-.76,0l-5,2.91c-.22.13-.22.32,0,.45Zm7.36-4.25a.81.81,0,0,0,.77,0l5-2.91c.21-.13.22-.32,0-.44L179,235.72a.81.81,0,0,0-.77,0l-5,2.91c-.21.12-.22.32,0,.45Zm38.06-24.23a.79.79,0,0,0,.76,0l5-2.91c.21-.13.22-.32,0-.44l-1.41-.82a.87.87,0,0,0-.77,0l-5,2.9c-.21.13-.22.33,0,.45Zm22.1-12.76a.81.81,0,0,0,.77,0l5-2.91c.21-.12.22-.32,0-.44l-1.43-.82a.92.92,0,0,0-.76,0l-5,2.92a.22.22,0,0,0-.16.28.22.22,0,0,0,.16.16Zm11.17,6.45a.81.81,0,0,0,.77,0l5-2.91c.22-.12.22-.32,0-.44l-5.36-3.07a.85.85,0,0,0-.76,0l-5.05,2.91c-.21.13-.21.33,0,.45ZM266.06,229l5-2.9c.21-.12.22-.32,0-.45l-5.32-3.07a.94.94,0,0,0-.77,0l-5,2.9c-.22.12-.22.32,0,.44l5.31,3.08A.9.9,0,0,0,266.06,229ZM224,213.68a.87.87,0,0,0,.77,0l5-2.91c.22-.13.22-.33,0-.44l-1.42-.82a.81.81,0,0,0-.77,0l-5.06,2.89c-.22.13-.22.32,0,.45Zm-60.16,37a.81.81,0,0,0,.77,0l5-2.91c.22-.12.22-.32,0-.44l-5.31-3.09a.92.92,0,0,0-.76,0l-5.05,2.91c-.21.13-.22.33,0,.45Z"/><path class="g" d="M190.77,294l45.41-26.22a5.53,5.53,0,0,1,4.95,0l26.05,15c1.36.8,1.36,2.07,0,2.87l-45.4,26.2a5.4,5.4,0,0,1-4.95,0l-26-15A1.52,1.52,0,0,1,190.77,294Z"/><path class="c" d="M183.09,95.24C168.9,108,156.65,107.32,149,101.42c-7.65,14.75-19.91,29.57-34.1,33.2l-8.1,21.89s4.34,5,4.34,17a59.65,59.65,0,0,1-2,14.86c-1.47,5.91-3.38,12-3.38,22.23,0,6.91.9,13.64,4.42,19.76a24.35,24.35,0,0,0,8.87,8.93l-12.32-7.14A24.53,24.53,0,0,1,97.36,223c-3.5-6.13-4.39-12.85-4.39-19.77,0-10.2,1.9-16.32,3.37-22.24a59,59,0,0,0,2-14.84c0-12-4.34-17-4.34-17l8.09-21.89c14.19-3.63,26.44-18.44,34.1-33.2,7.67,5.9,19.92,6.57,34.11-6.18Z"/><path class="j" d="M140.69,96.64,136.23,94A19.71,19.71,0,0,0,140.69,96.64Z"/><path class="k" d="M170.31,87.88c-11.68,10.49-22,11.89-29.62,8.77l8.29,4.78c7.67,5.91,19.92,6.58,34.11-6.17Z"/><path class="l" d="M136.2,94c-7.66,14.76-19.92,29.57-34.1,33.2l12.78,7.38c14.19-3.63,26.45-18.45,34.1-33.2Z"/><polygon class="m" points="102.1 127.24 94 149.13 106.78 156.51 114.88 134.62 102.1 127.24"/><path class="n" d="M110.15,230.33c-3.5-6.12-4.42-12.85-4.42-19.76,0-10.21,1.91-16.32,3.38-22.23a59.65,59.65,0,0,0,2-14.86c0-12-4.34-17-4.34-17L94,149.13s4.35,5,4.35,17a60,60,0,0,1-2,14.84C94.85,186.87,93,193,93,203.19c0,6.92.89,13.64,4.41,19.76a24.53,24.53,0,0,0,9.34,9.16L119,239.25A24.25,24.25,0,0,1,110.15,230.33Z"/><path class="o" d="M110.15,230.33c-3.5-6.12-4.42-12.85-4.42-19.76,0-10.21,1.91-16.32,3.38-22.23a59.65,59.65,0,0,0,2-14.86c0-12-4.34-17-4.34-17L94,149.13s4.35,5,4.35,17a60,60,0,0,1-2,14.84C94.85,186.87,93,193,93,203.19c0,6.92.89,13.64,4.41,19.76a24.53,24.53,0,0,0,9.34,9.16L119,239.25A24.25,24.25,0,0,1,110.15,230.33Z"/><path class="c" d="M149,245.32c-21.19.24-33.33-5.36-38.84-15-3.49-6.12-4.41-12.85-4.41-19.77,0-10.2,1.9-16.3,3.38-22.22a59.51,59.51,0,0,0,2-14.85c0-12-4.34-17-4.34-17l8.1-21.9c14.19-3.63,26.45-18.45,34.1-33.2,7.67,5.9,19.92,6.57,34.11-6.18l8.1,12.51a61.78,61.78,0,0,0-4.35,22,35.93,35.93,0,0,0,2,12.5c1.48,4.2,3.38,8.12,3.38,18.33a73.44,73.44,0,0,1-4.41,24.86C182.31,201.47,170.18,221.08,149,245.32Z"/><path class="p" d="M149,245.32c-21.19.24-33.33-5.36-38.84-15-3.49-6.12-4.41-12.85-4.41-19.77,0-10.2,1.9-16.3,3.38-22.22a59.51,59.51,0,0,0,2-14.85c0-12-4.34-17-4.34-17l8.1-21.9c14.19-3.63,26.45-18.45,34.1-33.2,7.67,5.9,19.92,6.57,34.11-6.18l8.1,12.51a61.78,61.78,0,0,0-4.35,22,35.93,35.93,0,0,0,2,12.5c1.48,4.2,3.38,8.12,3.38,18.33a73.44,73.44,0,0,1-4.41,24.86C182.31,201.47,170.18,221.08,149,245.32Z"/><path class="c" d="M146.47,239.82c-16.41-.2-27-4.31-31.54-12.21-2.56-4.47-3.69-9.72-3.69-17.05a67.77,67.77,0,0,1,2.68-18.88c.17-.68.35-1.34.51-2a64.5,64.5,0,0,0,2.18-16.18c0-8.72-2.09-14.43-3.76-17.6l6.26-16.79c15.19-5.28,26.16-20.28,32-30.12a25,25,0,0,0,9.91,2c6.86,0,13.84-2.55,20.81-7.6l3.26,5.06a67.66,67.66,0,0,0-3.72,21.33,41.49,41.49,0,0,0,2.32,14.36c.17.48.35,1,.53,1.45,1.3,3.57,2.54,6.94,2.54,15a68.27,68.27,0,0,1-4.11,23.07C177.2,199.43,165.05,218.31,146.47,239.82Z"/><path class="n" d="M146.47,239.82c-16.41-.2-27-4.31-31.54-12.21-2.56-4.47-3.69-9.72-3.69-17.05a67.77,67.77,0,0,1,2.68-18.88c.17-.68.35-1.34.51-2a64.5,64.5,0,0,0,2.18-16.18c0-8.72-2.09-14.43-3.76-17.6l6.26-16.79c15.19-5.28,26.16-20.28,32-30.12a25,25,0,0,0,9.91,2c6.86,0,13.84-2.55,20.81-7.6l3.26,5.06a67.66,67.66,0,0,0-3.72,21.33,41.49,41.49,0,0,0,2.32,14.36c.17.48.35,1,.53,1.45,1.3,3.57,2.54,6.94,2.54,15a68.27,68.27,0,0,1-4.11,23.07C177.2,199.43,165.05,218.31,146.47,239.82Z"/><path class="q" d="M146.47,239.82c-16.41-.2-27-4.31-31.54-12.21-2.56-4.47-3.69-9.72-3.69-17.05a67.77,67.77,0,0,1,2.68-18.88c.17-.68.35-1.34.51-2a64.5,64.5,0,0,0,2.18-16.18c0-8.72-2.09-14.43-3.76-17.6l6.26-16.79c15.19-5.28,26.16-20.28,32-30.12a25,25,0,0,0,9.91,2c6.86,0,13.84-2.55,20.81-7.6l3.26,5.06a67.66,67.66,0,0,0-3.72,21.33,41.49,41.49,0,0,0,2.32,14.36c.17.48.35,1,.53,1.45,1.3,3.57,2.54,6.94,2.54,15a68.27,68.27,0,0,1-4.11,23.07C177.2,199.43,165.05,218.31,146.47,239.82Z"/><path class="j" d="M118.69,232.15c5.59,4.93,14.88,7.52,27.78,7.67l-8.23-4.69A60.38,60.38,0,0,1,118.69,232.15Z"/><polygon class="q" points="180.77 105.96 185.06 108.44 181.8 103.38 179.93 104.67 180.77 105.96"/><path class="h" d="M179.38,141.65a41.25,41.25,0,0,1-2.33-14.35A67.72,67.72,0,0,1,180.77,106l-.84-1.29C173.59,108.86,167.24,111,161,111a25,25,0,0,1-9.91-2c-5.81,9.83-16.79,24.84-32,30.12l-6.25,16.79c1.66,3.17,3.75,8.88,3.75,17.6a64.5,64.5,0,0,1-2.18,16.18c-.16.67-.34,1.33-.51,2a67.77,67.77,0,0,0-2.68,18.88c0,7.33,1.13,12.58,3.69,17.05a18.24,18.24,0,0,0,5.36,5.8q8.22,3.75,21.92,3.93c18.57-21.51,30.72-40.39,36.15-56.13a68.21,68.21,0,0,0,4.11-23.06c0-8.11-1.24-11.48-2.55-15.05C179.72,142.62,179.54,142.14,179.38,141.65Z"/><path class="f" d="M119.1,139.1l-6.25,16.79c1.66,3.17,3.75,8.88,3.75,17.6a64.5,64.5,0,0,1-2.18,16.18c-.16.67-.34,1.33-.51,2a67.77,67.77,0,0,0-2.68,18.88c0,7.33,1.13,12.58,3.69,17.05a18.24,18.24,0,0,0,5.36,5.8q8.22,3.75,21.92,3.93V175.43l8.94-2.68V109a97.92,97.92,0,0,1-8.94,12.72C136.24,128.88,128.47,135.84,119.1,139.1Z"/><path class="g" d="M163.65,152.58a2.38,2.38,0,0,0-.34-.49l0-.06a4,4,0,0,0-.9-.72l-3-1.71a6.34,6.34,0,0,0-1.72-.67c-.36-.07-.72-.13-1.09-.17V140c0-4.43-1.67-7.92-4.58-9.6s-6.25-1.39-9.67.61C136,134.64,131,143.6,131,151.36v10.4l-5.93,3.43a2.93,2.93,0,0,0-.5.34l-.16.13h0a2.16,2.16,0,0,0-.82,1.61v35.67a2.22,2.22,0,0,0,.07.45,2.56,2.56,0,0,0,1.11,1.45l.33.22,1.46.84,1.53.89a6.43,6.43,0,0,0,1.91.69,8,8,0,0,0,5.4-.7l27-15.59a2.58,2.58,0,0,0,1.52-2.11V153.43A1.86,1.86,0,0,0,163.65,152.58Zm-26.84-1.22c0-5.68,3.86-12.7,8.42-15.33,1.55-.9,3-1.13,3.83-.61,1.05.6,1.66,2.29,1.66,4.54v10.4l-7.67,4.46-6.25,3.58Z"/><path class="c" d="M167,155a2.58,2.58,0,0,0-1.52-2.11l-3-1.72a8,8,0,0,0-7.32,0l-27,15.59a2.59,2.59,0,0,0-1.52,2.11h0v35.68h0a2.56,2.56,0,0,0,1.52,2.11l3,1.73a8.13,8.13,0,0,0,7.32,0l27-15.6a2.58,2.58,0,0,0,1.52-2.11h0Z"/><path class="n" d="M131.17,172.75l-3-1.78c-2-1.17-2-3.06,0-4.23l27-15.59a8.07,8.07,0,0,1,7.32,0l3,1.72c2,1.17,2,3.06,0,4.22l-27,15.66A8.09,8.09,0,0,1,131.17,172.75Z"/><path class="d" d="M134.83,173.58v35.68a7.52,7.52,0,0,1-3.66-.9l-3-1.66a2.57,2.57,0,0,1-1.51-2.13v-35.7a2.57,2.57,0,0,0,1.51,2.11l3,1.73A7.41,7.41,0,0,0,134.83,173.58Z"/><path class="h" d="M154.49,191.23,148,195l1-11.67a3,3,0,0,1-1.26-2.84c0-2.58,1.55-5.56,3.48-6.67s3.48.06,3.48,2.68a8.77,8.77,0,0,1-1.25,4.31Z"/><polygon class="f" points="154.49 191.23 148.64 187.86 148.03 194.95 154.49 191.23"/><path class="f" d="M151.26,173.77a7.61,7.61,0,0,0-3,3.95l5.2,3h0a8.71,8.71,0,0,0,1.25-4.31C154.74,173.83,153.19,172.65,151.26,173.77Z"/><path class="b" d="M159.71,155.78h0v-14.3c0-4.46-1.67-7.91-4.58-9.59s-6.25-1.39-9.68.61c-6.36,3.67-11.33,12.63-11.33,20.39v14.34h0a1.44,1.44,0,0,0,.89,1.2,4.6,4.6,0,0,0,4.12,0,1.44,1.44,0,0,0,.89-1.2h0V152.94c0-5.68,3.86-12.71,8.43-15.34,1.55-.9,3-1.12,3.84-.61s1.66,2.3,1.66,4.54v14.29h0a1.45,1.45,0,0,0,.89,1.18,4.6,4.6,0,0,0,4.12,0,1.45,1.45,0,0,0,.89-1.18h0Z"/><polyline class="c" points="194.43 218.5 198.36 216.23 199.91 214.34 195.98 216.61 194.43 218.5"/><polyline class="i" points="194.43 218.5 198.36 216.23 199.91 214.34 195.98 216.61 194.43 218.5"/><polyline class="c" points="205.12 224.68 209.05 222.41 212.34 219.49 208.41 221.76 205.12 224.68"/><polyline class="i" points="205.12 224.68 209.05 222.41 212.34 219.49 208.41 221.76 205.12 224.68"/><path class="c" d="M238.59,232.52a8.33,8.33,0,0,1,1.62,4.28A8.51,8.51,0,0,1,238.59,232.52Zm9.14.11c-1.32-9-6.16-17.86-11.93-21.24-2.77-1.6-5.36-1.65-7.38-.46l-3.7,2.14-.21.13a3.48,3.48,0,0,0-.48.3,7.4,7.4,0,0,0-.89.7l-.12.11a4,4,0,0,0-.34.38c-.11.12-.28.32-.4.48a10.56,10.56,0,0,0-.72,1.11c-.11.19-.22.4-.32.61l-32.33-18.66L185,200.49V203l.34.19.31.19v.52l-.65.38v1.46l4.75,10,4.7,2.68,1.55-1.9,4.15,2.49,2.37,4.07,2.63,1.51,3.28-2.91,4,2.33,1.36,5.58,6.75,3.91a36.91,36.91,0,0,0,1.28,4.2l.15.43c2.25,5.9,5.83,11,9.83,13.29a10.08,10.08,0,0,0,1.52.72,8.33,8.33,0,0,0,.84.29c.25.07.5.12.76.17a6.85,6.85,0,0,0,2.39,0l.33-.08a2.44,2.44,0,0,0,.46-.14l.34-.13.37-.17.33-.17.17-.1.08,0,3.71-2.14c3-1.73,4.92-6.11,4.92-12.3a31.71,31.71,0,0,0-.35-4.77Z"/><path class="c" d="M237.39,240.11c-1.54-.89-2.8-3.57-2.8-5.94s1.26-3.57,2.8-2.68,2.82,3.57,2.82,5.95S239,241,237.39,240.11Zm6.37-5.21c-1.32-9-6.16-17.91-11.93-21.24-2.68-1.54-5.14-1.65-7.15-.59l-.22.13a3.38,3.38,0,0,0-.47.3,6.69,6.69,0,0,0-.89.7l-.13.11-.34.38c-.1.12-.27.32-.39.48a8.11,8.11,0,0,0-.72,1.11c-.11.19-.23.4-.33.61a15.62,15.62,0,0,0-1.25,3.83L185,200.49V203l.33.19.32.19v.52l-.65.38v1.46l4.75,10,4.7,2.68,1.55-1.9,4.15,2.49,2.37,4.07,2.63,1.51,3.28-2.91,4,2.33,1.36,5.58,6.75,3.91a36.91,36.91,0,0,0,1.28,4.2l.15.43c2.25,5.9,5.82,11,9.83,13.29a10.08,10.08,0,0,0,1.52.72,8.33,8.33,0,0,0,.84.29c.25.07.5.12.75.17a6.91,6.91,0,0,0,2.4,0l.33-.08a2.15,2.15,0,0,0,.45-.14l.35-.13.37-.17.33-.17.17-.1.08,0c2.86-1.79,4.7-6.12,4.7-12.17A32.9,32.9,0,0,0,243.76,234.9Z"/><path class="i" d="M240.21,237.41c0,2.39-1.26,3.57-2.81,2.68s-2.81-3.58-2.81-6,1.26-3.57,2.81-2.68a4.15,4.15,0,0,1,1.19,1.06,8.42,8.42,0,0,0,1.62,4.28C240.22,237,240.22,237.2,240.21,237.41Z"/><path class="n" d="M248.05,237.41c0,6.19-1.94,10.56-4.92,12.3l-3.71,2.13c2.86-1.78,4.7-6.12,4.7-12.17a34.69,34.69,0,0,0-.36-4.77c-1.32-9-6.16-17.91-11.93-21.24-2.68-1.54-5.14-1.65-7.15-.59l3.7-2.14c2.05-1.19,4.61-1.14,7.38.46,5.77,3.35,10.6,12.28,11.92,21.22A30.85,30.85,0,0,1,248.05,237.41Z"/><path class="c" d="M244.12,239.67c0,6.05-1.84,10.37-4.7,12.17l3.71-2.13c3-1.74,4.92-6.11,4.92-12.3v-.69L244.13,239C244.11,239.21,244.12,239.44,244.12,239.67Z"/><path class="d" d="M244.12,239.67c0,6.05-1.84,10.37-4.7,12.17l3.71-2.13c3-1.74,4.92-6.11,4.92-12.3v-.69L244.13,239C244.11,239.21,244.12,239.44,244.12,239.67Z"/><polygon class="q" points="220.13 223.29 220.13 224.57 184.98 204.28 185.63 203.9 185.63 203.37 220.13 223.29"/><polygon class="q" points="220.13 223.83 220.13 224.57 184.98 204.28 185.63 203.9 185.63 203.9 220.13 223.83"/><path class="q" d="M235.43,249.74a7.5,7.5,0,0,1-3.77-1.12c-5.73-3.32-10.39-13.16-10.39-22,0-5.13,1.55-8.94,4.26-10.53,1.89-1.09,4.12-.95,6.46.4,5.73,3.31,10.39,13.16,10.39,22,0,5.12-1.55,8.93-4.26,10.52A5.2,5.2,0,0,1,235.43,249.74Zm-7.15-33.67a4.72,4.72,0,0,0-2.38.64c-2.46,1.42-3.93,5.14-3.93,10,0,8.58,4.47,18.17,10.07,21.38,2.13,1.23,4.13,1.36,5.81.4,2.46-1.42,3.93-5.15,3.93-10,0-8.59-4.47-18.18-10.07-21.38a6.93,6.93,0,0,0-3.48-1Z"/><path class="r" d="M221.24,216.89a15.62,15.62,0,0,0-1.25,3.83l-35-20.23,3.93-2.26Z"/><path class="g" d="M354.73,315.69c.13,1.23.3,4.66,6.52,5.51S371.38,320,373,317s1.28-5.44,1.54-8.21,2.55-4.24,3.21-5.67c1-2.1-.44-5.36-.44-5.36Z"/><path class="g" d="M309.32,306a3.72,3.72,0,0,0,.4,3,13,13,0,0,0,10,2.68,24,24,0,0,0,10.54-4.13,13.93,13.93,0,0,1,8.14-2.35c3-.1,5.18-.76,5.41-1.55.4-1.38.4-2.25-.26-2.22Z"/><path class="s" d="M375.86,293c-.77,5.68-11.77,5.22-10.88.69l-2-13.77,12.44.39Z"/><path class="f" d="M355.14,312.9a35.37,35.37,0,0,1,2.86-3.41,30.78,30.78,0,0,0,6.46-16.5c0-.33.07-1,.41-1.18s.67.08,1,.24h0a6.87,6.87,0,0,0,1.93.5,34.92,34.92,0,0,0,5.19-.2c.54.07.56,1.38.52,2.81.79-.49,1.05-1.47,1.74-2,.39-.32.56-.33.55-.83v-1c.57-.16,1,2,1.51,3.65.54,1.93,1.21,4.09.45,6a16,16,0,0,1-1.78,3,12.28,12.28,0,0,0-2.25,5.5c-.09.89,0,1.79-.15,2.63a7.7,7.7,0,0,1-5.42,6.31c-3.8,1.18-9.49,1-12.83-1.65C354.19,315.88,354.58,313.91,355.14,312.9Z"/><path class="s" d="M341,292c-3,2.34-6.65,3.71-10.36,2l-.89-23.16,12.51,2.24Z"/><path class="f" d="M311.84,302c.84-.27,1.65-.57,2.45-.9a43.81,43.81,0,0,0,6.49-3.27c.89-.55,1.79-1.13,2.68-1.78s1.79-1.36,2.68-2.07a9.54,9.54,0,0,0,1.26-1.36,13.83,13.83,0,0,0,1.87-3,1.09,1.09,0,0,1,.47-.62.88.88,0,0,1,.89.18,4.36,4.36,0,0,0,.69.46l.73.31a8.62,8.62,0,0,0,2.45.6c3.16.27,3.26-.36,3.4.66a7.23,7.23,0,0,1,0,1.14c1.67-.28,3-.81,3.05-1.45l.2-2c1.66-.16,1.78,2.82,2.32,6.16.44,2.68,1.09,4.65.34,6.65-2.51,2.18-6.94,1.66-9.46,2.07-3.57.59-5.25,3.23-10.2,4.95-8,2.77-13.06-.42-14.56-1.79C308.62,305.18,308.42,303.08,311.84,302Z"/><path class="g" d="M372.35,155.05c.64,9.82,1.79,24.21,2.19,35.57.75,21.33.46,45.66.46,45.66A73.52,73.52,0,0,1,377.29,250c.51,13.63.42,44.24.42,44.24s-5.65,5.69-14.1,1.22c0,0-7.5-42.88-9.59-56.35-2-12.82-5.9-38.42-5.9-38.42L346.33,237a56.1,56.1,0,0,1,1.33,17.47c-.46,6.25-4,37.08-4,37.08-3.25,3.05-12.72,1.39-14.79-1,0,0-3.32-45.56-3.69-52.15-.8-14.23-2.92-67.31-1.85-75.54S372.35,155.05,372.35,155.05Z"/><path d="M348.12,200.61l-2.49-16.42s-6.81-1.29-11.8-5c0,0,1.94,4.39,9.48,7.52L345.79,202l.59,35Z"/><path class="g" d="M362,89.16c.46,1.85,3.58,1.56,5,1.21a3.46,3.46,0,0,0,2.73-3.68,3.8,3.8,0,0,0,1.84-1.11,2.7,2.7,0,0,0,.12-3.06,3.82,3.82,0,0,0,1.56-3.62,4.26,4.26,0,0,0-1.54-2.51,4.38,4.38,0,0,0-2.73-1c-.33,0-.65.64-.18.7a4.78,4.78,0,0,1,2,.89,3.87,3.87,0,0,1,1.36,1.71,2.84,2.84,0,0,1-1,3.08,3.64,3.64,0,0,0-.54-.57,3.2,3.2,0,0,0-2.27-.8,1.63,1.63,0,0,0-1.49.89c-.22.7.5,1.29,1,1.59a3.15,3.15,0,0,0,2.58.24l.21-.08a1.39,1.39,0,0,1,.12.28c.49,1.28-.29,2.07-1.34,2.43-.63-1.31-2.35-2.27-3.72-1.58a1.16,1.16,0,0,0-.6,1.52,1,1,0,0,0,.27.37,3,3,0,0,0,2.11.84,6.61,6.61,0,0,0,1.09,0,2.37,2.37,0,0,1-.38,1.64,3.3,3.3,0,0,1-2.6,1.11,4.2,4.2,0,0,1-3.06-1C362.35,88.48,362,88.88,362,89.16Zm8.16-6.86a2,2,0,0,1-1.72-.29c-.38-.25-.8-.61-.13-.66A2.33,2.33,0,0,1,370.2,82.3ZM368.33,86a4.68,4.68,0,0,1-1.12-.11c-.27-.06-1.44-.66-.84-.9.45-.2,1.26.25,1.58.54A1.91,1.91,0,0,1,368.33,86Z"/><path class="g" d="M364.21,54.6c.2,0,.39.07.59.12a2.68,2.68,0,0,1,1.42-3,2.87,2.87,0,0,1,3.71,1.52l-4,1.85A5.67,5.67,0,0,1,369,57.7c1.11,2.29-.36,7.15-1.83,13.14A84.61,84.61,0,0,1,363.88,82c-.68,1.79-1.91,1.79-1.91,1.79v-6l.26-5s-3.18-4.35-3.53-7.91c-.45-4.59.51-6.46.51-6.46Z"/><path class="g" d="M342.22,49.47a10.1,10.1,0,1,1-10.11,10.07h0a10.08,10.08,0,0,1,10.11-10.06Z"/><path class="s" d="M362,72c1.2,1,2.17-1.64,3.18-2.68s4.28-2.47,5.91,1-1.5,8.28-4,9.41c-3.57,1.68-5.2-1.94-5.2-1.94v15c-3.78,6.81-12,5.22-15.82,6.17a8.47,8.47,0,0,1,0-5.36V88.69a17.8,17.8,0,0,1-4.94.25c-3.27-.51-5-3.2-6-6.74-1.58-5.68-1.91-15.23.28-26.27,3.66-2.82,16-2.35,23.69,2.47C358.66,68.23,360.85,71,362,72Z"/><path class="t" d="M346.16,88.69s7.29-1.44,9.83-2.79a8.38,8.38,0,0,0,3.57-3.48,11.52,11.52,0,0,1-2,4.11c-1.87,2.38-11.37,4.1-11.37,4.1Z"/><path class="g" d="M330.51,66.11a2.82,2.82,0,0,0,.67,1.56,1.87,1.87,0,0,1,.27.57,26.5,26.5,0,0,0,.89,4.21,4.64,4.64,0,0,0,4.47,3.08,6.53,6.53,0,0,0,1.53-.09h.12a4.53,4.53,0,0,0,1.27-.47h.07l.11-.07.13-.1a.27.27,0,0,0,.12-.09.4.4,0,0,0,.15-.1l.12-.13.25-.24a5.89,5.89,0,0,0,1-1.58c.69-1.46.55-3.52,1.63-3.73h.27c1.47.06,1.25,2.29,2,3.91a5.45,5.45,0,0,0,5.27,3.3h.73a4.78,4.78,0,0,0,.76-.09l.24,0,.24-.06H353a4.71,4.71,0,0,0,.89-.39c.1-.07.2-.12.3-.18s.34-.28.5-.43a4.72,4.72,0,0,0,1-1.48,24.61,24.61,0,0,0,1-4.14,1.59,1.59,0,0,1,.25-.6,2.82,2.82,0,0,0,.74-1.48,1.29,1.29,0,0,0-.9-1.34l-.76-.13a23.72,23.72,0,0,0-7.7,0c-2.47.61-3.34,1.38-4.69,1.34s-2.08-.9-4.39-1.69c-1.79-.65-4.88-.67-7.2-.51a3.54,3.54,0,0,0-.73,0C330.9,64.84,330.47,65.44,330.51,66.11Zm16,1.84a2.07,2.07,0,0,1,.71-.54l.13-.08h.07a2.52,2.52,0,0,0,.34-.15,1.16,1.16,0,0,0,.33-.11,7.49,7.49,0,0,1,1.05-.32l.42-.09c.35-.06.71-.11,1.07-.15h.26c2.35-.14,3.81.44,4.33.9s.25,2.68,0,3.77v.16c0,.15-.07.3-.11.44a2.29,2.29,0,0,1-.08.28h0c-.06.15-.11.3-.17.46a.77.77,0,0,1-.07.16.26.26,0,0,1-.05.09v.1l-.07.14s-.05.09-.09.14a572627690820.31,572627690820.31,0,0,0-.2.3A3.67,3.67,0,0,1,351.1,75a4.54,4.54,0,0,1-3.52-1.36,4.8,4.8,0,0,1-1.1-2.25c-.27-1.28-.41-2.73.06-3.39Zm-13.8-1.41a1.66,1.66,0,0,1,.58-.36h0l.25-.1h.51l.55-.08h.46a.33.33,0,0,0,.14,0,2.41,2.41,0,0,1,.38,0h.27a9.91,9.91,0,0,1,1.08.12c1.67.28,3.41,1.09,3.85,1.79s.31,2.11.07,3.35a8.12,8.12,0,0,1-.22.81.06.06,0,0,0,0,.06v.14l-.05.1a.42.42,0,0,1-.1.2.76.76,0,0,1-.09.18v0l-.07.13-.07.09h0a3.68,3.68,0,0,1-3.52,1.53,4,4,0,0,1-1.79-.46,5.06,5.06,0,0,1-2.21-3.58C332.51,69.19,332.23,67,332.74,66.54Z"/><path class="g" d="M356.6,65.81l10.72,2.41a4.62,4.62,0,0,0-2.45,1.58l-8.28-1.57Z"/><path class="f" d="M332.74,70.32c.19.89.57,2.74,2.22,3.57a4.1,4.1,0,0,0,1.78.47,3.68,3.68,0,0,0,3.52-1.53h0l.07-.1.08-.13v0l.09-.18c0-.06.06-.12.09-.19a.93.93,0,0,0,.05-.1v-.15a.06.06,0,0,1,0-.06,5.7,5.7,0,0,0,.22-.81c.24-1.23.38-2.68-.07-3.35a6.84,6.84,0,0,0-3.85-1.79,7.91,7.91,0,0,0-1.08-.11h-.27a2.29,2.29,0,0,0-.37,0h-.61a3.47,3.47,0,0,0-.55.08h-.51l-.25.09h0a1.76,1.76,0,0,0-.58.36C332.23,67,332.51,69.19,332.74,70.32Z"/><path class="f" d="M346.48,71.3a4.9,4.9,0,0,0,1.1,2.29A4.52,4.52,0,0,0,351,75a3.66,3.66,0,0,0,3.31-1.49,1.3,1.3,0,0,0,.1-.15.65.65,0,0,0,.1-.15s0-.09.09-.15l.07-.13v-.1a.18.18,0,0,0,0-.1.44.44,0,0,0,.08-.15c.06-.16.11-.31.17-.46h0c0-.09.06-.19.08-.28a3.13,3.13,0,0,0,.1-.44.14.14,0,0,0,0-.09v-.08c.24-1.09.54-3.27,0-3.77s-2-1.08-4.32-.89h-.26a6.41,6.41,0,0,0-1.07.15l-.42.09a8,8,0,0,0-1.06.31.84.84,0,0,0-.32.12l-.35.15h-.06l-.13.07a2,2,0,0,0-.71.55C346.07,68.61,346.21,70.06,346.48,71.3Z"/><path class="g" d="M333,48.14a1.17,1.17,0,0,1,0-.37,1.26,1.26,0,0,1,.24-.64c.49-.5,1.48.78,1.79,1.08s.68.56,1,.82a7.54,7.54,0,0,1,1,.58,10.29,10.29,0,0,1,0-3.67c.15-.81.37-2.68,1.37-2.87.59-.13,1.11.37,1.55.79,4,3.73,9.21,2,14,2.16,4,.12,8.88,1.78,10.72,5.68.83,1.79,1,3.67-.67,4.9-1.06.81-2.09.77-2.68,2-.15.31-1.07,4.12-.52,4.08a4.19,4.19,0,0,1-4.47-3.06c-.1-.42-.32-1.18-.41-1.61a.89.89,0,0,0-1-.73l-.12,0c-1.23.27-2,.77-3.17,1.08a23,23,0,0,1-10.13.6,12.1,12.1,0,0,1-6.37-3.41A9.57,9.57,0,0,1,333,48.14Z"/><path class="g" d="M348.72,63.84l3.58.55a1.87,1.87,0,0,0-1.54-2.09,1.79,1.79,0,0,0-2,1.51Z"/><path class="t" d="M347.9,80.26l-3,.78a1.51,1.51,0,0,0,1.79,1.16h0A1.62,1.62,0,0,0,347.9,80.26Z"/><path class="g" d="M335.34,64.05l3.57-.4A1.73,1.73,0,0,0,337.08,62H337A1.89,1.89,0,0,0,335.34,64.05Z"/><path class="t" d="M344,69l-.49,8.33-4.64-1.21,4.64-7.22A1.23,1.23,0,0,1,344,69Z"/><path class="g" d="M364,74.75a2.18,2.18,0,0,0,4.36,0,2.17,2.17,0,0,0-2.17-2.19h0A2.17,2.17,0,0,0,364,74.74Z"/><path class="g" d="M363.73,70.77a4.62,4.62,0,0,1,1-1.78,2.15,2.15,0,0,1,1.72-.59s.06.07,0,.09a7.45,7.45,0,0,0-.65.39,3.91,3.91,0,0,0-.66.56,2.27,2.27,0,0,0-.42.68,3.11,3.11,0,0,0-.25.89,2.79,2.79,0,0,0,.2,1.43,2.52,2.52,0,0,0,.41.69,2.47,2.47,0,0,1,.49.53c.13.28-.25.75-.55.59a2.87,2.87,0,0,1-1.19-1.51A2.84,2.84,0,0,1,363.73,70.77Z"/><path class="h" d="M332.77,100.45c-3,2-7.19,4.56-8.21,7.35s-4,19-4.28,24.24a27,27,0,0,0,8.49,2.4Z"/><path class="f" d="M368.44,92.72c7.65,4.2,15.19,10.47,16.81,12.89,0,0-4.46,14.89-8.4,22s-6.05,28-6.05,28-26.95,8.93-35.39,9.64-9.51-2.89-9.51-2.89-.18-23.36,1.78-38.95,1.54-20.23,5.11-22.88c2.32-1.71,12.29-6,12.29-6v4.47C350.53,99,368.44,92.72,368.44,92.72Z"/><path class="c" d="M343,101.28a5.88,5.88,0,0,1-.57-3.25l2.25-1.63v2.83Z"/><path class="u" d="M343,101.28a5.88,5.88,0,0,1-.57-3.25l2.25-1.63v2.83Z"/><polygon class="c" points="347.36 99.56 353.18 96.23 357.56 99.7 348.71 103.37 347.36 99.56"/><polygon class="u" points="347.36 99.56 353.18 96.23 357.56 99.7 348.71 103.37 347.36 99.56"/><path class="h" d="M362,86.4v1.18c-.22,1.11-2.42,3.71-8,6.19s-7.85,5.14-7.85,5.14a14.38,14.38,0,0,1,4.4.81c2.52.89,6.72,4.11,7.92,4.07s2.85-3.34,6-6.64a56.49,56.49,0,0,0,4-4.46S364.13,86.43,362,86.4Z"/><path class="h" d="M346.15,98.91c-2,.22-3.89,1.61-4.39.89s1.22-7.45,4.37-9.5Z"/><path class="t" d="M326.67,134.16s-.24,4.17-.3,5.6,2.32,25.91,2.32,25.91l-8.41,3.57s-1-9.43-1.35-14.69a85.92,85.92,0,0,1,.72-16.19c.66-4.47.9-6.19.9-6.19A31.48,31.48,0,0,0,326.67,134.16Z"/><path class="s" d="M321,181.2V183a31.76,31.76,0,0,0,1.41,6.95c.53,1.32,1.79,4.23,2.45,4.57a3.23,3.23,0,0,0,2.05.36c1.33-.12,2.73.56,4,0a7.61,7.61,0,0,1,1.53-.64c.78-.18,1.67.05,2.37-.36.45-.26.72-.74,1.16-1,.64-.4,1.49-.25,2.18-.57a2.27,2.27,0,0,0,1.14-1.35,7.37,7.37,0,0,0-.24-3.69,3.17,3.17,0,0,0,.6-2,16.79,16.79,0,0,0-.53-4.52c-.29-.9-6.4-4.37-6.4-4.37l-1.21-.8a10.26,10.26,0,0,0-7.5,1.21C320.38,179,321,181.2,321,181.2Z"/><path class="t" d="M322.61,181c-1.62,2.68-.67,7.52-.66,7.57a29.5,29.5,0,0,1-1-5.59v-1.79s-.58-2.23,3-4.47a10.33,10.33,0,0,1,7.51-1.2S324.23,178.33,322.61,181Z"/><path class="t" d="M339,187.18a15.23,15.23,0,0,0-2.6-4.8c-.68-.62-1.25-1.42-.57-1.15s1.62.42,2,0,.45.34,0,1-.07,1.13.42,2.19A10.59,10.59,0,0,1,339,187.18Z"/><path class="s" d="M382.92,105.9c2.55.89,2.89,7.86,2.33,14.12s-5.43,21-7.65,26.18c-2.5,5.78-4,9.11-5.67,10.93s-5.13,3.3-9.58,5.61c-4,2.08-6.77,3.13-13.64,5.26-7.73,2.4-10.72,2.55-12.36,3.7s-2.11,3.65-3.73,4.59l-1.2-.8a26.15,26.15,0,0,0-7.69,3.22A10.3,10.3,0,0,0,321,181.2V183s-2,.82-3.62-2.68-2.42-8.76-.51-11.05,8-5.44,12.88-7,7.35-3.14,13.09-6.61c6.11-3.69,10.35-6.15,13.4-7.81a4.89,4.89,0,0,0,2.45-3.57c.41-1.68,1.63-6.65,2.38-10.38C362.23,127.66,364.92,108.78,382.92,105.9Z"/><path class="h" d="M385.25,105.61s1.19.2,1.35,5.15a75.57,75.57,0,0,1-.67,14c-.65,3.79-4.46,15-4.46,15s-11,3.57-22.19-.69c0,0,2.64-16.17,3.63-20.46S377.79,101.12,385.25,105.61Z"/><path class="c" d="M346.46,105.93A201,201,0,0,0,345,133c0,3.3-4.82,10-6,9.87s-3.21-6.45-3.51-10.11c.46-8.86,5.82-22.61,8.16-27.31Z"/><path class="q" d="M343.49,105.81a2.64,2.64,0,0,1,.18-.38l2.79.5-.17,1.18A4.86,4.86,0,0,1,343.49,105.81Z"/><path class="c" d="M347.36,99.56a11.55,11.55,0,0,0-2.68-.32,6.19,6.19,0,0,0-1.72,2.05,9.62,9.62,0,0,0,.69,4.14,3.39,3.39,0,0,0,2.8.5,6,6,0,0,0,2.25-2.56A5.42,5.42,0,0,0,347.36,99.56Z"/></svg>